<svg xml:space="preserve" style="enable-background:new 0 0 255.975 251.146;" viewBox="0 0 255.975 251.146" height="251.146px" width="255.975px" y="0px" x="0px" xmlns:xlink="http://www.w3.org/1999/xlink" xmlns="http://www.w3.org/2000/svg" id="Layer_1" version="1.1">
<g id="Layer_1_1_">
	<path d="M252.896,115.048c0-42.68-33.093-77.274-73.912-77.274c-0.636,0-1.262,0.03-1.894,0.049
		C164.203,15.18,140.573,0,113.541,0C72.72,0,39.628,34.6,39.628,77.28c0,0.554,0.029,1.1,0.04,1.652
		C17.342,92.227,2.277,117.317,2.277,146.104c0,42.678,33.093,77.27,73.914,77.27c2.321,0,4.615-0.123,6.883-0.342
		c13.558,4.969,35.069,28.115,58.029,28.115c37.732,0,67.832-29.563,72.33-67.734C236.896,170.465,252.896,144.715,252.896,115.048z" style="fill:#E3F0F7;"></path>
	<g style="display:none;" id="Layer_3_4_">
		<g style="display:inline;">
			<g>
				<path d="M83.635,140.439c0-11.564-10.059-20.938-22.467-20.938c-0.194,0-0.385,0.009-0.576,0.015
					c-3.917-6.135-11.102-10.245-19.318-10.245c-12.408,0-22.469,9.372-22.469,20.935c0,0.15,0.009,0.297,0.012,0.447
					c-6.784,3.602-11.364,10.397-11.364,18.197c0,11.562,10.059,20.934,22.468,20.934c0.705,0,1.403-0.033,2.092-0.094
					c4.122,4.649,10.358,7.617,17.335,7.617c11.471,0,20.925-8.011,22.293-18.351C78.772,155.451,83.635,148.477,83.635,140.439z" style="fill:#D7F7E4;"></path>
				<path d="M49.347,178.807c-6.894,0-13.392-2.749-17.95-7.568c-0.499,0.03-0.993,0.045-1.477,0.045
					c-13.216,0-23.968-10.063-23.968-22.434c0-7.768,4.329-14.997,11.357-19.076c0.247-12.171,10.902-22.003,23.964-22.003
					c8.091,0,15.716,3.9,20.112,10.231c13.116,0.11,23.75,10.133,23.75,22.437c0,8.109-4.626,15.514-12.127,19.503
					C71.16,170.752,61.136,178.807,49.347,178.807z M32.633,168.13l0.501,0.565c4.007,4.52,9.917,7.112,16.212,7.112
					c10.575,0,19.52-7.329,20.806-17.047l0.105-0.796l0.72-0.354c6.882-3.384,11.157-9.963,11.157-17.172
					c0-10.718-9.406-19.438-20.967-19.438c-0.128,0-0.255,0.005-0.382,0.009l-1,0.031l-0.458-0.718
					c-3.762-5.892-10.68-9.552-18.054-9.552c-11.562,0-20.969,8.718-20.969,19.435l0.029,1.34l-0.814,0.433
					c-6.518,3.46-10.567,9.925-10.567,16.872c0,10.716,9.406,19.434,20.968,19.434c0.637,0,1.296-0.029,1.96-0.088L32.633,168.13z" style="fill:#CCCCDE;"></path>
			</g>
			<path d="M60.789,118.75c-0.193,0-0.385,0.009-0.575,0.015
				c-3.141-4.919-8.383-8.534-14.573-9.775c4.898,1.229,9.023,4.208,11.559,8.175c0.165-0.004,2.416,3.886,2.583,3.886
				c10.647,0,15.601,5.738,15.601,15.659c0,6.896-2.583,11.291-8.704,14.301c-1.173,8.875-9.287,15.748-19.129,15.748
				c-5.99,0-11.34-2.543-14.877-6.53c-0.591,0.049-1.189,0.075-1.794,0.075c-10.649,0-19.013-5.047-19.013-14.967
				c0-6.682,2.989-9.973,8.432-13.938c-0.146-0.855-0.75-8.42,1.267-10.438c4.792-4.793,6.963-8.909,11.25-11.038
				c-8.414,3.025-14.385,10.627-14.385,19.535c0,0.148,0.009,0.299,0.012,0.447C11.655,133.509,7.076,140.3,7.076,148.1
				c0,11.562,10.059,20.938,22.468,20.938c0.707,0,1.402-0.035,2.093-0.098c4.121,4.647,10.356,7.617,17.336,7.617
				c11.469,0,20.924-8.013,22.291-18.354c7.133-3.506,11.997-10.479,11.997-18.52C83.258,128.123,73.199,118.75,60.789,118.75z" style="opacity:0.1;fill:#6E6E96;enable-background:new    ;"></path>
			<g>
				<path d="M28.811,151.761c0,0,11.635,2.277,11.635,13.662c0,0,3.133,19.343-8.976,33.027h27.96
					c-0.277-0.387-24.422-32.645,2.449-51.816C45.491,156.004,28.811,151.761,28.811,151.761z" style="fill:#EDE3DA;"></path>
				<path d="M59.43,199.951H28.14l2.207-2.494c11.504-13.002,8.648-31.607,8.619-31.793l-0.02-0.24
					c0-9.079-8.399-11.683-10.144-12.124c-0.238-0.053-0.361-0.084-0.361-0.084l0.658-2.926c0,0,0.139,0.026,0.39,0.089
					c0.935,0.203,4.231,0.841,8.802,0.841c5.724,0,14.333-1.021,22.844-5.887l1.616,2.522c-6.631,4.731-10.568,10.71-11.702,17.771
					c-2.415,15.029,8.337,30.228,9.571,31.91l1.75,2.387L59.43,199.951z M34.605,196.951H56.6
					c-3.447-5.394-10.64-18.566-8.514-31.801c0.803-5.002,2.847-9.503,6.101-13.457c-6.069,2.011-11.71,2.526-15.897,2.526
					c-0.464,0-0.915-0.006-1.352-0.018c2.654,2.276,4.973,5.786,5.007,11.104C42.206,167.042,44.376,183.638,34.605,196.951z" style="fill:#CCCCDE;"></path>
			</g>
			<g>
				<path d="M36.178,128.922" style="fill:#D57E58;"></path>
			</g>
			<path d="M54.905,151.73c0,0-17.653,22.793-4.085,46.721h8.611
				C59.43,198.451,41.515,173.414,54.905,151.73z" style="opacity:0.11;fill:#6E6E96;enable-background:new    ;"></path>
		</g>
		<g style="display:inline;">
			<g>
				<path d="M253.475,139.156c0-10.828-9.42-19.604-21.04-19.604c-0.183,0-0.359,0.009-0.539,0.014
					c-3.669-5.744-10.396-9.596-18.091-9.596c-11.62,0-21.041,8.777-21.041,19.604c0,0.141,0.009,0.279,0.012,0.418
					c-6.354,3.375-10.644,9.74-10.644,17.043c0,10.826,9.421,19.605,21.04,19.605c0.66,0,1.312-0.033,1.96-0.091
					c3.858,4.354,9.698,7.136,16.233,7.136c10.737,0,19.596-7.5,20.875-17.187C248.92,153.213,253.475,146.684,253.475,139.156z" style="fill:#D7F7E4;"></path>
				<path d="M221.365,175.185c-6.467,0-12.562-2.573-16.847-7.086c-0.46,0.027-0.904,0.041-1.347,0.041
					c-12.429,0-22.54-9.468-22.54-21.105c0-7.289,4.053-14.077,10.637-17.92c0.262-11.426,10.271-20.646,22.536-20.646
					c7.589,0,14.744,3.651,18.884,9.583c12.312,0.128,22.286,9.545,22.286,21.103c0,7.613-4.335,14.567-11.367,18.327
					C241.852,167.63,232.437,175.185,221.365,175.185z M205.753,164.988l0.502,0.566c3.733,4.214,9.241,6.631,15.11,6.631
					c9.857,0,18.192-6.828,19.388-15.883l0.105-0.796l0.72-0.354c6.413-3.155,10.396-9.285,10.396-15.997
					c0-9.982-8.766-18.104-19.54-18.104c-0.109,0-0.216,0.004-0.322,0.007l-1.024,0.029l-0.456-0.715
					c-3.508-5.492-9.956-8.903-16.827-8.903c-10.775,0-19.541,8.122-19.541,18.104l0.031,1.31l-0.815,0.433
					c-6.074,3.227-9.848,9.25-9.848,15.719c0,9.983,8.766,18.105,19.54,18.105c0.587,0,1.185-0.027,1.827-0.085L205.753,164.988z" style="fill:#CCCCDE;"></path>
			</g>
			<path d="M232.081,118.845c-0.185,0-0.358,0.009-0.539,0.013
				c-2.94-4.606-7.854-7.992-13.646-9.154c4.586,1.15,8.449,3.94,10.822,7.655c0.154-0.004,2.263,3.639,2.419,3.639
				c9.971,0,14.608,5.374,14.608,14.664c0,6.459-2.42,10.574-8.148,13.396c-1.1,8.311-8.698,14.741-17.914,14.741
				c-5.606,0-10.619-2.381-13.934-6.116c-0.558,0.047-1.112,0.071-1.683,0.071c-9.975,0-17.806-4.727-17.806-14.016
				c0-6.258,2.8-9.34,7.896-13.055c-0.139-0.808-0.701-7.887,1.188-9.772c4.485-4.488,6.521-8.343,10.534-10.337
				c-7.879,2.833-13.471,9.952-13.471,18.291c0,0.139,0.006,0.275,0.012,0.418c-6.354,3.373-10.646,9.736-10.646,17.041
				c0,10.824,9.421,19.604,21.041,19.604c0.661,0,1.313-0.032,1.959-0.09c3.859,4.355,9.699,7.136,16.234,7.136
				c10.739,0,19.594-7.5,20.875-17.188c6.68-3.285,11.231-9.812,11.231-17.342C253.122,127.623,243.702,118.845,232.081,118.845z" style="opacity:0.1;fill:#6E6E96;enable-background:new    ;"></path>
			<g>
				<path d="M202.135,149.758c0,0,10.896,2.134,10.896,12.797c0,0,2.934,18.109-8.406,30.929h26.184
					c-0.26-0.359-22.87-30.566,2.294-48.521C217.754,153.732,202.135,149.758,202.135,149.758z" style="fill:#EDE3DA;"></path>
				<path d="M230.809,194.983h-29.513l2.206-2.494c10.718-12.116,8.076-29.521,8.049-29.696l-0.02-0.238
					c0-8.431-7.802-10.853-9.427-11.264c-0.224-0.05-0.34-0.079-0.34-0.079l0.658-2.926c0,0,0.132,0.024,0.368,0.084
					c0.876,0.19,3.956,0.786,8.228,0.786c5.347,0,13.39-0.954,21.34-5.497l1.615,2.523c-6.193,4.419-9.868,10.003-10.923,16.596
					c-2.249,14.062,7.798,28.227,8.951,29.796l1.755,2.388L230.809,194.983z M207.748,191.983h20.233
					c-3.271-5.143-9.863-17.358-7.893-29.679c0.736-4.604,2.59-8.757,5.534-12.417c-5.577,1.803-10.748,2.269-14.604,2.269
					c-0.344,0-0.681-0.004-1.011-0.01c2.418,2.148,4.49,5.411,4.523,10.29C214.78,164.099,216.781,179.527,207.748,191.983z" style="fill:#CCCCDE;"></path>
			</g>
			<g>
				<path d="M209.036,128.373" style="fill:#D57E58;"></path>
			</g>
			<path d="M226.571,149.73c0,0-16.53,21.344-3.823,43.752h8.062
				C230.808,193.482,214.032,170.035,226.571,149.73z" style="opacity:0.11;fill:#6E6E96;enable-background:new    ;"></path>
		</g>
		<g style="display:inline;">
			<g>
				<path d="M216.773,140.916c0-16.621-14.461-30.094-32.299-30.094c-0.278,0-0.554,0.012-0.828,0.019
					c-5.632-8.816-15.959-14.729-27.771-14.729c-17.838,0-32.301,13.475-32.301,30.096c0,0.215,0.014,0.428,0.018,0.646
					c-9.755,5.181-16.339,14.944-16.339,26.155c0,16.621,14.462,30.099,32.3,30.099c1.014,0,2.018-0.049,3.008-0.14
					c5.926,6.689,14.89,10.951,24.921,10.951c16.489,0,30.081-11.514,32.049-26.379
					C209.782,162.498,216.773,152.469,216.773,140.916z" style="fill:#D7F7E4;"></path>
				<path d="M167.482,195.42c-9.84,0-19.102-3.962-25.536-10.896c-0.805,0.057-1.606,0.085-2.393,0.085
					c-18.637,0-33.8-14.175-33.8-31.599c0-11.044,6.23-21.321,16.322-27.034c0.134-17.315,15.245-31.363,33.8-31.363
					c11.535,0,22.398,5.615,28.566,14.71c0.011,0,0.021,0,0.032,0c18.637,0,33.799,14.173,33.799,31.594
					c0,11.516-6.635,22.026-17.37,27.612C198.444,183.914,184.226,195.42,167.482,195.42z M143.18,181.405l0.504,0.569
					c5.881,6.638,14.555,10.445,23.798,10.445c15.53,0,28.67-10.78,30.562-25.076l0.105-0.795l0.72-0.354
					c10.118-4.978,16.404-14.664,16.404-25.279c0-15.767-13.816-28.594-30.799-28.594c-0.182,0-0.362,0.006-0.543,0.011
					l-1.094,0.028l-0.455-0.713c-5.531-8.658-15.688-14.036-26.507-14.036c-16.983,0-30.801,12.828-30.801,28.596
					c0,0.105,0.004,0.211,0.008,0.317l0.025,1.223l-0.812,0.432c-9.587,5.091-15.542,14.605-15.542,24.83
					c0,15.77,13.817,28.599,30.8,28.599c0.939,0,1.906-0.045,2.871-0.134L143.18,181.405z" style="fill:#CCCCDE;"></path>
			</g>
			<path d="M183.931,109.738c-0.276,0-0.552,0.012-0.827,0.019
				c-4.516-7.07-12.051-12.269-20.949-14.052c7.041,1.766,12.972,6.049,16.614,11.751c0.237-0.006,3.475,5.586,3.713,5.586
				c15.309,0,22.43,8.248,22.43,22.511c0,9.914-3.716,16.232-12.514,20.563c-1.687,12.754-13.353,22.635-27.5,22.635
				c-8.609,0-16.302-3.656-21.387-9.395c-0.851,0.069-1.71,0.112-2.58,0.112c-15.31,0-27.332-7.254-27.332-21.516
				c0-9.604,4.298-14.336,12.12-20.039c-0.209-1.234-1.077-12.104,1.82-15.002c6.89-6.89,10.011-12.808,16.174-15.868
				c-12.096,4.35-20.679,15.277-20.679,28.08c0,0.215,0.011,0.428,0.017,0.646c-9.756,5.177-16.34,14.946-16.34,26.155
				c0,16.621,14.461,30.099,32.3,30.099c1.017,0,2.017-0.049,3.008-0.138c5.925,6.689,14.891,10.949,24.922,10.949
				c16.487,0,30.078-11.514,32.046-26.379c10.255-5.043,17.244-15.07,17.244-26.623C216.231,123.211,201.77,109.738,183.931,109.738
				z" style="opacity:0.1;fill:#6E6E96;enable-background:new    ;"></path>
			<g>
				<path d="M137.959,157.193c0,0,16.727,3.271,16.727,19.643c0,0,4.504,27.808-12.903,47.48h40.194
					c-0.397-0.558-35.106-46.922,3.521-74.484C161.939,163.293,137.959,157.193,137.959,157.193z" style="fill:#EDE3DA;"></path>
				<path d="M181.977,225.816h-43.524l2.207-2.494c16.742-18.922,12.59-45.976,12.546-46.246l-0.02-0.24
					c0-13.556-12.513-17.42-15.085-18.07c-0.336-0.073-0.512-0.118-0.512-0.118l0.658-2.926c0,0,0.193,0.037,0.54,0.123
					c1.35,0.295,6.156,1.228,12.81,1.228c8.306,0,20.8-1.482,33.157-8.543l1.615,2.523c-9.675,6.904-15.424,15.638-17.087,25.96
					c-3.517,21.837,12.081,43.926,13.871,46.372l1.746,2.386L181.977,225.816z M144.972,222.816h34.147
					c-4.572-6.933-15.968-26.604-12.799-46.28c1.267-7.861,4.705-14.853,10.255-20.882c-9.523,3.547-18.481,4.418-24.979,4.418
					c-1.403,0-2.726-0.039-3.955-0.104c4.313,3.099,8.505,8.286,8.544,16.749C156.523,178.925,159.875,203.589,144.972,222.816z" style="fill:#CCCCDE;"></path>
			</g>
			<g>
				<path d="M148.552,124.362" style="fill:#D57E58;"></path>
			</g>
			<path d="M175.472,157.148c0,0-25.378,32.766-5.873,67.164h12.378
				C181.977,224.313,156.223,188.32,175.472,157.148z" style="opacity:0.11;fill:#6E6E96;enable-background:new    ;"></path>
		</g>
		<g style="display:inline;">
			<g>
				<path d="M144.936,142.027c0-13.646-11.873-24.707-26.517-24.707c-0.229,0-0.454,0.01-0.68,0.016
					c-4.624-7.238-13.103-12.092-22.801-12.092c-14.644,0-26.518,11.063-26.518,24.706c0,0.178,0.012,0.354,0.015,0.529
					c-8.01,4.252-13.414,12.271-13.414,21.477c0,13.646,11.872,24.707,26.519,24.707c0.832,0,1.654-0.041,2.469-0.104
					c4.864,5.483,12.224,8.983,20.46,8.983c13.537,0,24.695-9.451,26.309-21.651C139.196,159.746,144.936,151.514,144.936,142.027z" style="fill:#D7F7E4;"></path>
				<path d="M104.469,187.042c-8.108,0-15.747-3.248-21.08-8.938c-0.655,0.039-1.265,0.059-1.849,0.059
					c-15.45,0-28.019-11.757-28.019-26.207c0-9.118,5.111-17.604,13.402-22.355c0.2-14.29,12.69-25.856,28.015-25.856
					c9.509,0,18.468,4.606,23.596,12.076c15.395,0.059,27.901,11.793,27.901,26.207c0,9.511-5.454,18.196-14.288,22.849
					C130.05,177.568,118.3,187.042,104.469,187.042z M84.636,175.005l0.495,0.559c4.78,5.388,11.829,8.479,19.338,8.479
					c12.617,0,23.288-8.748,24.821-20.348l0.105-0.795l0.72-0.354c8.216-4.045,13.32-11.907,13.32-20.518
					c0-12.797-11.223-23.207-25.017-23.207c-0.149,0-0.295,0.005-0.441,0.009l-1.046,0.028l-0.456-0.714
					c-4.492-7.031-12.744-11.399-21.537-11.399c-13.795,0-25.018,10.41-25.018,23.206l0.03,1.423l-0.812,0.432
					c-7.783,4.131-12.617,11.853-12.617,20.151c0,12.797,11.223,23.207,25.019,23.207c0.72,0,1.489-0.032,2.352-0.1L84.636,175.005z" style="fill:#CCCCDE;"></path>
			</g>
			<path d="M117.973,116.432c-0.228,0-0.452,0.009-0.679,0.015
				c-3.707-5.805-9.895-10.072-17.199-11.537c5.78,1.45,10.648,4.966,13.641,9.647c0.194-0.006,2.852,4.586,3.049,4.586
				c12.566,0,18.414,6.771,18.414,18.479c0,8.139-3.051,13.326-10.271,16.881c-1.384,10.474-10.961,18.584-22.576,18.584
				c-7.068,0-13.384-3.004-17.559-7.715c-0.698,0.062-1.404,0.096-2.118,0.096c-12.568,0-22.438-5.957-22.438-17.664
				c0-7.885,3.528-11.77,9.949-16.45c-0.171-1.017-0.884-9.938,1.496-12.316c5.655-5.657,8.218-10.515,13.277-13.028
				c-9.931,3.571-16.979,12.542-16.979,23.055c0,0.176,0.011,0.352,0.016,0.526c-8.012,4.25-13.415,12.271-13.415,21.478
				c0,13.645,11.873,24.707,26.518,24.707c0.834,0,1.655-0.041,2.469-0.109c4.864,5.488,12.225,8.988,20.461,8.988
				c13.536,0,24.693-9.451,26.311-21.656c8.418-4.141,14.158-12.371,14.158-21.854C144.491,127.494,132.618,116.432,117.973,116.432
				z" style="opacity:0.1;fill:#6E6E96;enable-background:new    ;"></path>
			<g>
				<path d="M80.232,155.391c0,0,13.731,2.688,13.731,16.129c0,0,3.697,22.821-10.595,38.977h33
					c-0.328-0.455-28.824-38.52,2.89-61.152C99.918,160.398,80.232,155.391,80.232,155.391z" style="fill:#EDE3DA;"></path>
				<path d="M116.368,211.997h-36.33l2.206-2.494c13.636-15.413,10.273-37.522,10.237-37.743l-0.019-0.239
					c0-10.928-10.095-14.05-12.18-14.577c-0.277-0.062-0.421-0.098-0.421-0.098l0.658-2.926c0,0,0.161,0.03,0.45,0.103
					c1.105,0.241,5.024,1,10.454,1c6.787,0,16.996-1.211,27.09-6.98l1.616,2.523c-7.892,5.633-12.577,12.755-13.924,21.168
					c-2.86,17.867,9.888,35.854,11.351,37.847l1.753,2.388L116.368,211.997z M86.53,208.997h26.991
					c-3.932-6.046-12.823-21.843-10.278-37.737c0.989-6.178,3.596-11.705,7.777-16.519c-7.479,2.623-14.467,3.281-19.597,3.281
					c-0.832,0-1.628-0.017-2.388-0.045c3.334,2.627,6.391,6.832,6.427,13.425C95.756,173.339,98.41,193.244,86.53,208.997z" style="fill:#CCCCDE;"></path>
			</g>
			<g>
				<path d="M88.928,128.438" style="fill:#D57E58;"></path>
			</g>
			<path d="M111.028,155.355c0,0-20.835,26.897-4.82,55.141h10.162
				C116.369,210.496,95.225,180.945,111.028,155.355z" style="opacity:0.11;fill:#6E6E96;enable-background:new    ;"></path>
		</g>
		<g style="display:inline;">
			<g>
				<path d="M252.159,166.164c0-12.344-10.74-22.35-23.988-22.35c-0.202,0-0.406,0.008-0.61,0.014
					c-4.187-6.549-11.854-10.938-20.625-10.938c-13.248,0-23.984,10.008-23.984,22.35c0,0.162,0.012,0.318,0.014,0.479
					c-7.244,3.851-12.135,11.105-12.135,19.433c0,12.348,10.735,22.354,23.984,22.354c0.753,0,1.497-0.039,2.229-0.104
					c4.399,4.969,11.062,8.135,18.512,8.135c12.245,0,22.339-8.553,23.799-19.592C246.965,182.191,252.159,174.746,252.159,166.164z" style="fill:#D7F7E4;"></path>
				<path d="M215.556,207.036c-7.355,0-14.281-2.938-19.127-8.084c-0.557,0.035-1.091,0.053-1.614,0.053
					c-14.052,0-25.484-10.7-25.484-23.854c0-8.271,4.622-15.974,12.125-20.311c0.228-12.967,11.57-23.45,25.48-23.45
					c8.62,0,16.746,4.166,21.42,10.925c13.97,0.093,25.304,10.756,25.304,23.849c0,8.631-4.937,16.519-12.936,20.765
					C238.783,198.447,228.112,207.036,215.556,207.036z M197.666,195.841l0.501,0.566c4.293,4.849,10.631,7.629,17.389,7.629
					c11.341,0,20.933-7.862,22.312-18.288l0.105-0.795l0.719-0.354c7.382-3.64,11.968-10.704,11.968-18.435
					c0-11.496-10.088-20.85-22.488-20.85c-0.146,0-0.294,0.005-0.441,0.009l-0.976,0.028l-0.457-0.716
					c-4.04-6.319-11.459-10.245-19.361-10.245c-12.397,0-22.484,9.354-22.484,20.85l0.024,1.374l-0.807,0.429
					c-6.994,3.718-11.339,10.656-11.339,18.108c0,11.499,10.087,20.854,22.484,20.854c0.664,0,1.351-0.032,2.098-0.098
					L197.666,195.841z" style="fill:#CCCCDE;"></path>
			</g>
			<path d="M227.767,143.008c-0.206,0-0.409,0.013-0.614,0.017
				c-3.354-5.25-8.948-9.111-15.558-10.438c5.229,1.313,9.633,4.492,12.339,8.729c0.175-0.004,2.579,4.147,2.757,4.147
				c11.368,0,16.655,6.123,16.655,16.72c0,7.36-2.757,12.055-9.291,15.27c-1.252,9.473-9.915,16.814-20.423,16.814
				c-6.396,0-12.106-2.722-15.884-6.98c-0.631,0.055-1.271,0.086-1.916,0.086c-11.368,0-20.299-5.389-20.299-15.979
				c0-7.136,3.188-10.646,9.002-14.886c-0.156-0.918-0.805-8.985,1.353-11.141c5.116-5.117,7.436-9.514,12.011-11.785
				c-8.979,3.229-15.356,11.346-15.356,20.854c0,0.157,0.013,0.315,0.017,0.479c-7.246,3.846-12.138,11.104-12.138,19.428
				c0,12.345,10.738,22.353,23.988,22.353c0.754,0,1.496-0.035,2.23-0.103c4.401,4.968,11.061,8.134,18.509,8.134
				c12.245,0,22.338-8.554,23.8-19.593c7.614-3.741,12.812-11.19,12.812-19.77C251.754,153.016,241.016,143.008,227.767,143.008z" style="opacity:0.1;fill:#6E6E96;enable-background:new    ;"></path>
			<g>
				<path d="M193.625,178.252c0,0,12.422,2.433,12.422,14.588c0,0,3.345,20.646-9.584,35.261h29.853
					c-0.296-0.41-26.072-34.849,2.615-55.318C211.435,182.783,193.625,178.252,193.625,178.252z" style="fill:#EDE3DA;"></path>
				<path d="M226.316,229.6h-33.183l2.207-2.494c12.288-13.891,9.258-33.828,9.227-34.028l-0.02-0.238
					c0-9.771-9.035-12.571-10.908-13.045c-0.252-0.056-0.384-0.089-0.384-0.089l0.658-2.926c0,0,0.147,0.028,0.412,0.094
					c0.999,0.218,4.531,0.902,9.427,0.902c6.122,0,15.331-1.093,24.435-6.297l1.615,2.523c-7.106,5.071-11.324,11.481-12.537,19.053
					c-2.579,16.109,8.921,32.334,10.241,34.132l1.754,2.388L226.316,229.6z M199.609,226.6h23.868
					c-3.633-5.64-11.454-19.779-9.174-34.019c0.872-5.444,3.125-10.332,6.725-14.61c-6.595,2.235-12.737,2.805-17.275,2.805
					c-0.6,0-1.179-0.01-1.738-0.027c2.909,2.411,5.498,6.182,5.533,11.973C207.82,194.534,210.169,212.37,199.609,226.6z" style="fill:#CCCCDE;"></path>
			</g>
			<g>
				<path d="M201.493,153.871" style="fill:#D57E58;"></path>
			</g>
			<path d="M221.485,178.219c0,0-18.847,24.334-4.36,49.882h9.191
				C226.316,228.1,207.189,201.369,221.485,178.219z" style="opacity:0.11;fill:#6E6E96;enable-background:new    ;"></path>
		</g>
		<g style="display:inline;">
			<g>
				<path d="M87.893,164.313c0-13.111-11.408-23.738-25.479-23.738c-0.221,0-0.437,0.008-0.653,0.014
					c-4.443-6.955-12.589-11.612-21.907-11.612c-14.07,0-25.479,10.629-25.479,23.735c0,0.17,0.011,0.336,0.015,0.506
					C6.694,157.302,1.5,165.011,1.5,173.857c0,13.106,11.407,23.735,25.479,23.735c0.8,0,1.59-0.041,2.372-0.104
					c4.674,5.271,11.745,8.639,19.659,8.639c13.007,0,23.729-9.082,25.279-20.809C82.378,181.336,87.893,173.427,87.893,164.313z" style="fill:#D7F7E4;"></path>
				<path d="M49.01,207.628c-7.795,0-15.142-3.122-20.278-8.592c-0.622,0.038-1.201,0.057-1.753,0.057
					C12.103,199.093,0,187.772,0,173.857c0-8.773,4.911-16.938,12.877-21.518c0.213-13.744,12.232-24.863,26.977-24.863
					c9.147,0,17.765,4.424,22.703,11.599c14.811,0.072,26.836,11.366,26.836,25.238c0,9.149-5.242,17.507-13.734,21.991
					C73.628,198.516,62.319,207.628,49.01,207.628z M29.977,195.934l0.496,0.56c4.584,5.169,11.341,8.134,18.537,8.134
					c12.094,0,22.323-8.386,23.792-19.505l0.105-0.795l0.719-0.354c7.875-3.878,12.766-11.411,12.766-19.66
					c0-12.263-10.757-22.238-23.979-22.238c-0.162,0-0.321,0.005-0.48,0.01l-0.98,0.026l-0.457-0.715
					c-4.303-6.735-12.213-10.92-20.643-10.92c-13.222,0-23.979,9.975-23.979,22.235l0.036,1.396l-0.818,0.435
					C7.634,158.502,3,165.903,3,173.857c0,12.261,10.757,22.235,23.979,22.235c0.684,0,1.421-0.032,2.252-0.099L29.977,195.934z" style="fill:#CCCCDE;"></path>
			</g>
			<path d="M61.986,139.719c-0.219,0-0.435,0.011-0.651,0.017
				c-3.562-5.578-9.506-9.678-16.525-11.086c5.553,1.393,10.231,4.771,13.106,9.27c0.186-0.004,2.738,4.406,2.928,4.406
				c12.076,0,17.692,6.506,17.692,17.758c0,7.82-2.93,12.805-9.87,16.221c-1.33,10.064-10.531,17.855-21.693,17.855
				c-6.792,0-12.859-2.885-16.871-7.412c-0.67,0.057-1.348,0.092-2.035,0.092c-12.075,0-21.561-5.723-21.561-16.975
				c0-7.574,3.391-11.307,9.561-15.807c-0.165-0.976-0.85-9.55,1.438-11.837c5.435-5.434,7.896-10.102,12.758-12.516
				c-9.541,3.43-16.312,12.051-16.312,22.146c0,0.17,0.01,0.338,0.014,0.508c-7.696,4.084-12.889,11.793-12.889,20.639
				c0,13.107,11.406,23.736,25.479,23.736c0.801,0,1.591-0.039,2.373-0.105c4.674,5.273,11.745,8.64,19.659,8.64
				c13.006,0,23.728-9.08,25.277-20.81c8.09-3.979,13.604-11.891,13.604-21.002C87.466,150.345,76.058,139.719,61.986,139.719z" style="opacity:0.1;fill:#6E6E96;enable-background:new    ;"></path>
			<g>
				<path d="M25.723,177.152c0,0,13.193,2.584,13.193,15.496c0,0,3.553,21.932-10.18,37.451h31.707
					c-0.313-0.438-27.693-37.017,2.777-58.761C44.638,181.963,25.723,177.152,25.723,177.152z" style="fill:#EDE3DA;"></path>
				<path d="M60.444,231.599H25.406l2.207-2.494c13.11-14.815,9.857-36.005,9.823-36.217l-0.02-0.24
					c0-10.453-9.661-13.442-11.659-13.948c-0.266-0.059-0.405-0.094-0.405-0.094l0.659-2.926c0,0,0.154,0.029,0.433,0.099
					c1.061,0.231,4.819,0.96,10.029,0.96c6.515,0,16.314-1.163,26.003-6.702l1.616,2.522c-7.562,5.397-12.054,12.22-13.351,20.279
					c-2.752,17.112,9.483,34.423,10.888,36.341l1.748,2.386L60.444,231.599z M31.892,228.599h25.711
					c-3.808-5.89-12.268-21.042-9.824-36.237c0.943-5.865,3.402-11.122,7.337-15.709c-7.116,2.464-13.757,3.086-18.644,3.086
					c-0.734,0-1.439-0.014-2.115-0.038c3.159,2.539,6.022,6.566,6.058,12.829C40.701,194.417,43.23,213.474,31.892,228.599z" style="fill:#CCCCDE;"></path>
			</g>
			<g>
				<path d="M34.078,151.254" style="fill:#D57E58;"></path>
			</g>
			<path d="M55.313,177.117c0,0-20.02,25.848-4.633,52.982h9.764
				C60.444,230.1,40.129,201.707,55.313,177.117z" style="opacity:0.11;fill:#6E6E96;enable-background:new    ;"></path>
		</g>
	</g>
	<g style="display:none;" id="Layer_3_3_">
		<g style="display:inline;">
			<g>
				<path d="M84.635,140.439c0-11.564-10.059-20.938-22.467-20.938c-0.194,0-0.385,0.009-0.576,0.015
					c-3.917-6.135-11.102-10.245-19.318-10.245c-12.408,0-22.469,9.372-22.469,20.935c0,0.15,0.009,0.297,0.012,0.447
					c-6.784,3.602-11.364,10.397-11.364,18.197c0,11.562,10.059,20.934,22.468,20.934c0.705,0,1.403-0.033,2.092-0.094
					c4.122,4.649,10.358,7.617,17.335,7.617c11.471,0,20.925-8.011,22.293-18.351C79.772,155.451,84.635,148.477,84.635,140.439z" style="fill:#D7F7E4;"></path>
				<path d="M50.347,178.807c-6.894,0-13.392-2.749-17.95-7.568c-0.499,0.03-0.993,0.045-1.477,0.045
					c-13.216,0-23.968-10.063-23.968-22.434c0-7.768,4.329-14.997,11.357-19.076c0.247-12.171,10.902-22.003,23.964-22.003
					c8.091,0,15.716,3.9,20.112,10.231c13.116,0.11,23.75,10.133,23.75,22.437c0,8.109-4.626,15.514-12.127,19.503
					C72.16,170.752,62.136,178.807,50.347,178.807z M33.633,168.13l0.501,0.565c4.007,4.52,9.917,7.112,16.212,7.112
					c10.575,0,19.52-7.329,20.806-17.047l0.105-0.796l0.72-0.354c6.882-3.384,11.157-9.963,11.157-17.172
					c0-10.718-9.406-19.438-20.967-19.438c-0.128,0-0.255,0.005-0.382,0.009l-1,0.031l-0.458-0.718
					c-3.762-5.892-10.68-9.552-18.054-9.552c-11.562,0-20.969,8.718-20.969,19.435l0.029,1.34l-0.814,0.433
					c-6.518,3.46-10.567,9.925-10.567,16.872c0,10.716,9.406,19.434,20.968,19.434c0.637,0,1.296-0.029,1.96-0.088L33.633,168.13z" style="fill:#CCCCDE;"></path>
			</g>
			<path d="M61.789,118.75c-0.193,0-0.385,0.009-0.575,0.015
				c-3.141-4.919-8.383-8.534-14.573-9.775c4.898,1.229,9.023,4.208,11.559,8.175c0.165-0.004,2.416,3.886,2.583,3.886
				c10.647,0,15.601,5.738,15.601,15.659c0,6.896-2.583,11.291-8.704,14.301c-1.173,8.875-9.287,15.748-19.129,15.748
				c-5.99,0-11.34-2.543-14.877-6.532c-0.591,0.051-1.189,0.077-1.794,0.077c-10.649,0-19.013-5.047-19.013-14.967
				c0-6.682,2.989-9.973,8.432-13.938c-0.146-0.857-0.75-8.421,1.267-10.438c4.792-4.793,6.963-8.909,11.25-11.038
				c-8.414,3.025-14.385,10.627-14.385,19.534c0,0.148,0.009,0.299,0.012,0.447c-6.787,3.604-11.365,10.396-11.365,18.197
				c0,11.562,10.059,20.936,22.468,20.936c0.707,0,1.402-0.035,2.093-0.096c4.121,4.647,10.356,7.617,17.336,7.617
				c11.469,0,20.924-8.013,22.291-18.354c7.133-3.506,11.997-10.479,11.997-18.52C84.258,128.123,74.199,118.75,61.789,118.75z" style="opacity:0.1;fill:#6E6E96;enable-background:new    ;"></path>
			<g>
				<path d="M29.811,151.761c0,0,11.635,2.277,11.635,13.662c0,0,3.133,19.343-8.976,33.027h27.96
					c-0.277-0.387-24.422-32.643,2.449-51.816C46.491,156.004,29.811,151.761,29.811,151.761z" style="fill:#EDE3DA;"></path>
				<path d="M60.43,199.951H29.14l2.207-2.494c11.504-13.002,8.648-31.607,8.619-31.793l-0.02-0.24
					c0-9.079-8.399-11.683-10.144-12.124c-0.238-0.053-0.361-0.084-0.361-0.084l0.658-2.926c0,0,0.139,0.026,0.39,0.089
					c0.935,0.203,4.231,0.841,8.802,0.841c5.724,0,14.333-1.021,22.844-5.887l1.616,2.522c-6.631,4.732-10.568,10.711-11.702,17.772
					c-2.414,15.028,8.337,30.226,9.571,31.908l1.75,2.387L60.43,199.951z M35.605,196.951H57.6
					c-3.447-5.393-10.64-18.565-8.514-31.799c0.804-5.003,2.848-9.504,6.102-13.459c-6.069,2.011-11.711,2.526-15.897,2.526
					c-0.464,0-0.915-0.006-1.352-0.018c2.654,2.276,4.973,5.786,5.007,11.104C43.206,167.042,45.376,183.638,35.605,196.951z" style="fill:#CCCCDE;"></path>
			</g>
			<g>
				<path d="M37.178,128.922" style="fill:#D57E58;"></path>
			</g>
			<path d="M55.905,151.73c0,0-17.653,22.793-4.085,46.721h8.611
				C60.43,198.451,42.515,173.414,55.905,151.73z" style="opacity:0.11;fill:#6E6E96;enable-background:new    ;"></path>
		</g>
		<g style="display:inline;">
			<g>
				<path d="M254.475,139.156c0-10.828-9.42-19.604-21.04-19.604c-0.183,0-0.359,0.009-0.539,0.014
					c-3.669-5.744-10.396-9.596-18.091-9.596c-11.62,0-21.041,8.777-21.041,19.604c0,0.141,0.009,0.279,0.012,0.418
					c-6.354,3.375-10.644,9.74-10.644,17.043c0,10.826,9.421,19.605,21.04,19.605c0.66,0,1.312-0.033,1.96-0.091
					c3.858,4.355,9.698,7.136,16.233,7.136c10.738,0,19.596-7.5,20.875-17.187C249.92,153.213,254.475,146.684,254.475,139.156z" style="fill:#D7F7E4;"></path>
				<path d="M222.365,175.185c-6.468,0-12.563-2.573-16.847-7.086c-0.46,0.027-0.904,0.041-1.347,0.041
					c-12.429,0-22.54-9.468-22.54-21.105c0-7.289,4.053-14.077,10.637-17.92c0.262-11.426,10.271-20.646,22.536-20.646
					c7.589,0,14.744,3.651,18.884,9.583c12.312,0.128,22.286,9.545,22.286,21.103c0,7.613-4.335,14.567-11.367,18.327
					C242.852,167.63,233.437,175.185,222.365,175.185z M206.753,164.988l0.502,0.566c3.732,4.214,9.24,6.631,15.11,6.631
					c9.857,0,18.192-6.828,19.388-15.883l0.105-0.796l0.72-0.354c6.413-3.155,10.396-9.285,10.396-15.997
					c0-9.982-8.766-18.104-19.54-18.104c-0.109,0-0.216,0.004-0.322,0.007l-1.024,0.029l-0.456-0.715
					c-3.508-5.492-9.956-8.903-16.827-8.903c-10.775,0-19.541,8.122-19.541,18.104l0.031,1.31l-0.815,0.433
					c-6.074,3.227-9.848,9.25-9.848,15.719c0,9.983,8.766,18.105,19.54,18.105c0.587,0,1.185-0.027,1.827-0.085L206.753,164.988z" style="fill:#CCCCDE;"></path>
			</g>
			<path d="M233.081,118.845c-0.184,0-0.358,0.009-0.539,0.013
				c-2.94-4.606-7.853-7.992-13.646-9.154c4.586,1.15,8.449,3.94,10.822,7.655c0.154-0.004,2.263,3.639,2.419,3.639
				c9.971,0,14.608,5.374,14.608,14.664c0,6.459-2.42,10.574-8.148,13.396c-1.1,8.311-8.698,14.741-17.914,14.741
				c-5.606,0-10.619-2.381-13.934-6.116c-0.557,0.047-1.112,0.071-1.682,0.071c-9.975,0-17.806-4.727-17.806-14.016
				c0-6.256,2.8-9.338,7.896-13.055c-0.139-0.806-0.701-7.886,1.188-9.771c4.486-4.488,6.521-8.343,10.535-10.337
				c-7.879,2.833-13.471,9.952-13.471,18.292c0,0.139,0.006,0.275,0.012,0.418c-6.355,3.373-10.646,9.736-10.646,17.041
				c0,10.824,9.42,19.604,21.041,19.604c0.661,0,1.313-0.031,1.959-0.089c3.859,4.355,9.699,7.134,16.234,7.134
				c10.74,0,19.594-7.5,20.875-17.187c6.68-3.285,11.232-9.813,11.232-17.342C254.122,127.623,244.702,118.845,233.081,118.845z" style="opacity:0.1;fill:#6E6E96;enable-background:new    ;"></path>
			<g>
				<path d="M203.135,149.758c0,0,10.896,2.134,10.896,12.797c0,0,2.934,18.109-8.406,30.929h26.184
					c-0.26-0.359-22.87-30.566,2.294-48.521C218.754,153.732,203.135,149.758,203.135,149.758z" style="fill:#EDE3DA;"></path>
				<path d="M231.809,194.983h-29.513l2.206-2.494c10.718-12.116,8.076-29.521,8.049-29.696l-0.02-0.238
					c0-8.431-7.802-10.853-9.427-11.264c-0.224-0.05-0.34-0.079-0.34-0.079l0.658-2.926c0,0,0.132,0.024,0.368,0.084
					c0.876,0.19,3.956,0.786,8.228,0.786c5.347,0,13.39-0.954,21.34-5.497l1.615,2.523c-6.193,4.419-9.868,10.003-10.923,16.596
					c-2.249,14.062,7.798,28.227,8.951,29.796l1.755,2.388L231.809,194.983z M208.748,191.983h20.233
					c-3.271-5.143-9.863-17.358-7.893-29.679c0.736-4.604,2.59-8.757,5.534-12.417c-5.577,1.803-10.748,2.269-14.604,2.269
					c-0.344,0-0.681-0.004-1.011-0.01c2.418,2.148,4.49,5.411,4.523,10.29C215.78,164.099,217.781,179.527,208.748,191.983z" style="fill:#CCCCDE;"></path>
			</g>
			<g>
				<path d="M210.036,128.373" style="fill:#D57E58;"></path>
			</g>
			<path d="M227.571,149.73c0,0-16.53,21.344-3.823,43.752h8.062
				C231.808,193.482,215.032,170.035,227.571,149.73z" style="opacity:0.11;fill:#6E6E96;enable-background:new    ;"></path>
		</g>
		<g style="display:inline;">
			<g>
				<path d="M217.773,140.916c0-16.621-14.461-30.094-32.299-30.094c-0.278,0-0.554,0.012-0.828,0.019
					c-5.632-8.816-15.959-14.729-27.771-14.729c-17.838,0-32.301,13.475-32.301,30.096c0,0.215,0.014,0.428,0.018,0.646
					c-9.755,5.18-16.339,14.945-16.339,26.156c0,16.621,14.462,30.099,32.3,30.099c1.014,0,2.018-0.051,3.008-0.14
					c5.926,6.689,14.89,10.951,24.921,10.951c16.489,0,30.081-11.514,32.049-26.379
					C210.782,162.498,217.773,152.469,217.773,140.916z" style="fill:#D7F7E4;"></path>
				<path d="M168.482,195.421c-9.84,0-19.103-3.962-25.537-10.897c-0.817,0.057-1.619,0.086-2.392,0.086
					c-18.637,0-33.8-14.175-33.8-31.599c0-11.045,6.229-21.323,16.322-27.035c0.134-17.315,15.245-31.363,33.8-31.363
					c11.535,0,22.398,5.615,28.566,14.71c18.652-0.032,33.831,14.163,33.831,31.594c0,11.516-6.635,22.026-17.37,27.613
					C199.444,183.915,185.226,195.421,168.482,195.421z M144.181,181.408l0.503,0.566c5.88,6.639,14.555,10.446,23.798,10.446
					c15.53,0,28.67-10.78,30.562-25.076l0.105-0.795l0.72-0.354c10.118-4.979,16.404-14.665,16.404-25.28
					c0-15.767-13.816-28.594-30.799-28.594c-0.182,0-0.362,0.006-0.543,0.011l-1.094,0.028l-0.455-0.713
					c-5.531-8.658-15.688-14.036-26.507-14.036c-16.983,0-30.801,12.828-30.801,28.596c0,0.105,0.004,0.211,0.008,0.317l0.025,1.223
					l-0.812,0.432c-9.587,5.09-15.542,14.604-15.542,24.831c0,15.77,13.817,28.599,30.8,28.599c0.919,0,1.886-0.045,2.874-0.134
					L144.181,181.408z" style="fill:#CCCCDE;"></path>
			</g>
			<path d="M184.931,109.738c-0.276,0-0.552,0.012-0.827,0.019
				c-4.516-7.07-12.051-12.269-20.949-14.052c7.041,1.766,12.972,6.049,16.614,11.751c0.237-0.006,3.475,5.586,3.713,5.586
				c15.309,0,22.43,8.248,22.43,22.511c0,9.914-3.716,16.232-12.514,20.563c-1.687,12.754-13.353,22.635-27.5,22.635
				c-8.609,0-16.302-3.656-21.387-9.395c-0.851,0.069-1.71,0.112-2.58,0.112c-15.31,0-27.332-7.254-27.332-21.516
				c0-9.604,4.298-14.336,12.12-20.039c-0.209-1.234-1.077-12.104,1.82-15.002c6.89-6.89,10.011-12.808,16.174-15.868
				c-12.096,4.35-20.679,15.277-20.679,28.08c0,0.215,0.011,0.428,0.017,0.646c-9.756,5.177-16.34,14.946-16.34,26.155
				c0,16.621,14.461,30.099,32.3,30.099c1.017,0,2.017-0.049,3.008-0.135c5.925,6.688,14.891,10.946,24.922,10.946
				c16.487,0,30.078-11.514,32.046-26.379c10.255-5.043,17.244-15.067,17.244-26.623
				C217.231,123.211,202.77,109.738,184.931,109.738z" style="opacity:0.1;fill:#6E6E96;enable-background:new    ;"></path>
			<g>
				<path d="M138.959,157.193c0,0,16.727,3.271,16.727,19.643c0,0,4.504,27.806-12.903,47.479h40.194
					c-0.397-0.556-35.106-46.922,3.521-74.484C162.939,163.293,138.959,157.193,138.959,157.193z" style="fill:#EDE3DA;"></path>
				<path d="M182.977,225.815h-43.524l2.207-2.494c16.742-18.923,12.59-45.975,12.546-46.245l-0.02-0.24
					c0-13.558-12.515-17.421-15.085-18.07c-0.336-0.073-0.512-0.118-0.512-0.118l0.658-2.926c0,0,0.192,0.037,0.54,0.123
					c1.349,0.295,6.155,1.228,12.809,1.228c8.306,0,20.801-1.482,33.158-8.544l1.615,2.523c-9.679,6.906-15.428,15.644-17.088,25.97
					c-3.515,21.854,12.084,43.921,13.874,46.365l1.748,2.386L182.977,225.815z M145.972,222.815h34.146
					c-4.572-6.929-15.964-26.582-12.798-46.27c1.265-7.865,4.703-14.86,10.255-20.893c-9.523,3.548-18.48,4.419-24.979,4.419
					c-1.403,0-2.725-0.039-3.954-0.104c4.313,3.1,8.505,8.287,8.544,16.75C157.523,178.925,160.875,203.587,145.972,222.815z" style="fill:#CCCCDE;"></path>
			</g>
			<g>
				<path d="M149.552,124.362" style="fill:#D57E58;"></path>
			</g>
			<path d="M176.472,157.148c0,0-25.378,32.766-5.873,67.164h12.378
				C182.977,224.313,157.223,188.32,176.472,157.148z" style="opacity:0.11;fill:#6E6E96;enable-background:new    ;"></path>
		</g>
		<g style="display:inline;">
			<g>
				<path d="M145.936,142.027c0-13.646-11.873-24.707-26.517-24.707c-0.229,0-0.454,0.01-0.68,0.016
					c-4.624-7.238-13.103-12.092-22.801-12.092c-14.644,0-26.518,11.063-26.518,24.706c0,0.178,0.012,0.354,0.015,0.529
					c-8.01,4.252-13.414,12.271-13.414,21.477c0,13.646,11.872,24.707,26.519,24.707c0.832,0,1.654-0.041,2.469-0.106
					c4.864,5.485,12.224,8.985,20.46,8.985c13.537,0,24.695-9.451,26.309-21.654C140.196,159.746,145.936,151.514,145.936,142.027z" style="fill:#D7F7E4;"></path>
				<path d="M105.469,187.042c-8.109,0-15.747-3.248-21.079-8.938c-0.649,0.039-1.259,0.059-1.85,0.059
					c-15.45,0-28.019-11.757-28.019-26.207c0-9.118,5.111-17.604,13.402-22.355c0.2-14.29,12.69-25.856,28.015-25.856
					c9.509,0,18.468,4.606,23.596,12.076c15.395,0.059,27.901,11.793,27.901,26.207c0,9.512-5.454,18.197-14.288,22.846
					C131.051,177.567,119.3,187.042,105.469,187.042z M85.635,175.002l0.496,0.56c4.779,5.39,11.828,8.48,19.338,8.48
					c12.617,0,23.288-8.749,24.821-20.351l0.105-0.796l0.72-0.354c8.216-4.043,13.32-11.903,13.32-20.515
					c0-12.797-11.223-23.207-25.017-23.207c-0.149,0-0.295,0.005-0.441,0.009l-1.046,0.028l-0.456-0.714
					c-4.492-7.031-12.744-11.399-21.537-11.399c-13.795,0-25.018,10.41-25.018,23.206l0.03,1.423l-0.812,0.432
					c-7.783,4.131-12.617,11.853-12.617,20.151c0,12.797,11.223,23.207,25.019,23.207c0.729,0,1.497-0.033,2.349-0.102
					L85.635,175.002z" style="fill:#CCCCDE;"></path>
			</g>
			<path d="M118.973,116.432c-0.228,0-0.452,0.009-0.679,0.015
				c-3.707-5.805-9.895-10.072-17.199-11.537c5.78,1.45,10.648,4.966,13.641,9.647c0.194-0.006,2.852,4.586,3.049,4.586
				c12.566,0,18.414,6.771,18.414,18.479c0,8.139-3.051,13.326-10.271,16.881c-1.384,10.474-10.961,18.584-22.576,18.584
				c-7.068,0-13.384-3.004-17.559-7.715c-0.698,0.062-1.404,0.096-2.118,0.096c-12.568,0-22.438-5.957-22.438-17.664
				c0-7.885,3.528-11.77,9.949-16.45c-0.171-1.017-0.884-9.938,1.496-12.316c5.655-5.657,8.218-10.515,13.277-13.028
				c-9.931,3.571-16.979,12.542-16.979,23.055c0,0.176,0.011,0.352,0.016,0.526c-8.012,4.25-13.415,12.271-13.415,21.478
				c0,13.645,11.873,24.707,26.518,24.707c0.834,0,1.655-0.041,2.469-0.109c4.864,5.488,12.225,8.988,20.461,8.988
				c13.536,0,24.693-9.451,26.311-21.656c8.418-4.141,14.158-12.371,14.158-21.854C145.491,127.494,133.618,116.432,118.973,116.432
				z" style="opacity:0.1;fill:#6E6E96;enable-background:new    ;"></path>
			<g>
				<path d="M81.232,155.391c0,0,13.731,2.688,13.731,16.129c0,0,3.697,22.821-10.595,38.977h33
					c-0.328-0.455-28.824-38.52,2.89-61.152C100.918,160.398,81.232,155.391,81.232,155.391z" style="fill:#EDE3DA;"></path>
				<path d="M117.368,211.997h-36.33l2.206-2.494c13.636-15.413,10.273-37.522,10.237-37.743l-0.019-0.239
					c0-10.928-10.095-14.05-12.18-14.577c-0.277-0.062-0.421-0.098-0.421-0.098l0.658-2.926c0,0,0.161,0.03,0.45,0.103
					c1.105,0.241,5.024,1,10.454,1c6.787,0,16.996-1.211,27.09-6.98l1.616,2.523c-7.892,5.633-12.577,12.755-13.924,21.168
					c-2.86,17.867,9.888,35.854,11.351,37.847l1.753,2.388L117.368,211.997z M87.53,208.997h26.991
					c-3.932-6.046-12.823-21.843-10.278-37.737c0.989-6.178,3.596-11.705,7.777-16.519c-7.479,2.623-14.467,3.281-19.597,3.281
					c-0.832,0-1.628-0.017-2.388-0.045c3.334,2.627,6.391,6.832,6.427,13.425C96.756,173.339,99.41,193.244,87.53,208.997z" style="fill:#CCCCDE;"></path>
			</g>
			<g>
				<path d="M89.928,128.438" style="fill:#D57E58;"></path>
			</g>
			<path d="M112.028,155.355c0,0-20.835,26.897-4.82,55.141h10.162
				C117.369,210.496,96.225,180.945,112.028,155.355z" style="opacity:0.11;fill:#6E6E96;enable-background:new    ;"></path>
		</g>
		<g style="display:inline;">
			<g>
				<path d="M253.159,166.164c0-12.344-10.74-22.35-23.988-22.35c-0.203,0-0.407,0.008-0.611,0.014
					c-4.186-6.549-11.854-10.938-20.625-10.938c-13.248,0-23.985,10.008-23.985,22.35c0,0.162,0.012,0.318,0.014,0.479
					c-7.244,3.851-12.135,11.105-12.135,19.433c0,12.346,10.736,22.352,23.985,22.352c0.753,0,1.497-0.039,2.23-0.102
					c4.399,4.967,11.061,8.133,18.511,8.133c12.245,0,22.339-8.551,23.799-19.592C247.965,182.191,253.159,174.746,253.159,166.164z" style="fill:#D7F7E4;"></path>
				<path d="M216.555,207.034c-7.354,0-14.281-2.937-19.127-8.083c-0.562,0.034-1.096,0.052-1.614,0.052
					c-14.053,0-25.485-10.7-25.485-23.852c0-8.271,4.622-15.974,12.125-20.311c0.229-12.967,11.571-23.45,25.481-23.45
					c8.621,0,16.747,4.165,21.42,10.925c13.971,0.092,25.305,10.755,25.305,23.849c0,8.632-4.937,16.519-12.937,20.763
					C239.782,198.445,229.111,207.034,216.555,207.034z M198.667,195.843l0.5,0.564c4.293,4.847,10.631,7.627,17.388,7.627
					c11.341,0,20.934-7.862,22.312-18.288l0.105-0.795l0.719-0.354c7.383-3.638,11.969-10.701,11.969-18.433
					c0-11.496-10.088-20.85-22.488-20.85c-0.147,0-0.295,0.005-0.442,0.01l-0.976,0.027l-0.457-0.716
					c-4.039-6.319-11.458-10.245-19.361-10.245c-12.398,0-22.485,9.354-22.485,20.85l0.024,1.374l-0.807,0.429
					c-6.994,3.718-11.339,10.656-11.339,18.108c0,11.498,10.087,20.852,22.485,20.852c0.656,0,1.344-0.031,2.104-0.096
					L198.667,195.843z" style="fill:#CCCCDE;"></path>
			</g>
			<path d="M228.767,143.008c-0.206,0-0.409,0.013-0.614,0.017
				c-3.354-5.25-8.948-9.111-15.558-10.438c5.229,1.313,9.633,4.492,12.339,8.729c0.175-0.004,2.579,4.147,2.757,4.147
				c11.368,0,16.655,6.123,16.655,16.72c0,7.36-2.757,12.055-9.291,15.27c-1.252,9.473-9.915,16.814-20.423,16.814
				c-6.396,0-12.106-2.722-15.884-6.98c-0.631,0.055-1.271,0.086-1.916,0.086c-11.368,0-20.299-5.389-20.299-15.979
				c0-7.136,3.189-10.646,9.002-14.886c-0.156-0.918-0.804-8.985,1.353-11.141c5.116-5.117,7.436-9.512,12.011-11.785
				c-8.979,3.23-15.356,11.346-15.356,20.855c0,0.157,0.012,0.315,0.016,0.479c-7.246,3.846-12.137,11.104-12.137,19.428
				c0,12.345,10.738,22.351,23.988,22.351c0.754,0,1.496-0.035,2.23-0.101c4.401,4.968,11.061,8.134,18.509,8.134
				c12.245,0,22.338-8.554,23.8-19.593c7.614-3.743,12.811-11.19,12.811-19.771C252.754,153.016,242.016,143.008,228.767,143.008z" style="opacity:0.1;fill:#6E6E96;enable-background:new    ;"></path>
			<g>
				<path d="M194.625,178.252c0,0,12.422,2.433,12.422,14.588c0,0,3.345,20.646-9.584,35.261h29.853
					c-0.296-0.41-26.072-34.849,2.615-55.318C212.435,182.783,194.625,178.252,194.625,178.252z" style="fill:#EDE3DA;"></path>
				<path d="M227.316,229.6h-33.183l2.207-2.494c12.288-13.891,9.258-33.828,9.227-34.028l-0.02-0.238
					c0-9.771-9.035-12.571-10.908-13.045c-0.252-0.056-0.384-0.089-0.384-0.089l0.658-2.926c0,0,0.147,0.028,0.412,0.094
					c0.999,0.218,4.531,0.902,9.427,0.902c6.122,0,15.331-1.093,24.435-6.297l1.615,2.523c-7.106,5.071-11.324,11.481-12.537,19.053
					c-2.579,16.109,8.921,32.334,10.241,34.132l1.754,2.388L227.316,229.6z M200.609,226.6h23.868
					c-3.633-5.64-11.454-19.779-9.174-34.019c0.872-5.444,3.125-10.332,6.725-14.61c-6.595,2.235-12.737,2.805-17.275,2.805
					c-0.6,0-1.179-0.01-1.738-0.027c2.909,2.411,5.498,6.182,5.533,11.973C208.82,194.534,211.169,212.37,200.609,226.6z" style="fill:#CCCCDE;"></path>
			</g>
			<g>
				<path d="M202.493,153.871" style="fill:#D57E58;"></path>
			</g>
			<path d="M222.485,178.219c0,0-18.847,24.334-4.36,49.882h9.191
				C227.316,228.1,208.189,201.369,222.485,178.219z" style="opacity:0.11;fill:#6E6E96;enable-background:new    ;"></path>
		</g>
		<g style="display:inline;">
			<g>
				<path d="M88.893,164.313c0-13.111-11.408-23.738-25.479-23.738c-0.221,0-0.437,0.008-0.653,0.014
					c-4.443-6.955-12.589-11.614-21.907-11.614c-14.07,0-25.479,10.629-25.479,23.737c0,0.17,0.011,0.336,0.015,0.506
					C7.694,157.302,2.5,165.011,2.5,173.857c0,13.106,11.407,23.735,25.479,23.735c0.8,0,1.59-0.041,2.372-0.104
					c4.674,5.271,11.745,8.639,19.659,8.639c13.007,0,23.729-9.082,25.279-20.809C83.378,181.336,88.893,173.427,88.893,164.313z" style="fill:#D7F7E4;"></path>
				<path d="M50.01,207.628c-7.795,0-15.142-3.122-20.278-8.592c-0.622,0.038-1.201,0.057-1.753,0.057
					C13.103,199.093,1,187.772,1,173.857c0-8.773,4.911-16.938,12.877-21.518c0.213-13.746,12.232-24.865,26.977-24.865
					c9.146,0,17.764,4.425,22.703,11.601c14.811,0.072,26.836,11.366,26.836,25.238c0,9.149-5.242,17.507-13.734,21.991
					C74.628,198.516,63.319,207.628,50.01,207.628z M30.977,195.934l0.496,0.56c4.584,5.169,11.341,8.134,18.537,8.134
					c12.094,0,22.323-8.386,23.792-19.505l0.105-0.795l0.719-0.354c7.875-3.878,12.766-11.411,12.766-19.66
					c0-12.263-10.757-22.238-23.979-22.238c-0.162,0-0.321,0.005-0.48,0.01l-0.98,0.026l-0.457-0.715
					c-4.304-6.737-12.214-10.922-20.643-10.922c-13.222,0-23.979,9.976-23.979,22.237l0.036,1.396l-0.818,0.435
					C8.634,158.502,4,165.903,4,173.857c0,12.261,10.757,22.235,23.979,22.235c0.684,0,1.421-0.032,2.252-0.099L30.977,195.934z" style="fill:#CCCCDE;"></path>
			</g>
			<path d="M62.986,139.719c-0.219,0-0.435,0.011-0.651,0.017
				c-3.562-5.578-9.506-9.678-16.525-11.086c5.553,1.393,10.231,4.771,13.106,9.27c0.186-0.004,2.738,4.406,2.928,4.406
				c12.076,0,17.692,6.506,17.692,17.758c0,7.82-2.93,12.805-9.87,16.221c-1.33,10.064-10.531,17.855-21.693,17.855
				c-6.792,0-12.859-2.885-16.871-7.412c-0.67,0.057-1.348,0.092-2.035,0.092c-12.075,0-21.561-5.723-21.561-16.975
				c0-7.574,3.391-11.307,9.561-15.807c-0.165-0.976-0.85-9.55,1.438-11.837c5.435-5.434,7.896-10.102,12.758-12.516
				c-9.541,3.43-16.312,12.051-16.312,22.148c0,0.17,0.01,0.338,0.014,0.508c-7.696,4.084-12.889,11.791-12.889,20.637
				c0,13.107,11.406,23.736,25.479,23.736c0.801,0,1.591-0.039,2.373-0.104c4.674,5.273,11.745,8.64,19.659,8.64
				c13.006,0,23.728-9.082,25.277-20.81c8.09-3.979,13.604-11.891,13.604-21.002C88.466,150.345,77.058,139.719,62.986,139.719z" style="opacity:0.1;fill:#6E6E96;enable-background:new    ;"></path>
			<g>
				<path d="M26.723,177.152c0,0,13.193,2.584,13.193,15.496c0,0,3.553,21.932-10.18,37.451h31.707
					c-0.313-0.438-27.693-37.017,2.777-58.761C45.638,181.963,26.723,177.152,26.723,177.152z" style="fill:#EDE3DA;"></path>
				<path d="M61.444,231.599H26.406l2.207-2.494c13.11-14.815,9.857-36.005,9.823-36.217l-0.02-0.24
					c0-10.453-9.661-13.442-11.659-13.948c-0.266-0.059-0.405-0.094-0.405-0.094l0.659-2.926c0,0,0.154,0.029,0.433,0.099
					c1.061,0.231,4.819,0.96,10.029,0.96c6.515,0,16.314-1.163,26.003-6.702l1.616,2.522c-7.562,5.397-12.054,12.22-13.351,20.279
					c-2.752,17.112,9.483,34.423,10.888,36.341l1.748,2.386L61.444,231.599z M32.892,228.599h25.711
					c-3.808-5.89-12.268-21.042-9.824-36.237c0.943-5.865,3.402-11.122,7.337-15.709c-7.116,2.464-13.757,3.086-18.644,3.086
					c-0.734,0-1.439-0.014-2.115-0.038c3.159,2.539,6.022,6.566,6.058,12.829C41.701,194.417,44.23,213.474,32.892,228.599z" style="fill:#CCCCDE;"></path>
			</g>
			<g>
				<path d="M35.078,151.254" style="fill:#D57E58;"></path>
			</g>
			<path d="M56.313,177.117c0,0-20.02,25.848-4.633,52.982h9.764
				C61.444,230.1,41.129,201.707,56.313,177.117z" style="opacity:0.11;fill:#6E6E96;enable-background:new    ;"></path>
		</g>
	</g>
</g>
<g id="Layer_3_2_">
	<g>
		<g>
			<g>
				<path d="M137.225,117.932c0,2.375-1.942,4.317-4.317,4.317H30.122c-2.375,0-4.319-1.942-4.319-4.317
					V45.378c0-2.375,1.944-4.318,4.319-4.318h102.785c2.375,0,4.317,1.942,4.317,4.318V117.932L137.225,117.932z" style="fill:#DAE7F5;"></path>
				<path d="M132.907,123.75H30.122c-3.209,0-5.819-2.61-5.819-5.817V45.378c0-3.208,2.61-5.818,5.819-5.818
					h102.785c3.208,0,5.817,2.61,5.817,5.818v72.555C138.725,121.14,136.115,123.75,132.907,123.75z M30.122,42.559
					c-1.555,0-2.819,1.264-2.819,2.818v72.555c0,1.554,1.265,2.817,2.819,2.817h102.785c1.554,0,2.817-1.264,2.817-2.817V45.378
					c0-1.554-1.264-2.818-2.817-2.818H30.122z" style="fill:#CCCCDE;"></path>
			</g>
			<g>
				<path d="M137.225,117.932c0,2.375-1.942,4.317-4.317,4.317H30.122c-2.375,0-4.319-1.942-4.319-4.317
					V45.378c0-2.375,1.944-4.318,4.319-4.318h102.785c2.375,0,4.317,1.942,4.317,4.318V117.932L137.225,117.932z" style="fill:#FFFFFF;"></path>
				<path d="M132.907,122.75H30.122c-2.657,0-4.819-2.161-4.819-4.817V45.378
					c0-2.657,2.162-4.818,4.819-4.818h102.785c2.656,0,4.817,2.162,4.817,4.818v72.555
					C137.725,120.589,135.564,122.75,132.907,122.75z M30.122,41.559c-2.106,0-3.819,1.713-3.819,3.818v72.555
					c0,2.105,1.713,3.817,3.819,3.817h102.785c2.104,0,3.817-1.712,3.817-3.817V45.378c0-2.105-1.713-3.818-3.817-3.818H30.122z" style="fill:#CCCCDE;"></path>
			</g>
		</g>
		<g>
			<rect height="65.212" width="92.852" style="fill:#DAE7F5;" y="49.048" x="34.873"></rect>
			<path d="M127.725,115.76H34.873c-0.829,0-1.5-0.671-1.5-1.5V49.048c0-0.829,0.671-1.5,1.5-1.5h92.852
				c0.828,0,1.5,0.671,1.5,1.5v65.212C129.225,115.088,128.553,115.76,127.725,115.76z M36.373,112.76h89.852V50.548H36.373V112.76z" style="fill:#CCCCDE;"></path>
		</g>
	</g>
	<g>
		<g>
			<path d="M128.585,214.335c0,2.75-2.25,5-5,5H23.24c-2.751,0-5.001-2.25-5.001-5V150.77
				c0-2.75,2.25-5,5.001-5h100.347c2.75,0,5,2.25,5,5L128.585,214.335L128.585,214.335z" style="fill:#FFFFFF;"></path>
			<path d="M123.585,220.835H23.24c-3.584,0-6.501-2.916-6.501-6.5V150.77c0-3.584,2.917-6.5,6.501-6.5
				h100.347c3.584,0,6.5,2.916,6.5,6.5v63.564C130.085,217.919,127.169,220.835,123.585,220.835z M23.24,147.27
				c-1.931,0-3.501,1.57-3.501,3.5v63.564c0,1.93,1.57,3.5,3.501,3.5h100.346c1.93,0,3.5-1.57,3.5-3.5l0.001-63.564
				c0-1.93-1.57-3.5-3.5-3.5H23.24z" style="fill:#CCCCDE;"></path>
		</g>
		<g>
			<rect height="53.86" width="89.328" style="fill:#D3E3F5;" y="154.746" x="28.748"></rect>
			<path d="M118.076,210.106H28.748c-0.829,0-1.5-0.672-1.5-1.5v-53.86c0-0.828,0.671-1.5,1.5-1.5h89.328
				c0.829,0,1.5,0.672,1.5,1.5v53.86C119.576,209.434,118.905,210.106,118.076,210.106z M30.248,207.106h86.328v-50.86H30.248
				V207.106z" style="fill:#CCCCDE;"></path>
		</g>
		<g>
			<path d="M135.154,219.335c0,0,0,2.759,0,6.13c0,3.372-2.955,6.13-6.567,6.13H19.552
				c-3.612,0-6.568-2.758-6.568-6.13c0-3.371,0-6.13,0-6.13" style="fill:#FFFFFF;"></path>
			<path d="M128.585,233.094H19.552c-4.449,0-8.068-3.423-8.068-7.63v-6.13c0-0.828,0.671-1.5,1.5-1.5
				h122.169c0.828,0,1.5,0.672,1.5,1.5v6.13C136.653,229.672,133.033,233.094,128.585,233.094z M14.484,220.835v4.63
				c0,2.553,2.273,4.63,5.068,4.63h109.033c2.794,0,5.067-2.077,5.067-4.63v-4.63H14.484z" style="fill:#CCCCDE;"></path>
		</g>
	</g>
	<g>
		<g>
			<polyline points="202.261,233.409 196.19,204.866 170.389,204.866 164.724,233.815" style="fill:#F0F0FF;"></polyline>
			<path d="M164.726,235.315c-0.096,0-0.192-0.009-0.29-0.028c-0.813-0.159-1.343-0.946-1.184-1.76
				l5.665-28.949c0.138-0.704,0.754-1.212,1.472-1.212h25.801c0.708,0,1.32,0.495,1.467,1.188l6.071,28.543
				c0.173,0.811-0.345,1.607-1.154,1.779c-0.812,0.171-1.607-0.344-1.779-1.154l-5.819-27.355h-23.351l-5.429,27.737
				C166.056,234.819,165.428,235.315,164.726,235.315z" style="fill:#CCCCDE;"></path>
		</g>
		<path d="M209.325,235.315h-51.663c-0.828,0-1.5-0.672-1.5-1.5s0.672-1.5,1.5-1.5h51.663
			c0.828,0,1.5,0.672,1.5,1.5S210.154,235.315,209.325,235.315z" style="fill:#CCCCDE;"></path>
		<g>
			<path d="M252.376,200.351c0,2.964-2.423,5.389-5.391,5.389H120c-2.967,0-5.393-2.425-5.393-5.389v-92.247
				c0-2.964,2.426-5.392,5.393-5.392h126.985c2.966,0,5.391,2.427,5.391,5.392V200.351L252.376,200.351z" style="fill:#FFFFFF;"></path>
			<path d="M246.986,206.24H120c-3.249,0-5.893-2.642-5.893-5.889v-92.247c0-3.249,2.644-5.892,5.893-5.892
				h126.985c3.248,0,5.891,2.643,5.891,5.892v92.247C252.876,203.598,250.234,206.24,246.986,206.24z M120,103.213
				c-2.698,0-4.893,2.194-4.893,4.892v92.247c0,2.695,2.195,4.889,4.893,4.889h126.985c2.696,0,4.891-2.193,4.891-4.889v-92.247
				c0-2.697-2.194-4.892-4.891-4.892H120z" style="fill:#CCCCDE;"></path>
		</g>
		<g>
			<rect height="69.266" width="114.109" style="fill:#D3E3F5;" y="115.292" x="126.438"></rect>
			<path d="M240.547,186.057H126.438c-0.829,0-1.5-0.672-1.5-1.5v-69.266c0-0.829,0.671-1.5,1.5-1.5h114.109
				c0.828,0,1.5,0.671,1.5,1.5v69.266C242.047,185.385,241.375,186.057,240.547,186.057z M127.938,183.057h111.109v-66.266H127.938
				V183.057z" style="fill:#CCCCDE;"></path>
		</g>
		<path d="M246.986,207.24H120c-3.801,0-6.893-3.09-6.893-6.889v-92.247c0-3.8,3.092-6.892,6.893-6.892
			h126.985c3.8,0,6.891,3.092,6.891,6.892v92.247C253.876,204.15,250.785,207.24,246.986,207.24z M120,104.213
			c-2.146,0-3.893,1.746-3.893,3.892v92.247c0,2.145,1.746,3.889,3.893,3.889h126.985c2.146,0,3.891-1.744,3.891-3.889v-92.247
			c0-2.146-1.745-3.892-3.891-3.892H120z" style="fill:#CCCCDE;"></path>
	</g>
	<g>
		<g>
			<g>
				<path d="M229.225,126.75c0,2.75-2.25,5-5,5h-48c-2.75,0-5-2.25-5-5v-84c0-2.75,2.25-5,5-5h48
					c2.75,0,5,2.25,5,5V126.75z" style="fill:#DAE7F5;"></path>
				<path d="M224.225,133.25h-48c-3.584,0-6.5-2.916-6.5-6.5v-84c0-3.584,2.916-6.5,6.5-6.5h48
					c3.584,0,6.5,2.916,6.5,6.5v84C230.725,130.334,227.809,133.25,224.225,133.25z M176.225,39.25c-1.93,0-3.5,1.57-3.5,3.5v84
					c0,1.93,1.57,3.5,3.5,3.5h48c1.93,0,3.5-1.57,3.5-3.5v-84c0-1.93-1.57-3.5-3.5-3.5H176.225z" style="fill:#CCCCDE;"></path>
			</g>
			<g>
				<path d="M229.225,126.75c0,2.75-2.25,5-5,5h-48c-2.75,0-5-2.25-5-5v-84c0-2.75,2.25-5,5-5h48
					c2.75,0,5,2.25,5,5V126.75z" style="fill:#DAE7F5;"></path>
				<path d="M224.225,133.25h-48c-3.584,0-6.5-2.916-6.5-6.5v-84c0-3.584,2.916-6.5,6.5-6.5h48
					c3.584,0,6.5,2.916,6.5,6.5v84C230.725,130.334,227.809,133.25,224.225,133.25z M176.225,39.25c-1.93,0-3.5,1.57-3.5,3.5v84
					c0,1.93,1.57,3.5,3.5,3.5h48c1.93,0,3.5-1.57,3.5-3.5v-84c0-1.93-1.57-3.5-3.5-3.5H176.225z" style="fill:#CCCCDE;"></path>
			</g>
		</g>
		<path d="M206.725,45.75h-13c-0.828,0-1.5-0.671-1.5-1.5s0.672-1.5,1.5-1.5h13c0.828,0,1.5,0.671,1.5,1.5
			S207.553,45.75,206.725,45.75z" style="fill:#CCCCDE;"></path>
	</g>
</g>
<g style="display:none;" id="Layer_2">
	<g style="display:inline;">
		<path d="M240.18,115.55c0.725-2.219,2.993-4.943,5.045-6.057l0.009-0.004c2.055-1.113,2.055-2.932,0-4.043
			l-0.009-0.006c-2.052-1.111-4.438-3.617-5.3-5.566c-0.863-1.951-2.275-1.951-3.14,0c-0.862,1.951-3.248,4.455-5.304,5.566
			l-0.01,0.006c-2.055,1.111-2.055,2.93,0,4.043l0.01,0.004c2.056,1.112,4.321,3.838,5.045,6.057l0.515,1.568
			c0.724,2.22,1.899,2.22,2.627,0L240.18,115.55z" style="fill:#FFBF00;"></path>
	</g>
	<g style="display:inline;">
		<path d="M26.998,56c0.677-2.079,2.803-4.632,4.728-5.673l0.008-0.004c1.923-1.042,1.923-2.746,0-3.787
			l-0.008-0.005c-1.922-1.042-4.157-3.388-4.966-5.215c-0.808-1.826-2.131-1.826-2.937,0c-0.809,1.828-3.045,4.173-4.965,5.215
			l-0.01,0.005c-1.92,1.041-1.92,2.745,0,3.787l0.01,0.004c1.92,1.041,4.049,3.595,4.729,5.673l0.478,1.469
			c0.678,2.08,1.784,2.08,2.461,0L26.998,56z" style="fill:#FFB0B8;"></path>
	</g>
	<g style="display:inline;">
		<path d="M13.234,191.22c0.615-1.887,2.546-4.206,4.292-5.15l0.008-0.005c1.745-0.944,1.745-2.493,0-3.438
			l-0.008-0.006c-1.746-0.943-3.774-3.076-4.508-4.735c-0.733-1.657-1.936-1.657-2.67,0c-0.732,1.659-2.763,3.792-4.509,4.735
			l-0.007,0.006c-1.746,0.943-1.746,2.492,0,3.438l0.007,0.005c1.746,0.944,3.677,3.267,4.292,5.15l0.435,1.334
			c0.615,1.891,1.621,1.891,2.235,0L13.234,191.22z" style="fill:#7FDCFF;"></path>
	</g>
	<g style="display:inline;" id="Layer_7_2_">
		<g>
			<path d="M226.623,211.893c0.635-1.947,2.626-4.34,4.428-5.315l0.009-0.003
				c1.802-0.978,1.802-2.574,0-3.546l-0.009-0.008c-1.802-0.976-3.894-3.174-4.65-4.887c-0.758-1.709-2-1.709-2.759,0
				c-0.754,1.713-2.85,3.911-4.65,4.887l-0.008,0.008c-1.803,0.972-1.803,2.567,0,3.546l0.008,0.003
				c1.802,0.978,3.794,3.372,4.428,5.315l0.452,1.375c0.631,1.948,1.673,1.948,2.303,0L226.623,211.893z" style="fill:#DEC2FF;"></path>
		</g>
	</g>
	<g style="display:inline;">
		<path d="M199.967,25.5c0.465-1.429,1.926-3.184,3.248-3.897l0.006-0.003c1.32-0.717,1.32-1.889,0-2.604
			l-0.006-0.003c-1.32-0.717-2.855-2.328-3.412-3.584c-0.555-1.255-1.465-1.255-2.019,0c-0.556,1.256-2.092,2.867-3.411,3.584
			l-0.007,0.003c-1.319,0.715-1.319,1.886,0,2.604l0.007,0.003c1.319,0.715,2.78,2.47,3.248,3.897l0.329,1.009
			c0.466,1.431,1.226,1.431,1.69,0L199.967,25.5z" style="fill:#FFB0B8;"></path>
	</g>
	<g style="display:inline;">
		<path d="M157.475,233.504c0.465-1.429,1.926-3.184,3.248-3.897l0.006-0.003c1.32-0.717,1.32-1.889,0-2.604
			l-0.006-0.003c-1.32-0.717-2.854-2.328-3.412-3.584c-0.555-1.255-1.465-1.255-2.019,0c-0.556,1.256-2.091,2.867-3.411,3.584
			L151.875,227c-1.319,0.715-1.319,1.886,0,2.604l0.007,0.003c1.32,0.715,2.781,2.47,3.248,3.897l0.329,1.009
			c0.466,1.431,1.226,1.431,1.69,0L157.475,233.504z" style="fill:#FFB0B8;"></path>
	</g>
	<g style="display:inline;">
		<path d="M26.977,105.898c0.465-1.43,1.926-3.185,3.248-3.898l0.006-0.003c1.32-0.716,1.32-1.888,0-2.603
			l-0.006-0.003c-1.32-0.718-2.854-2.328-3.412-3.584c-0.555-1.256-1.465-1.256-2.019,0c-0.555,1.256-2.091,2.866-3.411,3.584
			l-0.007,0.003c-1.319,0.715-1.319,1.886,0,2.603L21.383,102c1.32,0.715,2.781,2.47,3.248,3.898l0.329,1.009
			c0.466,1.43,1.226,1.43,1.69,0L26.977,105.898z" style="fill:#FFFF00;"></path>
	</g>
</g>
<g id="Layer_4">
	<g>
		<path d="M153.04,51.508h54.807c0,0,18.576-2.326,18.576,31.032h-76.896" style="fill:#E8D1B7;"></path>
		<path d="M226.423,84.04h-76.896c-0.828,0-1.5-0.671-1.5-1.5s0.672-1.5,1.5-1.5h75.382
			c-0.212-11.732-2.934-20.248-7.903-24.683c-4.307-3.843-8.791-3.38-8.98-3.36c-0.057,0.006-0.122,0.011-0.179,0.011H153.04
			c-0.828,0-1.5-0.671-1.5-1.5s0.672-1.5,1.5-1.5h54.729c0.848-0.08,6.155-0.373,11.16,4.045c5.968,5.267,8.993,14.851,8.993,28.487
			C227.923,83.368,227.251,84.04,226.423,84.04z" style="fill:#6E6E96;"></path>
	</g>
	<path d="M224.35,63.808h-35.438
		C188.913,63.808,202.479,36.117,224.35,63.808z" style="opacity:0.15;fill:#6E6E96;enable-background:new    ;"></path>
	<g>
		<path d="M106.393,205.361H51.587c0,0-20.527,2.327-20.527-31.032h78.844" style="fill:#E8D1B7;"></path>
		<path d="M50.726,206.897c-2.155,0-7.308-0.495-12.037-4.719c-6.058-5.41-9.13-14.78-9.13-27.85
			c0-0.828,0.671-1.5,1.5-1.5h78.844c0.829,0,1.5,0.672,1.5,1.5s-0.671,1.5-1.5,1.5h-77.33c0.218,11.388,2.945,19.496,8.114,24.112
			c5.055,4.515,10.673,3.935,10.73,3.93c0.056-0.007,0.112-0.01,0.169-0.01h54.806c0.829,0,1.5,0.672,1.5,1.5s-0.671,1.5-1.5,1.5
			H51.659C51.504,206.875,51.182,206.897,50.726,206.897z" style="fill:#6E6E96;"></path>
	</g>
	<path d="M189.682,82.541v99.546c0,12.801-10.473,23.274-23.272,23.274H51.587c0,0,20.947,0,20.947-23.274
		V82.541c0-33.511,26.083-30.791,26.083-30.791h111.805C190.598,51.75,189.682,82.541,189.682,82.541z" style="fill:#FFF6C9;"></path>
	<path d="M72.534,189.287v-7.2c0,23.274-20.947,23.274-20.947,23.274
		h114.822c12.801,0,23.272-10.475,23.272-23.274v7.2H72.534z" style="opacity:0.1;fill:#6E6E96;enable-background:new    ;"></path>
	<g style="opacity:0.44;">
		<path d="M124.991,87.556c-0.384,0-0.768-0.146-1.061-0.439l-9.509-9.508
			c-0.281-0.281-0.439-0.663-0.439-1.061s0.158-0.779,0.439-1.061l9.509-9.508c0.586-0.586,1.535-0.586,2.121,0s0.586,1.536,0,2.121
			l-8.448,8.447l8.448,8.447c0.586,0.585,0.586,1.535,0,2.121C125.76,87.41,125.375,87.556,124.991,87.556z" style="fill:#6E6E96;"></path>
		<path d="M142.918,87.556c-0.384,0-0.768-0.146-1.061-0.439c-0.586-0.585-0.586-1.536,0-2.121l8.447-8.447
			l-8.447-8.447c-0.586-0.585-0.586-1.536,0-2.121c0.586-0.586,1.535-0.586,2.121,0l9.508,9.508c0.586,0.585,0.586,1.536,0,2.121
			l-9.508,9.508C143.686,87.41,143.302,87.556,142.918,87.556z" style="fill:#6E6E96;"></path>
		<path d="M131.784,90c-0.105,0-0.211-0.011-0.318-0.034c-0.81-0.174-1.324-0.973-1.15-1.782l5.297-24.583
			c0.176-0.81,0.974-1.321,1.783-1.15c0.81,0.174,1.324,0.973,1.15,1.782l-5.297,24.583C133.097,89.519,132.476,90,131.784,90z" style="fill:#6E6E96;"></path>
	</g>
	<path d="M92.696,103.306h-8.076c-0.829,0-1.5-0.671-1.5-1.5s0.671-1.5,1.5-1.5h8.076
		c0.829,0,1.5,0.671,1.5,1.5S93.524,103.306,92.696,103.306z" style="fill:#FFC4FD;"></path>
	<path d="M143.618,103.306h-37.226c-0.829,0-1.5-0.671-1.5-1.5s0.671-1.5,1.5-1.5h37.226
		c0.828,0,1.5,0.671,1.5,1.5S144.447,103.306,143.618,103.306z" style="fill:#F0D2B4;"></path>
	<path d="M168.903,103.306H152.75c-0.828,0-1.5-0.671-1.5-1.5
		s0.672-1.5,1.5-1.5h16.152c0.828,0,1.5,0.671,1.5,1.5S169.731,103.306,168.903,103.306z" style="opacity:0.3;fill:#6E6E96;enable-background:new    ;"></path>
	<path d="M109.202,114.193h-14.75c-0.829,0-1.5-0.671-1.5-1.5s0.671-1.5,1.5-1.5h14.75
		c0.829,0,1.5,0.671,1.5,1.5S110.031,114.193,109.202,114.193z" style="fill:#FFC4FD;"></path>
	<path d="M117.104,123.147h-16.856c-0.829,0-1.5-0.671-1.5-1.5s0.671-1.5,1.5-1.5h16.856
		c0.829,0,1.5,0.671,1.5,1.5S117.932,123.147,117.104,123.147z" style="fill:#FFC4FD;"></path>
	<path d="M153.1,123.147h-25.637c-0.829,0-1.5-0.671-1.5-1.5
		s0.671-1.5,1.5-1.5H153.1c0.828,0,1.5,0.671,1.5,1.5S153.928,123.147,153.1,123.147z" style="opacity:0.3;fill:#6E6E96;enable-background:new    ;"></path>
	<path d="M151.344,132.454h-15.451c-0.828,0-1.5-0.672-1.5-1.5s0.672-1.5,1.5-1.5h15.451
		c0.828,0,1.5,0.672,1.5,1.5S152.172,132.454,151.344,132.454z" style="fill:#90ABC4;"></path>
	<path d="M125.356,132.454H114.47c-0.829,0-1.5-0.672-1.5-1.5s0.671-1.5,1.5-1.5h10.886
		c0.829,0,1.5,0.672,1.5,1.5S126.184,132.454,125.356,132.454z" style="fill:#F0D2B4;"></path>
	<path d="M174.17,132.454h-15.802c-0.828,0-1.5-0.672-1.5-1.5
		s0.672-1.5,1.5-1.5h15.802c0.828,0,1.5,0.672,1.5,1.5S174.998,132.454,174.17,132.454z" style="opacity:0.3;fill:#6E6E96;enable-background:new    ;"></path>
	<path d="M142.565,140.883h-6.672c-0.828,0-1.5-0.672-1.5-1.5s0.672-1.5,1.5-1.5h6.672
		c0.828,0,1.5,0.672,1.5,1.5S143.393,140.883,142.565,140.883z" style="fill:#90ABC4;"></path>
	<path d="M125.356,140.883H114.47c-0.829,0-1.5-0.672-1.5-1.5s0.671-1.5,1.5-1.5h10.886
		c0.829,0,1.5,0.672,1.5,1.5S126.184,140.883,125.356,140.883z" style="fill:#F0D2B4;"></path>
	<path d="M159.071,140.883h-9.834c-0.828,0-1.5-0.672-1.5-1.5
		s0.672-1.5,1.5-1.5h9.834c0.828,0,1.5,0.672,1.5,1.5S159.899,140.883,159.071,140.883z" style="opacity:0.3;fill:#6E6E96;enable-background:new    ;"></path>
	<path d="M150.995,151.418h-15.103c-0.828,0-1.5-0.672-1.5-1.5s0.672-1.5,1.5-1.5h15.103
		c0.828,0,1.5,0.672,1.5,1.5S151.823,151.418,150.995,151.418z" style="fill:#90ABC4;"></path>
	<path d="M126.761,151.418H114.47c-0.829,0-1.5-0.672-1.5-1.5s0.671-1.5,1.5-1.5h12.291
		c0.829,0,1.5,0.672,1.5,1.5S127.59,151.418,126.761,151.418z" style="fill:#F0D2B4;"></path>
	<path d="M163.987,151.418h-6.321c-0.828,0-1.5-0.672-1.5-1.5
		s0.672-1.5,1.5-1.5h6.321c0.828,0,1.5,0.672,1.5,1.5S164.815,151.418,163.987,151.418z" style="opacity:0.3;fill:#6E6E96;enable-background:new    ;"></path>
	<path d="M108.5,161.603h-8.253c-0.829,0-1.5-0.672-1.5-1.5
		s0.671-1.5,1.5-1.5h8.253c0.829,0,1.5,0.672,1.5,1.5S109.329,161.603,108.5,161.603z" style="opacity:0.3;fill:#6E6E96;enable-background:new    ;"></path>
	<path d="M99.72,170.382h-5.268c-0.829,0-1.5-0.672-1.5-1.5
		s0.671-1.5,1.5-1.5h5.268c0.829,0,1.5,0.672,1.5,1.5S100.549,170.382,99.72,170.382z" style="opacity:0.3;fill:#6E6E96;enable-background:new    ;"></path>
	<path d="M90.589,179.162h-5.97c-0.829,0-1.5-0.672-1.5-1.5
		s0.671-1.5,1.5-1.5h5.97c0.829,0,1.5,0.672,1.5,1.5S91.418,179.162,90.589,179.162z" style="opacity:0.3;fill:#6E6E96;enable-background:new    ;"></path>
	<path d="M131.913,132.454h-2.343c-0.828,0-1.5-0.672-1.5-1.5s0.672-1.5,1.5-1.5h2.343
		c0.828,0,1.5,0.672,1.5,1.5S132.741,132.454,131.913,132.454z" style="fill:#F0D2B4;"></path>
	<path d="M131.561,140.883h-1.873c-0.828,0-1.5-0.672-1.5-1.5s0.672-1.5,1.5-1.5h1.873
		c0.828,0,1.5,0.672,1.5,1.5S132.389,140.883,131.561,140.883z" style="fill:#F0D2B4;"></path>
	<path d="M131.913,151.418h-1.873c-0.828,0-1.5-0.672-1.5-1.5s0.672-1.5,1.5-1.5h1.873
		c0.828,0,1.5,0.672,1.5,1.5S132.741,151.418,131.913,151.418z" style="fill:#F0D2B4;"></path>
	<path d="M35.081,193.062H70.52
		C70.521,193.062,56.954,220.753,35.081,193.062z" style="opacity:0.15;fill:#6E6E96;enable-background:new    ;"></path>
	<path d="M78.371,61.867h117.292
		c3.057-5.583,7.871-10.117,15.477-10.117H99.333C99.333,51.75,85.966,50.361,78.371,61.867z" style="opacity:0.51;fill:#FFFFFF;enable-background:new    ;"></path>
	<path d="M166.409,206.861H51.587c-0.829,0-1.5-0.672-1.5-1.5s0.671-1.5,1.5-1.5
		c0.792-0.003,19.448-0.32,19.448-21.774V82.541c0-12.789,3.677-22.02,10.929-27.435c5.934-4.431,12.655-4.91,15.27-4.91
		c0.751,0,1.256,0.036,1.453,0.053h111.735c0.828,0,1.5,0.671,1.5,1.5s-0.672,1.5-1.5,1.5c-18.135,0-19.233,29.043-19.242,29.336
		l0.001,99.5C191.182,195.748,180.069,206.861,166.409,206.861z M62.526,203.861h103.884c12.005,0,21.772-9.768,21.772-21.774
		V82.541c0.011-0.369,0.269-8.065,3.021-15.893c2.176-6.188,5.309-10.693,9.258-13.398H98.618c-0.052,0-0.104-0.003-0.156-0.008
		c-0.001,0-0.457-0.045-1.228-0.045c-2.315,0-8.262,0.42-13.475,4.313c-6.453,4.818-9.724,13.24-9.724,25.031v99.546
		C74.035,194.603,68.232,200.797,62.526,203.861z" style="fill:#6E6E96;"></path>
</g>
</svg>
