<svg xml:space="preserve" style="enable-background:new 0 0 256.5 253.117;" viewBox="0 0 256.5 253.117" height="253.117px" width="256.5px" y="0px" x="0px" xmlns:xlink="http://www.w3.org/1999/xlink" xmlns="http://www.w3.org/2000/svg" id="Layer_1" version="1.1">
<g id="Layer_1_2_">
	<g id="Layer_4_3_">
		<g style="opacity:0.39;" id="Layer_4_4_">
			<path d="M43.945,186.084c4.408,35.689,34.881,63.328,71.851,63.328c22.498,0,26.542-26.285,55.881-26.285
				c2.224,0.203,4.47,0.322,6.743,0.322c7.346,0,11.114-1.092,17.795-3.119c0,0,2.498-33.809,0-31.311l41.762-0.088
				c8.722-11.932,12.866-21.834,12.866-37.729c0-26.912-36.638-41.199-36.638-62.802c0.012-0.518,0.04-1.027,0.04-1.546
				c0-39.902-32.423-72.25-72.42-72.25c-26.489,0-49.64,14.194-62.269,35.36c-0.619-0.015-1.234-0.045-1.855-0.045
				c-39.997,0-72.422,32.346-72.422,72.248C5.279,149.908,33.764,161.176,43.945,186.084z" style="fill:#D5CFFF;"></path>
		</g>
		<path d="M198.137,110.684" style="fill:#F8CFFF;"></path>
	</g>
	<g>
		<g>
			<rect height="57.473" width="88.946" style="fill:#E8FFF9;" y="28.678" x="14.913"></rect>
			<path d="M103.859,87.651H14.913c-0.829,0-1.5-0.671-1.5-1.5V28.678c0-0.829,0.671-1.5,1.5-1.5h88.946
				c0.829,0,1.5,0.671,1.5,1.5v57.473C105.359,86.979,104.688,87.651,103.859,87.651z M16.413,84.651h85.946V30.178H16.413V84.651z" style="fill:#CCCCDE;"></path>
		</g>
		<rect height="3" width="43.789" style="fill:#CCCCDE;" y="41.547" x="25.86"></rect>
		<rect height="3" width="20.526" style="fill:#CCCCDE;" y="52.493" x="25.86"></rect>
		<rect height="3" width="14.369" style="fill:#CCCCDE;" y="53.177" x="59.386"></rect>
		<rect height="3" width="12.658" style="fill:#CCCCDE;" y="40.862" x="77.86"></rect>
		<rect height="3" width="37.118" style="fill:#CCCCDE;" y="62.756" x="25.86"></rect>
	</g>
	<g>
		<g>
			<polygon points="240.195,87.767 156.979,87.767 156.979,210.033 253.637,210.033 253.637,100.57" style="fill:#FFFFFF;"></polygon>
			<path d="M253.637,211.533h-96.658c-0.828,0-1.5-0.672-1.5-1.5V87.767c0-0.829,0.672-1.5,1.5-1.5h83.217
				c0.385,0,0.756,0.148,1.034,0.414l13.441,12.803c0.298,0.283,0.466,0.675,0.466,1.086v109.463
				C255.137,210.861,254.465,211.533,253.637,211.533z M158.479,208.533h93.658V101.212l-12.541-11.945h-81.117V208.533z" style="fill:#CCCCDE;"></path>
		</g>
		<g>
			<polygon points="253.637,100.57 240.195,100.57 240.195,87.767" style="fill:#FFFFFF;"></polygon>
			<path d="M253.656,102.07c-0.005,0-0.012,0-0.02,0h-13.441c-0.828,0-1.5-0.671-1.5-1.5V87.767
				c0-0.6,0.357-1.143,0.909-1.379c0.552-0.237,1.19-0.121,1.625,0.293l13.305,12.672c0.377,0.272,0.622,0.716,0.622,1.217
				C255.156,101.398,254.485,102.07,253.656,102.07z M241.695,99.07h8.191l-8.191-7.802V99.07z" style="fill:#CCCCDE;"></path>
		</g>
		<path d="M212.037,108.543h-17.244c-0.828,0-1.5-0.671-1.5-1.5
			s0.672-1.5,1.5-1.5h17.244c0.828,0,1.5,0.671,1.5,1.5S212.865,108.543,212.037,108.543z" style="opacity:0.21;fill:#6E6E96;enable-background:new    ;"></path>
		<g style="opacity:0.21;">
			<path d="M216.016,120.227h-43.773c-0.828,0-1.5-0.671-1.5-1.5s0.672-1.5,1.5-1.5h43.773
				c0.828,0,1.5,0.671,1.5,1.5S216.844,120.227,216.016,120.227z" style="fill:#6E6E96;"></path>
			<path d="M235.25,120.227h-9.945c-0.828,0-1.5-0.671-1.5-1.5s0.672-1.5,1.5-1.5h9.945
				c0.828,0,1.5,0.671,1.5,1.5S236.078,120.227,235.25,120.227z" style="fill:#6E6E96;"></path>
			<path d="M208.059,126.195h-35.816c-0.828,0-1.5-0.671-1.5-1.5s0.672-1.5,1.5-1.5h35.816
				c0.828,0,1.5,0.671,1.5,1.5S208.887,126.195,208.059,126.195z" style="fill:#6E6E96;"></path>
			<path d="M235.25,126.195h-22.549c-0.828,0-1.5-0.671-1.5-1.5s0.672-1.5,1.5-1.5h22.549
				c0.828,0,1.5,0.671,1.5,1.5S236.078,126.195,235.25,126.195z" style="fill:#6E6E96;"></path>
			<path d="M189.158,133.492h-16.916c-0.828,0-1.5-0.672-1.5-1.5s0.672-1.5,1.5-1.5h16.916
				c0.828,0,1.5,0.672,1.5,1.5S189.986,133.492,189.158,133.492z" style="fill:#6E6E96;"></path>
			<path d="M205.404,133.492h-9.949c-0.828,0-1.5-0.672-1.5-1.5s0.672-1.5,1.5-1.5h9.949
				c0.828,0,1.5,0.672,1.5,1.5S206.232,133.492,205.404,133.492z" style="fill:#6E6E96;"></path>
			<path d="M235.25,133.492h-25.201c-0.828,0-1.5-0.672-1.5-1.5s0.672-1.5,1.5-1.5h25.201
				c0.828,0,1.5,0.672,1.5,1.5S236.078,133.492,235.25,133.492z" style="fill:#6E6E96;"></path>
			<path d="M199.104,140.787h-26.861c-0.828,0-1.5-0.672-1.5-1.5s0.672-1.5,1.5-1.5h26.861
				c0.828,0,1.5,0.672,1.5,1.5S199.932,140.787,199.104,140.787z" style="fill:#6E6E96;"></path>
			<path d="M209.717,140.787H206.4c-0.828,0-1.5-0.672-1.5-1.5s0.672-1.5,1.5-1.5h3.316
				c0.828,0,1.5,0.672,1.5,1.5S210.545,140.787,209.717,140.787z" style="fill:#6E6E96;"></path>
			<path d="M235.25,140.787h-18.902c-0.828,0-1.5-0.672-1.5-1.5s0.672-1.5,1.5-1.5h18.902
				c0.828,0,1.5,0.672,1.5,1.5S236.078,140.787,235.25,140.787z" style="fill:#6E6E96;"></path>
		</g>
		<path d="M211.046,195.1c-0.337,0-0.677-0.113-0.957-0.346
			c-0.638-0.529-0.726-1.475-0.196-2.112c6.062-7.307,10.293-10.471,12.575-9.424c1.98,0.912,1.494,3.739,1.334,4.668
			c-0.402,2.333-0.365,3.466-0.287,3.978c0.914-0.499,2.549-2.134,3.222-2.807c1.286-1.288,2.482-1.711,3.559-1.269
			c0.557,0.23,0.927,0.643,1.172,1.096l3.869-1.642c0.764-0.324,1.644,0.033,1.967,0.795c0.323,0.763-0.032,1.644-0.795,1.967
			l-5.474,2.322c-0.464,0.197-0.994,0.148-1.414-0.13c-0.381-0.253-0.624-0.663-0.666-1.113c-0.03,0.029-0.062,0.062-0.097,0.095
			c-2.19,2.19-4.674,4.671-6.82,3.56c-1.99-1.031-1.72-4.3-1.192-7.361c0.1-0.577,0.127-0.974,0.126-1.237
			c-1.611,0.757-5.43,4.394-8.77,8.419C211.904,194.915,211.477,195.1,211.046,195.1z" style="opacity:0.3;fill:#6E6E96;enable-background:new    ;"></path>
		<path d="M207.727,147.754h-35.484c-0.828,0-1.5-0.672-1.5-1.5
			s0.672-1.5,1.5-1.5h35.484c0.828,0,1.5,0.672,1.5,1.5S208.555,147.754,207.727,147.754z" style="opacity:0.21;fill:#6E6E96;enable-background:new    ;"></path>
		<g style="opacity:0.21;">
			<path d="M216.016,153.92h-43.773c-0.828,0-1.5-0.672-1.5-1.5s0.672-1.5,1.5-1.5h43.773
				c0.828,0,1.5,0.672,1.5,1.5S216.844,153.92,216.016,153.92z" style="fill:#6E6E96;"></path>
			<path d="M235.25,153.92h-9.945c-0.828,0-1.5-0.672-1.5-1.5s0.672-1.5,1.5-1.5h9.945
				c0.828,0,1.5,0.672,1.5,1.5S236.078,153.92,235.25,153.92z" style="fill:#6E6E96;"></path>
			<path d="M208.059,159.891h-35.816c-0.828,0-1.5-0.672-1.5-1.5s0.672-1.5,1.5-1.5h35.816
				c0.828,0,1.5,0.672,1.5,1.5S208.887,159.891,208.059,159.891z" style="fill:#6E6E96;"></path>
			<path d="M235.25,159.891h-22.549c-0.828,0-1.5-0.672-1.5-1.5s0.672-1.5,1.5-1.5h22.549
				c0.828,0,1.5,0.672,1.5,1.5S236.078,159.891,235.25,159.891z" style="fill:#6E6E96;"></path>
			<path d="M189.158,167.188h-16.916c-0.828,0-1.5-0.672-1.5-1.5s0.672-1.5,1.5-1.5h16.916
				c0.828,0,1.5,0.672,1.5,1.5S189.986,167.188,189.158,167.188z" style="fill:#6E6E96;"></path>
			<path d="M205.404,167.188h-9.949c-0.828,0-1.5-0.672-1.5-1.5s0.672-1.5,1.5-1.5h9.949
				c0.828,0,1.5,0.672,1.5,1.5S206.232,167.188,205.404,167.188z" style="fill:#6E6E96;"></path>
			<path d="M235.25,167.188h-25.201c-0.828,0-1.5-0.672-1.5-1.5s0.672-1.5,1.5-1.5h25.201
				c0.828,0,1.5,0.672,1.5,1.5S236.078,167.188,235.25,167.188z" style="fill:#6E6E96;"></path>
			<path d="M199.104,174.482h-26.861c-0.828,0-1.5-0.672-1.5-1.5s0.672-1.5,1.5-1.5h26.861
				c0.828,0,1.5,0.672,1.5,1.5S199.932,174.482,199.104,174.482z" style="fill:#6E6E96;"></path>
			<path d="M209.717,174.482H206.4c-0.828,0-1.5-0.672-1.5-1.5s0.672-1.5,1.5-1.5h3.316
				c0.828,0,1.5,0.672,1.5,1.5S210.545,174.482,209.717,174.482z" style="fill:#6E6E96;"></path>
			<path d="M235.25,174.482h-18.902c-0.828,0-1.5-0.672-1.5-1.5s0.672-1.5,1.5-1.5h18.902
				c0.828,0,1.5,0.672,1.5,1.5S236.078,174.482,235.25,174.482z" style="fill:#6E6E96;"></path>
		</g>
	</g>
	<g>
		<g>
			<polygon points="1.996,196.781 1.996,151.781 72.996,151.781 72.996,222.781 27.996,222.781" style="fill:#FAFFFA;"></polygon>
			<path d="M72.996,224.281h-45c-0.398,0-0.779-0.158-1.061-0.439l-26-26
				c-0.281-0.281-0.439-0.663-0.439-1.061v-45c0-0.828,0.671-1.5,1.5-1.5h71c0.829,0,1.5,0.672,1.5,1.5v71
				C74.496,223.609,73.825,224.281,72.996,224.281z M28.617,221.281h42.879v-68h-68v42.879L28.617,221.281z" style="fill:#CCCCDE;"></path>
		</g>
		<g>
			<polygon points="1.996,196.781 27.996,196.781 27.996,222.781" style="fill:#EDFFEB;"></polygon>
			<path d="M27.997,224.281c-0.391,0-0.774-0.152-1.061-0.439l-26-26c-0.429-0.429-0.558-1.074-0.325-1.635
				c0.232-0.561,0.779-0.926,1.386-0.926h26c0.829,0,1.5,0.672,1.5,1.5v26c0,0.606-0.365,1.153-0.926,1.386
				C28.385,224.244,28.189,224.281,27.997,224.281z M5.617,198.281l20.879,20.879v-20.879H5.617z" style="fill:#CCCCDE;"></path>
		</g>
	</g>
	<g id="Layer_1_3_">
		<g style="display:none;" id="Layer_3_3_">
			<g style="display:inline;">
				<g>
					<path d="M85.412,141.209c0-11.564-10.059-20.937-22.467-20.937c-0.194,0-0.385,0.009-0.576,0.015
						c-3.917-6.135-11.102-10.246-19.318-10.246c-12.409,0-22.469,9.372-22.469,20.936c0,0.149,0.009,0.297,0.012,0.446
						c-6.785,3.603-11.365,10.397-11.365,18.197c0,11.563,10.059,20.935,22.468,20.935c0.705,0,1.403-0.033,2.092-0.095
						c4.122,4.649,10.358,7.617,17.335,7.617c11.471,0,20.925-8.011,22.293-18.351C80.549,156.221,85.412,149.246,85.412,141.209z" style="fill:#D7F7E4;"></path>
					<path d="M51.124,179.577c-6.894,0-13.391-2.749-17.949-7.567c-0.498,0.03-0.992,0.045-1.478,0.045
						c-13.216,0-23.968-10.064-23.968-22.435c0-7.767,4.328-14.996,11.357-19.075c0.247-12.173,10.902-22.004,23.964-22.004
						c8.091,0,15.716,3.9,20.112,10.232c13.116,0.11,23.75,10.132,23.75,22.436c0,8.109-4.626,15.514-12.127,19.503
						C72.938,171.521,62.913,179.577,51.124,179.577z M34.409,168.898l0.502,0.566c4.007,4.52,9.917,7.112,16.212,7.112
						c10.575,0,19.52-7.329,20.806-17.047l0.105-0.796l0.72-0.354c6.882-3.384,11.157-9.963,11.157-17.172
						c0-10.718-9.406-19.437-20.967-19.437c-0.124,0-0.247,0.005-0.37,0.009l-1.012,0.032l-0.458-0.718
						c-3.762-5.893-10.68-9.553-18.054-9.553c-11.562,0-20.969,8.719-20.969,19.436l0.029,1.339l-0.814,0.433
						c-6.519,3.461-10.568,9.926-10.568,16.872c0,10.716,9.406,19.435,20.968,19.435c0.64,0,1.299-0.03,1.959-0.089L34.409,168.898z" style="fill:#CCCCDE;"></path>
				</g>
				<path d="M62.566,119.52c-0.193,0-0.384,0.009-0.575,0.014
					c-3.141-4.918-8.383-8.534-14.573-9.775c4.898,1.229,9.023,4.208,11.558,8.175c0.165-0.004,2.416,3.886,2.583,3.886
					c10.648,0,15.601,5.739,15.601,15.659c0,6.896-2.583,11.291-8.704,14.302c-1.173,8.875-9.287,15.747-19.129,15.747
					c-5.99,0-11.34-2.543-14.877-6.525c-0.591,0.052-1.189,0.071-1.794,0.071c-10.649,0-19.013-5.048-19.013-14.968
					c0-6.682,2.99-9.973,8.432-13.938c-0.145-0.855-0.75-8.42,1.267-10.437c4.792-4.793,6.963-8.909,11.25-11.038
					c-8.414,3.025-14.385,10.627-14.385,19.536c0,0.147,0.009,0.299,0.012,0.447c-6.787,3.604-11.366,10.396-11.366,18.194
					c0,11.563,10.059,20.938,22.468,20.938c0.707,0,1.403-0.035,2.093-0.102c4.121,4.646,10.356,7.617,17.336,7.617
					c11.469,0,20.924-8.016,22.291-18.354c7.133-3.507,11.997-10.479,11.997-18.521C85.035,128.893,74.976,119.52,62.566,119.52z" style="opacity:0.1;fill:#6E6E96;enable-background:new    ;"></path>
				<g>
					<path d="M30.588,152.531c0,0,11.635,2.277,11.635,13.662c0,0,3.132,19.342-8.976,33.026h27.96
						c-0.277-0.394-24.422-32.646,2.449-51.815C47.268,156.773,30.588,152.531,30.588,152.531z" style="fill:#EDE3DA;"></path>
					<path d="M61.207,200.72h-31.29l2.207-2.494c11.477-12.972,8.648-31.607,8.619-31.794l-0.019-0.238
						c0-9.079-8.398-11.683-10.144-12.124c-0.238-0.053-0.362-0.084-0.362-0.084l0.658-2.926c0,0,0.139,0.026,0.39,0.089
						c0.935,0.203,4.231,0.841,8.802,0.841c5.724,0,14.333-1.021,22.844-5.887l1.616,2.522c-6.62,4.723-10.555,10.688-11.696,17.732
						c-2.425,14.967,8.325,30.245,9.559,31.938l1.737,2.383L61.207,200.72z M36.382,197.72h22.002
						c-3.443-5.407-10.653-18.643-8.514-31.842c0.808-4.984,2.85-9.472,6.094-13.415c-6.069,2.011-11.71,2.526-15.896,2.526
						c-0.463,0-0.915-0.006-1.352-0.018c2.655,2.276,4.974,5.786,5.007,11.104C43.983,167.812,46.152,184.407,36.382,197.72z" style="fill:#CCCCDE;"></path>
				</g>
				<g>
					<path d="M37.955,129.691" style="fill:#D57E58;"></path>
				</g>
				<path d="M56.682,152.5c0,0-17.654,22.793-4.085,46.721h8.611
					C61.207,199.221,43.292,174.184,56.682,152.5z" style="opacity:0.11;fill:#6E6E96;enable-background:new    ;"></path>
			</g>
			<g style="display:inline;">
				<g>
					<path d="M255.252,139.926c0-10.828-9.42-19.604-21.04-19.604c-0.183,0-0.36,0.009-0.539,0.013
						c-3.669-5.744-10.396-9.595-18.091-9.595c-11.62,0-21.041,8.777-21.041,19.604c0,0.141,0.009,0.279,0.012,0.418
						c-6.354,3.375-10.644,9.74-10.644,17.043c0,10.826,9.421,19.605,21.04,19.605c0.66,0,1.312-0.033,1.96-0.09
						c3.858,4.354,9.698,7.135,16.233,7.135c10.731,0,19.596-7.5,20.875-17.186C250.697,153.982,255.252,147.453,255.252,139.926z" style="fill:#D7F7E4;"></path>
					<path d="M223.143,175.955c-6.467,0-12.562-2.573-16.848-7.086c-0.461,0.027-0.906,0.041-1.346,0.041
						c-12.429,0-22.54-9.468-22.54-21.105c0-7.289,4.053-14.077,10.637-17.92c0.262-11.426,10.271-20.645,22.536-20.645
						c7.59,0,14.745,3.652,18.885,9.583c12.312,0.128,22.285,9.545,22.285,21.102c0,7.612-4.335,14.567-11.367,18.328
						C243.629,168.399,234.214,175.955,223.143,175.955z M207.531,165.76l0.501,0.565c3.733,4.214,9.241,6.63,15.11,6.63
						c9.857,0,18.192-6.828,19.388-15.882l0.105-0.795l0.72-0.354c6.413-3.156,10.396-9.286,10.396-15.998
						c0-9.982-8.766-18.104-19.54-18.104l-1.35,0.031l-0.453-0.71c-3.508-5.491-9.955-8.902-16.827-8.902
						c-10.775,0-19.541,8.121-19.541,18.104l0.031,1.31l-0.815,0.433c-6.074,3.227-9.848,9.25-9.848,15.719
						c0,9.983,8.766,18.105,19.54,18.105c0.584,0,1.182-0.027,1.829-0.084L207.531,165.76z" style="fill:#CCCCDE;"></path>
				</g>
				<path d="M233.857,119.615c-0.188,0-0.358,0.008-0.539,0.012
					c-2.94-4.606-7.854-7.992-13.646-9.154c4.586,1.15,8.449,3.94,10.822,7.655c0.154-0.004,2.263,3.639,2.419,3.639
					c9.971,0,14.608,5.374,14.608,14.665c0,6.459-2.42,10.573-8.148,13.396c-1.1,8.312-8.698,14.74-17.914,14.74
					c-5.607,0-10.619-2.381-13.934-6.115c-0.563,0.047-1.112,0.07-1.688,0.07c-9.978,0-17.806-4.729-17.806-14.018
					c0-6.26,2.8-9.342,7.896-13.06c-0.141-0.81-0.7-7.884,1.188-9.771c4.479-4.488,6.521-8.343,10.527-10.337
					c-7.879,2.833-13.471,9.953-13.471,18.292c0,0.141,0.006,0.271,0.012,0.418c-6.354,3.373-10.646,9.734-10.646,17.041
					c0,10.822,9.421,19.604,21.041,19.604c0.661,0,1.313-0.028,1.959-0.09c3.858,4.354,9.698,7.14,16.233,7.14
					c10.74,0,19.595-7.5,20.875-17.188c6.681-3.285,11.229-9.813,11.229-17.345C254.898,128.393,245.479,119.615,233.857,119.615z" style="opacity:0.1;fill:#6E6E96;enable-background:new    ;"></path>
				<g>
					<path d="M203.912,150.527c0,0,10.896,2.133,10.896,12.797c0,0,2.934,18.109-8.406,30.928h26.184
						c-0.26-0.359-22.87-30.566,2.294-48.521C219.531,154.502,203.912,150.527,203.912,150.527z" style="fill:#EDE3DA;"></path>
					<path d="M232.586,195.752h-29.514l2.207-2.494c10.718-12.115,8.076-29.521,8.049-29.695l-0.02-0.238
						c0-8.431-7.801-10.852-9.426-11.264c-0.224-0.05-0.341-0.08-0.341-0.08l0.658-2.925c0,0,0.132,0.024,0.369,0.084
						c0.876,0.19,3.956,0.786,8.226,0.786c5.348,0,13.39-0.954,21.341-5.498l1.615,2.523c-6.193,4.419-9.868,10.003-10.923,16.596
						c-2.249,14.062,7.798,28.227,8.951,29.796l1.755,2.388L232.586,195.752z M209.525,192.752h20.233
						c-3.271-5.143-9.863-17.358-7.893-29.679c0.736-4.604,2.59-8.756,5.533-12.416c-5.576,1.803-10.748,2.269-14.604,2.269
						c-0.344,0-0.681-0.004-1.01-0.011c2.418,2.149,4.49,5.412,4.523,10.291C216.557,164.869,218.559,180.297,209.525,192.752z" style="fill:#CCCCDE;"></path>
				</g>
				<g>
					<path d="M210.812,129.143" style="fill:#D57E58;"></path>
				</g>
				<path d="M228.348,150.5c0,0-16.531,21.344-3.824,43.752h8.063
					C232.585,194.252,215.809,170.805,228.348,150.5z" style="opacity:0.11;fill:#6E6E96;enable-background:new    ;"></path>
			</g>
			<g style="display:inline;">
				<g>
					<path d="M218.55,141.686c0-16.62-14.461-30.094-32.299-30.094c-0.278,0-0.554,0.012-0.828,0.019
						c-5.632-8.817-15.959-14.729-27.771-14.729c-17.838,0-32.301,13.475-32.301,30.096c0,0.215,0.014,0.428,0.018,0.646
						c-9.755,5.183-16.339,14.944-16.339,26.155c0,16.621,14.462,30.099,32.3,30.099c1.014,0,2.018-0.049,3.008-0.14
						c5.926,6.688,14.889,10.951,24.921,10.951c16.489,0,30.081-11.515,32.048-26.379
						C211.559,163.268,218.55,153.238,218.55,141.686z" style="fill:#D7F7E4;"></path>
					<path d="M169.259,196.189c-9.839,0-19.101-3.962-25.536-10.896c-0.805,0.057-1.606,0.085-2.393,0.085
						c-18.637,0-33.8-14.175-33.8-31.599c0-11.042,6.229-21.318,16.322-27.034c0.134-17.315,15.246-31.364,33.8-31.364
						c11.535,0,22.398,5.615,28.566,14.71c0.011,0,0.021,0,0.032,0c18.637,0,33.799,14.173,33.799,31.594
						c0,11.516-6.635,22.026-17.371,27.612C200.221,184.684,186.003,196.189,169.259,196.189z M144.957,182.175l0.504,0.568
						c5.881,6.639,14.556,10.446,23.798,10.446c15.531,0,28.669-10.78,30.561-25.075l0.105-0.796l0.72-0.354
						c10.119-4.978,16.405-14.664,16.405-25.279c0-15.767-13.816-28.594-30.799-28.594c-0.179,0-0.355,0.006-0.532,0.011
						l-1.104,0.028l-0.455-0.713c-5.531-8.658-15.688-14.037-26.507-14.037c-16.983,0-30.801,12.828-30.801,28.596
						c0,0.105,0.004,0.209,0.008,0.315l0.026,1.224l-0.812,0.432c-9.587,5.094-15.542,14.608-15.542,24.831
						c0,15.77,13.817,28.599,30.8,28.599c0.939,0,1.906-0.045,2.871-0.134L144.957,182.175z" style="fill:#CCCCDE;"></path>
				</g>
				<path d="M185.708,110.507c-0.276,0-0.552,0.012-0.827,0.019
					c-4.516-7.071-12.051-12.269-20.949-14.052c7.041,1.766,12.971,6.049,16.614,11.751c0.237-0.006,3.474,5.586,3.713,5.586
					c15.308,0,22.429,8.248,22.429,22.511c0,9.914-3.715,16.231-12.513,20.562c-1.687,12.754-13.353,22.635-27.5,22.635
					c-8.61,0-16.302-3.655-21.387-9.395c-0.851,0.07-1.71,0.113-2.58,0.113c-15.31,0-27.332-7.254-27.332-21.517
					c0-9.604,4.298-14.336,12.12-20.038c-0.209-1.236-1.077-12.104,1.82-15.002c6.89-6.89,10.011-12.808,16.174-15.868
					c-12.096,4.349-20.68,15.277-20.68,28.08c0,0.215,0.012,0.428,0.018,0.646c-9.756,5.178-16.34,14.947-16.34,26.156
					c0,16.621,14.461,30.098,32.3,30.098c1.017,0,2.017-0.049,3.008-0.137c5.925,6.688,14.89,10.949,24.922,10.949
					c16.487,0,30.078-11.521,32.046-26.379c10.254-5.043,17.244-15.07,17.244-26.623
					C218.008,123.98,203.547,110.507,185.708,110.507z" style="opacity:0.1;fill:#6E6E96;enable-background:new    ;"></path>
				<g>
					<path d="M139.736,157.963c0,0,16.727,3.271,16.727,19.643c0,0,4.504,27.812-12.904,47.48h40.195
						c-0.398-0.557-35.107-46.922,3.521-74.484C163.716,164.062,139.736,157.963,139.736,157.963z" style="fill:#EDE3DA;"></path>
					<path d="M183.754,226.586h-43.526l2.208-2.494c16.716-18.887,12.59-45.976,12.547-46.247l-0.02-0.239
						c0-13.557-12.515-17.421-15.086-18.07c-0.336-0.074-0.511-0.118-0.511-0.118l0.658-2.926c0,0,0.192,0.037,0.539,0.123
						c1.35,0.295,6.156,1.228,12.811,1.228c8.306,0,20.8-1.482,33.157-8.543l1.615,2.523c-9.68,6.907-15.429,15.645-17.089,25.972
						c-3.514,21.857,12.085,43.92,13.876,46.363l1.748,2.387L183.754,226.586z M146.749,223.586h34.146
						c-4.573-6.928-15.965-26.577-12.799-46.268c1.265-7.866,4.703-14.861,10.256-20.895c-9.523,3.547-18.48,4.418-24.978,4.418
						c-1.403,0-2.726-0.039-3.956-0.104c4.314,3.1,8.506,8.286,8.545,16.75C158.3,179.695,161.653,204.362,146.749,223.586z" style="fill:#CCCCDE;"></path>
				</g>
				<g>
					<path d="M150.329,125.131" style="fill:#D57E58;"></path>
				</g>
				<path d="M177.249,157.918c0,0-25.378,32.766-5.873,67.164h12.378
					C183.754,225.082,158,189.09,177.249,157.918z" style="opacity:0.11;fill:#6E6E96;enable-background:new    ;"></path>
			</g>
			<g style="display:inline;">
				<g>
					<path d="M146.713,142.797c0-13.645-11.873-24.707-26.518-24.707c-0.229,0-0.453,0.01-0.68,0.016
						c-4.623-7.239-13.102-12.092-22.8-12.092c-14.644,0-26.518,11.063-26.518,24.707c0,0.178,0.012,0.354,0.015,0.528
						c-8.01,4.252-13.414,12.271-13.414,21.478c0,13.646,11.872,24.707,26.518,24.707c0.832,0,1.655-0.041,2.469-0.104
						c4.864,5.48,12.224,8.98,20.46,8.98c13.537,0,24.694-9.451,26.31-21.648C140.973,160.516,146.713,152.283,146.713,142.797z" style="fill:#D7F7E4;"></path>
					<path d="M106.245,187.811c-8.108,0-15.747-3.247-21.08-8.935c-0.657,0.039-1.267,0.058-1.849,0.058
						c-15.449,0-28.018-11.757-28.018-26.207c0-9.119,5.111-17.604,13.401-22.355c0.2-14.291,12.691-25.857,28.016-25.857
						c9.51,0,18.469,4.606,23.595,12.076c15.396,0.059,27.903,11.793,27.903,26.207c0,9.51-5.454,18.196-14.288,22.851
						C131.825,178.338,120.074,187.811,106.245,187.811z M86.413,175.777l0.495,0.557c4.78,5.387,11.829,8.477,19.338,8.477
						c12.615,0,23.286-8.747,24.822-20.346l0.105-0.794l0.719-0.354c8.217-4.047,13.321-11.91,13.321-20.52
						c0-12.797-11.223-23.207-25.018-23.207c-0.144,0-0.286,0.005-0.427,0.009l-1.061,0.028l-0.456-0.714
						c-4.491-7.031-12.743-11.399-21.536-11.399c-13.795,0-25.018,10.411-25.018,23.207l0.03,1.422l-0.812,0.432
						c-7.783,4.131-12.617,11.854-12.617,20.152c0,12.797,11.223,23.207,25.018,23.207c0.716,0,1.486-0.032,2.354-0.099
						L86.413,175.777z" style="fill:#CCCCDE;"></path>
				</g>
				<path d="M119.75,117.202c-0.229,0-0.452,0.009-0.68,0.015
					c-3.707-5.805-9.894-10.072-17.198-11.537c5.78,1.45,10.648,4.966,13.642,9.647c0.193-0.005,2.85,4.586,3.047,4.586
					c12.567,0,18.414,6.771,18.414,18.479c0,8.139-3.05,13.325-10.271,16.881c-1.384,10.474-10.961,18.584-22.576,18.584
					c-7.069,0-13.384-3.004-17.559-7.715c-0.698,0.062-1.404,0.096-2.118,0.096c-12.568,0-22.438-5.957-22.438-17.663
					c0-7.886,3.528-11.771,9.949-16.451c-0.171-1.017-0.884-9.938,1.496-12.316c5.655-5.657,8.218-10.515,13.277-13.028
					c-9.93,3.571-16.978,12.542-16.978,23.054c0,0.176,0.01,0.352,0.015,0.527c-8.011,4.25-13.415,12.271-13.415,21.477
					c0,13.645,11.873,24.707,26.518,24.707c0.834,0,1.655-0.041,2.469-0.109c4.864,5.488,12.224,8.988,20.461,8.988
					c13.536,0,24.693-9.451,26.31-21.656c8.418-4.141,14.158-12.371,14.158-21.854C146.268,128.264,134.395,117.202,119.75,117.202z" style="opacity:0.1;fill:#6E6E96;enable-background:new    ;"></path>
				<g>
					<path d="M82.009,156.16c0,0,13.731,2.688,13.731,16.129c0,0,3.697,22.822-10.595,38.977h33
						c-0.328-0.455-28.824-38.52,2.891-61.151C101.695,161.168,82.009,156.16,82.009,156.16z" style="fill:#EDE3DA;"></path>
					<path d="M118.145,212.766h-36.33l2.207-2.494c13.663-15.443,10.274-37.521,10.238-37.742l-0.02-0.24
						c0-10.927-10.095-14.05-12.179-14.577c-0.277-0.062-0.422-0.098-0.422-0.098l0.658-2.926c0,0,0.161,0.03,0.451,0.103
						c1.106,0.241,5.025,1.001,10.455,1.001c6.787,0,16.995-1.211,27.089-6.98l1.615,2.523
						c-7.892,5.633-12.577,12.754-13.925,21.168c-2.861,17.866,9.887,35.854,11.351,37.846l1.753,2.388L118.145,212.766z
						 M88.307,209.766h26.991c-3.932-6.046-12.823-21.843-10.277-37.737c0.989-6.177,3.596-11.704,7.778-16.518
						c-7.478,2.623-14.466,3.281-19.596,3.281c-0.833,0-1.63-0.017-2.389-0.046c3.334,2.627,6.39,6.832,6.426,13.425
						C97.533,174.106,100.185,194.014,88.307,209.766z" style="fill:#CCCCDE;"></path>
				</g>
				<g>
					<path d="M90.705,129.207" style="fill:#D57E58;"></path>
				</g>
				<path d="M112.805,156.125c0,0-20.835,26.898-4.821,55.141h10.163
					C118.146,211.266,97.002,181.715,112.805,156.125z" style="opacity:0.11;fill:#6E6E96;enable-background:new    ;"></path>
			</g>
			<g style="display:inline;">
				<g>
					<path d="M253.936,166.934c0-12.344-10.74-22.35-23.982-22.35c-0.201,0-0.405,0.008-0.609,0.014
						c-4.188-6.549-11.854-10.938-20.625-10.938c-13.246,0-23.979,10.008-23.979,22.35c0,0.162,0.012,0.318,0.014,0.479
						c-7.244,3.854-12.135,11.104-12.135,19.438c0,12.351,10.734,22.354,23.982,22.354c0.754,0,1.494-0.038,2.229-0.104
						c4.398,4.971,11.062,8.137,18.513,8.137c12.245,0,22.339-8.557,23.8-19.598C248.742,182.961,253.936,175.516,253.936,166.934z" style="fill:#D7F7E4;"></path>
					<path d="M217.343,207.814c-7.357,0-14.283-2.938-19.127-8.085c-0.551,0.035-1.084,0.053-1.614,0.053
						c-14.051,0-25.482-10.701-25.482-23.854c0-8.271,4.622-15.976,12.125-20.315c0.227-12.969,11.567-23.452,25.475-23.452
						c8.619,0,16.745,4.166,21.42,10.925c13.966,0.093,25.297,10.756,25.297,23.849c0,8.627-4.931,16.516-12.924,20.767
						C240.57,199.222,229.897,207.814,217.343,207.814z M199.45,196.615l0.503,0.568c4.291,4.85,10.63,7.631,17.39,7.631
						c11.341,0,20.933-7.865,22.312-18.294l0.105-0.794l0.717-0.354c7.376-3.646,11.958-10.71,11.958-18.438
						c0-11.496-10.086-20.85-22.482-20.85c-0.146,0-0.292,0.005-0.439,0.009l-0.976,0.028l-0.458-0.716
						c-4.041-6.319-11.46-10.245-19.361-10.245c-12.395,0-22.479,9.354-22.479,20.85l0.024,1.375l-0.806,0.429
						c-6.995,3.722-11.34,10.662-11.34,18.114c0,11.499,10.086,20.854,22.482,20.854c0.677,0,1.361-0.032,2.094-0.099
						L199.45,196.615z" style="fill:#CCCCDE;"></path>
				</g>
				<path d="M229.544,143.777c-0.206,0-0.409,0.012-0.614,0.016
					c-3.354-5.25-8.949-9.111-15.558-10.438c5.229,1.312,9.633,4.492,12.339,8.729c0.176-0.004,2.579,4.148,2.757,4.148
					c11.368,0,16.655,6.123,16.655,16.719c0,7.361-2.757,12.055-9.291,15.27c-1.252,9.473-9.915,16.814-20.423,16.814
					c-6.396,0-12.106-2.721-15.884-6.98c-0.631,0.055-1.271,0.086-1.916,0.086c-11.368,0-20.299-5.389-20.299-15.979
					c0-7.135,3.188-10.646,9.002-14.885c-0.156-0.918-0.811-8.986,1.353-11.142c5.116-5.116,7.435-9.519,12.011-11.784
					c-8.98,3.229-15.357,11.346-15.357,20.854c0,0.158,0.02,0.316,0.021,0.479c-7.246,3.847-12.139,11.105-12.139,19.428
					c0,12.352,10.734,22.354,23.984,22.354c0.754,0,1.496-0.03,2.229-0.104c4.399,4.975,11.062,8.141,18.509,8.141
					c12.245,0,22.34-8.561,23.801-19.6c7.613-3.736,12.812-11.188,12.812-19.77C253.531,153.785,242.793,143.777,229.544,143.777z" style="opacity:0.1;fill:#6E6E96;enable-background:new    ;"></path>
				<g>
					<path d="M195.402,179.021c0,0,12.422,2.432,12.422,14.588c0,0,3.345,20.646-9.584,35.26h29.853
						c-0.296-0.41-26.073-34.848,2.615-55.318C213.212,183.553,195.402,179.021,195.402,179.021z" style="fill:#EDE3DA;"></path>
					<path d="M228.093,230.369H194.91l2.207-2.494c12.315-13.921,9.259-33.826,9.227-34.025l-0.02-0.24
						c0-9.772-9.035-12.571-10.907-13.045c-0.253-0.056-0.385-0.09-0.385-0.09l0.658-2.925c0,0,0.147,0.028,0.413,0.094
						c1,0.218,4.531,0.901,9.426,0.901c6.122,0,15.33-1.092,24.435-6.296l1.615,2.522c-7.106,5.071-11.325,11.482-12.537,19.054
						c-2.579,16.108,8.921,32.333,10.241,34.131l1.754,2.388L228.093,230.369z M201.386,227.369h23.868
						c-3.634-5.641-11.454-19.78-9.175-34.018c0.872-5.444,3.125-10.332,6.725-14.611c-6.594,2.236-12.737,2.805-17.274,2.805
						c-0.6,0-1.18-0.009-1.737-0.026c2.908,2.41,5.497,6.182,5.532,11.973C209.597,195.304,211.946,213.139,201.386,227.369z" style="fill:#CCCCDE;"></path>
				</g>
				<g>
					<path d="M203.27,154.641" style="fill:#D57E58;"></path>
				</g>
				<path d="M223.262,178.988c0,0-18.847,24.334-4.361,49.881h9.192
					C228.093,228.869,208.966,202.139,223.262,178.988z" style="opacity:0.11;fill:#6E6E96;enable-background:new    ;"></path>
			</g>
			<g style="display:inline;">
				<g>
					<path d="M89.67,165.082c0-13.111-11.408-23.738-25.479-23.738c-0.22,0-0.436,0.008-0.653,0.014
						c-4.443-6.955-12.589-11.607-21.907-11.607c-14.071,0-25.48,10.629-25.48,23.73c0,0.17,0.011,0.336,0.015,0.507
						c-7.695,4.086-12.889,11.795-12.889,20.646c0,13.104,11.407,23.73,25.479,23.73c0.8,0,1.59-0.041,2.372-0.104
						c4.674,5.271,11.745,8.64,19.659,8.64c13.007,0,23.729-9.082,25.279-20.81C84.155,182.105,89.67,174.197,89.67,165.082z" style="fill:#D7F7E4;"></path>
					<path d="M50.787,208.398c-7.795,0-15.142-3.122-20.277-8.592c-0.619,0.038-1.198,0.057-1.754,0.057
						c-14.876,0-26.979-11.318-26.979-25.23c0-8.776,4.911-16.942,12.877-21.523c0.213-13.741,12.233-24.859,26.977-24.859
						c9.15,0,17.767,4.422,22.703,11.594c14.81,0.073,26.836,11.367,26.836,25.238c0,9.149-5.242,17.508-13.734,21.992
						C75.404,199.287,64.096,208.398,50.787,208.398z M31.753,196.703l0.497,0.561c4.583,5.17,11.34,8.135,18.537,8.135
						c12.094,0,22.322-8.386,23.792-19.506l0.105-0.795l0.719-0.354c7.875-3.878,12.767-11.412,12.767-19.661
						c0-12.263-10.757-22.238-23.979-22.238c-0.161,0-0.32,0.005-0.479,0.01l-0.981,0.026l-0.457-0.715
						c-4.301-6.732-12.21-10.915-20.643-10.915c-13.223,0-23.98,9.973-23.98,22.23l0.036,1.397l-0.817,0.435
						c-7.459,3.96-12.093,11.363-12.093,19.32c0,12.258,10.757,22.23,23.979,22.23c0.689,0,1.426-0.032,2.25-0.1L31.753,196.703z" style="fill:#CCCCDE;"></path>
				</g>
				<path d="M63.763,140.488c-0.219,0-0.435,0.01-0.652,0.016
					c-3.562-5.578-9.506-9.678-16.525-11.086c5.553,1.393,10.231,4.771,13.106,9.27c0.186-0.004,2.739,4.406,2.928,4.406
					c12.076,0,17.692,6.506,17.692,17.758c0,7.82-2.929,12.806-9.87,16.222c-1.33,10.063-10.531,17.854-21.693,17.854
					c-6.792,0-12.859-2.885-16.871-7.412c-0.67,0.058-1.348,0.092-2.035,0.092c-12.076,0-21.561-5.723-21.561-16.975
					c0-7.574,3.391-11.307,9.561-15.807c-0.165-0.975-0.85-9.549,1.437-11.836c5.435-5.434,7.896-10.103,12.758-12.516
					c-9.541,3.43-16.313,12.051-16.313,22.146c0,0.17,0.01,0.338,0.014,0.508C8.043,157.213,2.85,164.92,2.85,173.768
					c0,13.105,11.407,23.734,25.479,23.734c0.801,0,1.591-0.039,2.373-0.104c4.674,5.271,11.745,8.639,19.659,8.639
					c13.006,0,23.728-9.08,25.278-20.809c8.089-3.979,13.604-11.896,13.604-21.002C89.243,151.115,77.835,140.488,63.763,140.488z" style="opacity:0.1;fill:#6E6E96;enable-background:new    ;"></path>
				<g>
					<path d="M27.5,177.922c0,0,13.193,2.584,13.193,15.496c0,0,3.553,21.932-10.179,37.451h31.707
						c-0.314-0.438-27.694-37.016,2.777-58.76C46.415,182.732,27.5,177.922,27.5,177.922z" style="fill:#EDE3DA;"></path>
					<path d="M62.221,232.369H27.184l2.207-2.494c13.083-14.785,9.855-36.006,9.821-36.218l-0.019-0.239
						c0-10.454-9.66-13.443-11.659-13.948c-0.266-0.059-0.404-0.094-0.404-0.094l0.659-2.926c0,0,0.154,0.029,0.432,0.099
						c1.061,0.231,4.82,0.96,10.03,0.96c6.515,0,16.314-1.163,26.003-6.701l1.616,2.522c-7.565,5.399-12.058,12.225-13.352,20.287
						c-2.75,17.127,9.487,34.419,10.891,36.334l1.75,2.387L62.221,232.369z M33.67,229.369h25.709
						c-3.809-5.886-12.265-21.023-9.824-36.228c0.942-5.869,3.401-11.129,7.339-15.719c-7.116,2.464-13.756,3.086-18.644,3.086
						c-0.734,0-1.439-0.014-2.115-0.038c3.159,2.54,6.021,6.566,6.057,12.829C42.478,195.187,45.007,214.244,33.67,229.369z" style="fill:#CCCCDE;"></path>
				</g>
				<g>
					<path d="M35.855,152.023" style="fill:#D57E58;"></path>
				</g>
				<path d="M57.09,177.887c0,0-20.02,25.848-4.633,52.982h9.764
					C62.221,230.869,41.906,202.477,57.09,177.887z" style="opacity:0.11;fill:#6E6E96;enable-background:new    ;"></path>
			</g>
		</g>
		<g style="display:none;" id="Layer_3_2_">
			<g style="display:inline;">
				<g>
					<path d="M86.412,141.209c0-11.564-10.059-20.937-22.467-20.937c-0.194,0-0.385,0.009-0.576,0.015
						c-3.917-6.135-11.102-10.246-19.318-10.246c-12.409,0-22.469,9.372-22.469,20.936c0,0.149,0.009,0.297,0.012,0.446
						c-6.785,3.603-11.365,10.397-11.365,18.197c0,11.563,10.059,20.935,22.468,20.935c0.705,0,1.403-0.033,2.092-0.095
						c4.122,4.649,10.358,7.617,17.335,7.617c11.471,0,20.925-8.011,22.293-18.351C81.549,156.221,86.412,149.246,86.412,141.209z" style="fill:#D7F7E4;"></path>
					<path d="M52.124,179.577c-6.894,0-13.391-2.749-17.949-7.567c-0.498,0.03-0.992,0.045-1.478,0.045
						c-13.216,0-23.968-10.064-23.968-22.435c0-7.767,4.328-14.996,11.357-19.075c0.247-12.173,10.902-22.004,23.964-22.004
						c8.091,0,15.716,3.9,20.112,10.232c13.116,0.11,23.75,10.132,23.75,22.436c0,8.109-4.626,15.514-12.127,19.503
						C73.938,171.521,63.913,179.577,52.124,179.577z M35.409,168.898l0.502,0.566c4.007,4.52,9.917,7.112,16.212,7.112
						c10.575,0,19.52-7.329,20.806-17.047l0.105-0.796l0.72-0.354c6.882-3.384,11.157-9.963,11.157-17.172
						c0-10.718-9.406-19.437-20.967-19.437c-0.124,0-0.247,0.005-0.37,0.009l-1.012,0.032l-0.458-0.718
						c-3.762-5.893-10.68-9.553-18.054-9.553c-11.562,0-20.969,8.719-20.969,19.436l0.029,1.339l-0.814,0.433
						c-6.519,3.461-10.568,9.926-10.568,16.872c0,10.716,9.406,19.435,20.968,19.435c0.64,0,1.299-0.03,1.959-0.089L35.409,168.898z" style="fill:#CCCCDE;"></path>
				</g>
				<path d="M63.566,119.52c-0.193,0-0.384,0.009-0.575,0.014
					c-3.141-4.918-8.383-8.534-14.573-9.775c4.898,1.229,9.023,4.208,11.558,8.175c0.165-0.004,2.416,3.886,2.583,3.886
					c10.648,0,15.601,5.739,15.601,15.659c0,6.896-2.583,11.291-8.704,14.302c-1.173,8.875-9.287,15.747-19.129,15.747
					c-5.99,0-11.34-2.543-14.877-6.525c-0.591,0.049-1.189,0.071-1.794,0.071c-10.649,0-19.013-5.048-19.013-14.968
					c0-6.682,2.99-9.973,8.432-13.938c-0.145-0.855-0.75-8.42,1.267-10.437c4.792-4.793,6.963-8.909,11.25-11.038
					c-8.414,3.025-14.385,10.627-14.385,19.536c0,0.147,0.009,0.299,0.012,0.447c-6.787,3.604-11.366,10.396-11.366,18.194
					c0,11.563,10.059,20.938,22.468,20.938c0.707,0,1.403-0.035,2.093-0.102c4.121,4.646,10.356,7.617,17.336,7.617
					c11.469,0,20.924-8.016,22.291-18.354c7.133-3.507,11.997-10.479,11.997-18.521C86.035,128.893,75.976,119.52,63.566,119.52z" style="opacity:0.1;fill:#6E6E96;enable-background:new    ;"></path>
				<g>
					<path d="M31.588,152.531c0,0,11.635,2.277,11.635,13.662c0,0,3.132,19.342-8.976,33.026h27.96
						c-0.277-0.392-24.422-32.646,2.449-51.815C48.268,156.773,31.588,152.531,31.588,152.531z" style="fill:#EDE3DA;"></path>
					<path d="M62.207,200.72h-31.29l2.207-2.494c11.477-12.972,8.648-31.607,8.619-31.794l-0.019-0.238
						c0-9.079-8.398-11.683-10.144-12.124c-0.238-0.053-0.362-0.084-0.362-0.084l0.658-2.926c0,0,0.139,0.026,0.39,0.089
						c0.935,0.203,4.231,0.841,8.802,0.841c5.724,0,14.333-1.021,22.844-5.887l1.616,2.522
						c-6.622,4.725-10.558,10.693-11.698,17.741c-2.423,14.982,8.328,30.241,9.562,31.932l1.74,2.385L62.207,200.72z M37.382,197.72
						h22c-3.444-5.403-10.65-18.624-8.514-31.832c0.807-4.988,2.849-9.479,6.096-13.425c-6.069,2.011-11.71,2.526-15.896,2.526
						c-0.463,0-0.915-0.006-1.352-0.018c2.655,2.276,4.974,5.786,5.007,11.104C44.983,167.812,47.152,184.407,37.382,197.72z" style="fill:#CCCCDE;"></path>
				</g>
				<g>
					<path d="M38.955,129.691" style="fill:#D57E58;"></path>
				</g>
				<path d="M57.682,152.5c0,0-17.654,22.793-4.085,46.721h8.611
					C62.207,199.221,44.292,174.184,57.682,152.5z" style="opacity:0.11;fill:#6E6E96;enable-background:new    ;"></path>
			</g>
			<g style="display:inline;">
				<g>
					<path d="M256.252,139.926c0-10.828-9.42-19.604-21.04-19.604c-0.183,0-0.36,0.009-0.539,0.013
						c-3.669-5.744-10.396-9.595-18.091-9.595c-11.62,0-21.041,8.777-21.041,19.604c0,0.141,0.009,0.279,0.012,0.418
						c-6.354,3.375-10.644,9.74-10.644,17.043c0,10.826,9.421,19.605,21.04,19.605c0.66,0,1.312-0.033,1.96-0.09
						c3.858,4.354,9.698,7.135,16.233,7.135c10.732,0,19.596-7.5,20.875-17.186C251.697,153.982,256.252,147.453,256.252,139.926z" style="fill:#D7F7E4;"></path>
					<path d="M224.143,175.955c-6.467,0-12.562-2.573-16.848-7.086c-0.461,0.027-0.906,0.041-1.346,0.041
						c-12.429,0-22.54-9.468-22.54-21.105c0-7.289,4.053-14.077,10.637-17.92c0.262-11.426,10.271-20.645,22.536-20.645
						c7.59,0,14.745,3.652,18.885,9.583c12.312,0.128,22.285,9.545,22.285,21.102c0,7.612-4.335,14.567-11.367,18.328
						C244.629,168.399,235.214,175.955,224.143,175.955z M208.531,165.76l0.501,0.565c3.733,4.214,9.241,6.63,15.11,6.63
						c9.857,0,18.192-6.828,19.388-15.882l0.105-0.795l0.72-0.354c6.413-3.156,10.396-9.286,10.396-15.998
						c0-9.982-8.766-18.104-19.54-18.104l-1.35,0.031l-0.453-0.71c-3.508-5.491-9.955-8.902-16.827-8.902
						c-10.775,0-19.541,8.121-19.541,18.104l0.031,1.31l-0.815,0.433c-6.074,3.227-9.848,9.25-9.848,15.719
						c0,9.983,8.766,18.105,19.54,18.105c0.584,0,1.182-0.027,1.829-0.084L208.531,165.76z" style="fill:#CCCCDE;"></path>
				</g>
				<path d="M234.857,119.615c-0.188,0-0.358,0.008-0.539,0.012
					c-2.94-4.606-7.854-7.992-13.646-9.154c4.586,1.15,8.449,3.94,10.822,7.655c0.154-0.004,2.263,3.639,2.419,3.639
					c9.971,0,14.608,5.374,14.608,14.665c0,6.459-2.42,10.573-8.148,13.396c-1.1,8.312-8.698,14.74-17.914,14.74
					c-5.607,0-10.619-2.381-13.934-6.115c-0.562,0.047-1.112,0.07-1.688,0.07c-9.977,0-17.806-4.729-17.806-14.018
					c0-6.26,2.8-9.342,7.896-13.058c-0.141-0.81-0.701-7.885,1.188-9.771c4.479-4.488,6.521-8.343,10.528-10.337
					c-7.879,2.833-13.471,9.951-13.471,18.291c0,0.141,0.006,0.274,0.012,0.418c-6.354,3.373-10.646,9.736-10.646,17.041
					c0,10.824,9.421,19.604,21.041,19.604c0.661,0,1.313-0.028,1.959-0.09c3.858,4.354,9.699,7.14,16.233,7.14
					c10.74,0,19.595-7.5,20.875-17.188c6.681-3.285,11.229-9.813,11.229-17.345C255.898,128.393,246.479,119.615,234.857,119.615z" style="opacity:0.1;fill:#6E6E96;enable-background:new    ;"></path>
				<g>
					<path d="M204.912,150.527c0,0,10.896,2.133,10.896,12.797c0,0,2.934,18.109-8.406,30.928h26.184
						c-0.26-0.359-22.87-30.566,2.294-48.521C220.531,154.502,204.912,150.527,204.912,150.527z" style="fill:#EDE3DA;"></path>
					<path d="M233.586,195.752h-29.514l2.207-2.494c10.718-12.115,8.076-29.521,8.049-29.695l-0.02-0.238
						c0-8.431-7.801-10.852-9.426-11.264c-0.224-0.05-0.341-0.08-0.341-0.08l0.658-2.925c0,0,0.132,0.024,0.369,0.084
						c0.876,0.19,3.956,0.786,8.226,0.786c5.348,0,13.39-0.954,21.341-5.498l1.615,2.523c-6.193,4.419-9.868,10.003-10.923,16.596
						c-2.249,14.062,7.798,28.227,8.951,29.796l1.755,2.388L233.586,195.752z M210.525,192.752h20.233
						c-3.271-5.143-9.863-17.358-7.893-29.679c0.736-4.604,2.59-8.756,5.533-12.416c-5.576,1.803-10.748,2.269-14.604,2.269
						c-0.344,0-0.681-0.004-1.01-0.011c2.418,2.149,4.49,5.412,4.523,10.291C217.557,164.869,219.559,180.297,210.525,192.752z" style="fill:#CCCCDE;"></path>
				</g>
				<g>
					<path d="M211.812,129.143" style="fill:#D57E58;"></path>
				</g>
				<path d="M229.348,150.5c0,0-16.531,21.344-3.824,43.752h8.063
					C233.585,194.252,216.809,170.805,229.348,150.5z" style="opacity:0.11;fill:#6E6E96;enable-background:new    ;"></path>
			</g>
			<g style="display:inline;">
				<g>
					<path d="M219.55,141.686c0-16.62-14.461-30.094-32.299-30.094c-0.278,0-0.554,0.012-0.828,0.019
						c-5.632-8.817-15.959-14.729-27.771-14.729c-17.838,0-32.301,13.475-32.301,30.096c0,0.215,0.014,0.428,0.018,0.646
						c-9.755,5.183-16.339,14.944-16.339,26.155c0,16.621,14.462,30.099,32.3,30.099c1.014,0,2.018-0.049,3.008-0.14
						c5.926,6.688,14.889,10.951,24.921,10.951c16.489,0,30.081-11.515,32.048-26.379
						C212.559,163.268,219.55,153.238,219.55,141.686z" style="fill:#D7F7E4;"></path>
					<path d="M170.259,196.189c-9.839,0-19.101-3.962-25.536-10.896c-0.805,0.057-1.606,0.085-2.393,0.085
						c-18.637,0-33.8-14.175-33.8-31.599c0-11.042,6.229-21.318,16.322-27.034c0.134-17.315,15.246-31.364,33.8-31.364
						c11.535,0,22.398,5.615,28.566,14.71c0.011,0,0.021,0,0.032,0c18.637,0,33.799,14.173,33.799,31.594
						c0,11.516-6.635,22.026-17.371,27.612C201.221,184.684,187.003,196.189,170.259,196.189z M145.957,182.175l0.504,0.568
						c5.881,6.639,14.556,10.446,23.798,10.446c15.531,0,28.669-10.78,30.561-25.075l0.105-0.796l0.72-0.354
						c10.119-4.978,16.405-14.664,16.405-25.279c0-15.767-13.816-28.594-30.799-28.594c-0.179,0-0.355,0.006-0.532,0.011
						l-1.104,0.028l-0.455-0.713c-5.531-8.658-15.688-14.037-26.507-14.037c-16.983,0-30.801,12.828-30.801,28.596
						c0,0.105,0.004,0.209,0.008,0.315l0.026,1.224l-0.812,0.432c-9.587,5.094-15.542,14.608-15.542,24.831
						c0,15.77,13.817,28.599,30.8,28.599c0.939,0,1.906-0.045,2.871-0.134L145.957,182.175z" style="fill:#CCCCDE;"></path>
				</g>
				<path d="M186.708,110.507c-0.276,0-0.552,0.012-0.827,0.019
					c-4.516-7.071-12.051-12.269-20.949-14.052c7.041,1.766,12.971,6.049,16.614,11.751c0.237-0.006,3.474,5.586,3.713,5.586
					c15.308,0,22.429,8.248,22.429,22.511c0,9.914-3.715,16.231-12.513,20.562c-1.687,12.754-13.353,22.635-27.5,22.635
					c-8.61,0-16.302-3.655-21.387-9.395c-0.851,0.07-1.71,0.113-2.58,0.113c-15.31,0-27.332-7.254-27.332-21.517
					c0-9.604,4.298-14.336,12.12-20.038c-0.209-1.236-1.077-12.104,1.82-15.002c6.89-6.89,10.011-12.808,16.174-15.868
					c-12.096,4.349-20.68,15.277-20.68,28.08c0,0.215,0.012,0.428,0.018,0.646c-9.756,5.178-16.34,14.947-16.34,26.156
					c0,16.621,14.461,30.098,32.3,30.098c1.017,0,2.017-0.049,3.008-0.137c5.925,6.688,14.89,10.949,24.922,10.949
					c16.487,0,30.078-11.52,32.046-26.379c10.254-5.043,17.244-15.07,17.244-26.623C219.008,123.98,204.547,110.507,186.708,110.507
					z" style="opacity:0.1;fill:#6E6E96;enable-background:new    ;"></path>
				<g>
					<path d="M140.736,157.963c0,0,16.727,3.271,16.727,19.643c0,0,4.504,27.812-12.904,47.48h40.195
						c-0.398-0.557-35.107-46.922,3.521-74.484C164.716,164.062,140.736,157.963,140.736,157.963z" style="fill:#EDE3DA;"></path>
					<path d="M184.754,226.586h-43.526l2.208-2.494c16.716-18.887,12.59-45.976,12.547-46.247l-0.02-0.239
						c0-13.557-12.515-17.421-15.086-18.07c-0.336-0.074-0.511-0.118-0.511-0.118l0.658-2.926c0,0,0.192,0.037,0.539,0.123
						c1.35,0.295,6.156,1.228,12.811,1.228c8.306,0,20.8-1.482,33.157-8.543l1.615,2.523c-9.68,6.907-15.429,15.645-17.089,25.972
						c-3.514,21.857,12.085,43.92,13.876,46.363l1.748,2.387L184.754,226.586z M147.749,223.586h34.146
						c-4.573-6.928-15.965-26.577-12.799-46.268c1.265-7.866,4.703-14.861,10.256-20.895c-9.523,3.547-18.48,4.418-24.978,4.418
						c-1.403,0-2.726-0.039-3.956-0.104c4.314,3.1,8.506,8.286,8.545,16.75C159.3,179.695,162.653,204.362,147.749,223.586z" style="fill:#CCCCDE;"></path>
				</g>
				<g>
					<path d="M151.329,125.131" style="fill:#D57E58;"></path>
				</g>
				<path d="M178.249,157.918c0,0-25.378,32.766-5.873,67.164h12.378
					C184.754,225.082,159,189.09,178.249,157.918z" style="opacity:0.11;fill:#6E6E96;enable-background:new    ;"></path>
			</g>
			<g style="display:inline;">
				<g>
					<path d="M147.713,142.797c0-13.645-11.873-24.707-26.518-24.707c-0.229,0-0.453,0.01-0.68,0.016
						c-4.623-7.239-13.102-12.092-22.8-12.092c-14.644,0-26.518,11.063-26.518,24.707c0,0.178,0.012,0.354,0.015,0.528
						c-8.01,4.252-13.414,12.271-13.414,21.478c0,13.646,11.872,24.707,26.518,24.707c0.832,0,1.655-0.041,2.469-0.104
						c4.864,5.48,12.224,8.98,20.46,8.98c13.537,0,24.694-9.451,26.31-21.648C141.973,160.516,147.713,152.283,147.713,142.797z" style="fill:#D7F7E4;"></path>
					<path d="M107.245,187.811c-8.108,0-15.747-3.247-21.08-8.935c-0.657,0.039-1.267,0.058-1.849,0.058
						c-15.449,0-28.018-11.757-28.018-26.207c0-9.119,5.111-17.604,13.401-22.355c0.2-14.291,12.691-25.857,28.016-25.857
						c9.51,0,18.469,4.606,23.595,12.076c15.396,0.059,27.903,11.793,27.903,26.207c0,9.51-5.454,18.196-14.288,22.851
						C132.825,178.338,121.074,187.811,107.245,187.811z M87.413,175.777l0.495,0.557c4.78,5.387,11.829,8.477,19.338,8.477
						c12.615,0,23.286-8.747,24.822-20.346l0.105-0.794l0.719-0.354c8.217-4.047,13.321-11.91,13.321-20.52
						c0-12.797-11.223-23.207-25.018-23.207c-0.144,0-0.286,0.005-0.427,0.009l-1.061,0.028l-0.456-0.714
						c-4.491-7.031-12.743-11.399-21.536-11.399c-13.795,0-25.018,10.411-25.018,23.207l0.03,1.422l-0.812,0.432
						c-7.783,4.131-12.617,11.854-12.617,20.152c0,12.797,11.223,23.207,25.018,23.207c0.716,0,1.486-0.032,2.354-0.099
						L87.413,175.777z" style="fill:#CCCCDE;"></path>
				</g>
				<path d="M120.75,117.202c-0.229,0-0.452,0.009-0.68,0.015
					c-3.707-5.805-9.894-10.072-17.198-11.537c5.78,1.45,10.648,4.966,13.642,9.647c0.193-0.005,2.85,4.586,3.047,4.586
					c12.567,0,18.414,6.771,18.414,18.479c0,8.139-3.05,13.325-10.271,16.881c-1.384,10.474-10.961,18.584-22.576,18.584
					c-7.069,0-13.384-3.004-17.559-7.715c-0.698,0.062-1.404,0.096-2.118,0.096c-12.568,0-22.438-5.957-22.438-17.663
					c0-7.886,3.528-11.771,9.949-16.451c-0.171-1.017-0.884-9.938,1.496-12.316c5.655-5.657,8.218-10.515,13.277-13.028
					c-9.93,3.571-16.978,12.542-16.978,23.054c0,0.176,0.01,0.352,0.015,0.527c-8.011,4.25-13.415,12.271-13.415,21.477
					c0,13.645,11.873,24.707,26.518,24.707c0.834,0,1.655-0.041,2.469-0.109c4.864,5.488,12.224,8.988,20.461,8.988
					c13.536,0,24.693-9.451,26.31-21.656c8.418-4.141,14.158-12.371,14.158-21.854C147.268,128.264,135.395,117.202,120.75,117.202z" style="opacity:0.1;fill:#6E6E96;enable-background:new    ;"></path>
				<g>
					<path d="M83.009,156.16c0,0,13.731,2.688,13.731,16.129c0,0,3.697,22.822-10.595,38.977h33
						c-0.328-0.455-28.824-38.52,2.891-61.151C102.695,161.168,83.009,156.16,83.009,156.16z" style="fill:#EDE3DA;"></path>
					<path d="M119.145,212.766h-36.33l2.207-2.494c13.663-15.443,10.274-37.521,10.238-37.742l-0.02-0.24
						c0-10.927-10.095-14.05-12.179-14.577c-0.277-0.062-0.422-0.098-0.422-0.098l0.658-2.926c0,0,0.161,0.03,0.451,0.103
						c1.106,0.241,5.025,1.001,10.455,1.001c6.787,0,16.995-1.211,27.089-6.98l1.615,2.523
						c-7.892,5.633-12.577,12.754-13.925,21.168c-2.861,17.866,9.887,35.854,11.351,37.846l1.753,2.388L119.145,212.766z
						 M89.307,209.766h26.991c-3.932-6.046-12.823-21.843-10.277-37.737c0.989-6.177,3.596-11.704,7.778-16.518
						c-7.478,2.623-14.466,3.281-19.596,3.281c-0.833,0-1.63-0.017-2.389-0.046c3.334,2.627,6.39,6.832,6.426,13.425
						C98.533,174.106,101.185,194.014,89.307,209.766z" style="fill:#CCCCDE;"></path>
				</g>
				<g>
					<path d="M91.705,129.207" style="fill:#D57E58;"></path>
				</g>
				<path d="M113.805,156.125c0,0-20.835,26.898-4.821,55.141h10.163
					C119.146,211.266,98.002,181.715,113.805,156.125z" style="opacity:0.11;fill:#6E6E96;enable-background:new    ;"></path>
			</g>
			<g style="display:inline;">
				<g>
					<path d="M254.936,166.934c0-12.344-10.74-22.35-23.982-22.35c-0.202,0-0.406,0.008-0.61,0.014
						c-4.188-6.549-11.854-10.938-20.625-10.938c-13.247,0-23.979,10.008-23.979,22.35c0,0.162,0.012,0.318,0.014,0.479
						c-7.244,3.854-12.135,11.104-12.135,19.438c0,12.353,10.734,22.354,23.982,22.354c0.756,0,1.494-0.039,2.229-0.104
						c4.398,4.974,11.062,8.14,18.513,8.14c12.245,0,22.339-8.559,23.8-19.597C249.742,182.961,254.936,175.516,254.936,166.934z" style="fill:#D7F7E4;"></path>
					<path d="M218.341,207.816c-7.358,0-14.285-2.938-19.128-8.088c-0.556,0.035-1.089,0.053-1.613,0.053
						c-14.051,0-25.482-10.701-25.482-23.854c0-8.271,4.622-15.975,12.125-20.314c0.227-12.969,11.567-23.452,25.476-23.452
						c8.617,0,16.744,4.166,21.42,10.925c13.966,0.093,25.298,10.756,25.298,23.849c0,8.626-4.932,16.516-12.926,20.77
						C241.568,199.225,230.896,207.816,218.341,207.816z M200.45,196.615l0.502,0.567c4.29,4.852,10.628,7.634,17.389,7.634
						c11.34,0,20.933-7.864,22.312-18.294l0.105-0.793l0.717-0.354c7.377-3.647,11.96-10.714,11.96-18.441
						c0-11.496-10.086-20.85-22.482-20.85c-0.146,0-0.294,0.005-0.441,0.009l-0.975,0.028l-0.458-0.715
						c-4.042-6.32-11.461-10.246-19.361-10.246c-12.396,0-22.479,9.354-22.479,20.85l0.024,1.375l-0.806,0.429
						c-6.995,3.722-11.34,10.662-11.34,18.113c0,11.499,10.086,20.854,22.482,20.854c0.665,0,1.351-0.032,2.096-0.099
						L200.45,196.615z" style="fill:#CCCCDE;"></path>
				</g>
				<path d="M230.544,143.777c-0.206,0-0.409,0.012-0.614,0.016
					c-3.354-5.25-8.949-9.111-15.558-10.438c5.229,1.312,9.633,4.492,12.339,8.729c0.176-0.004,2.579,4.148,2.757,4.148
					c11.368,0,16.655,6.123,16.655,16.719c0,7.361-2.757,12.055-9.291,15.27c-1.252,9.473-9.915,16.814-20.423,16.814
					c-6.396,0-12.106-2.721-15.884-6.98c-0.631,0.055-1.271,0.086-1.916,0.086c-11.368,0-20.299-5.389-20.299-15.979
					c0-7.135,3.188-10.646,9.002-14.885c-0.156-0.918-0.81-8.986,1.353-11.142c5.116-5.116,7.435-9.519,12.011-11.784
					c-8.98,3.229-15.357,11.346-15.357,20.854c0,0.158,0.019,0.316,0.021,0.479c-7.246,3.847-12.138,11.105-12.138,19.428
					c0,12.35,10.733,22.354,23.983,22.354c0.754,0,1.496-0.032,2.23-0.104c4.4,4.973,11.061,8.139,18.509,8.139
					c12.245,0,22.339-8.559,23.8-19.598c7.614-3.736,12.812-11.188,12.812-19.77C254.531,153.785,243.793,143.777,230.544,143.777z" style="opacity:0.1;fill:#6E6E96;enable-background:new    ;"></path>
				<g>
					<path d="M196.402,179.021c0,0,12.422,2.432,12.422,14.588c0,0,3.345,20.646-9.584,35.26h29.853
						c-0.296-0.41-26.073-34.848,2.615-55.318C214.212,183.553,196.402,179.021,196.402,179.021z" style="fill:#EDE3DA;"></path>
					<path d="M229.093,230.369H195.91l2.207-2.494c12.315-13.921,9.259-33.826,9.227-34.025l-0.02-0.24
						c0-9.772-9.035-12.571-10.907-13.045c-0.253-0.056-0.385-0.09-0.385-0.09l0.658-2.925c0,0,0.147,0.028,0.413,0.094
						c1,0.218,4.531,0.901,9.426,0.901c6.122,0,15.33-1.092,24.435-6.296l1.615,2.522c-7.106,5.071-11.325,11.482-12.537,19.054
						c-2.579,16.108,8.921,32.333,10.241,34.131l1.754,2.388L229.093,230.369z M202.386,227.369h23.868
						c-3.634-5.641-11.454-19.78-9.175-34.018c0.872-5.444,3.125-10.332,6.725-14.611c-6.594,2.236-12.737,2.805-17.274,2.805
						c-0.6,0-1.18-0.009-1.737-0.026c2.908,2.41,5.497,6.182,5.532,11.973C210.597,195.304,212.946,213.139,202.386,227.369z" style="fill:#CCCCDE;"></path>
				</g>
				<g>
					<path d="M204.27,154.641" style="fill:#D57E58;"></path>
				</g>
				<path d="M224.262,178.988c0,0-18.847,24.334-4.361,49.881h9.192
					C229.093,228.869,209.966,202.139,224.262,178.988z" style="opacity:0.11;fill:#6E6E96;enable-background:new    ;"></path>
			</g>
			<g style="display:inline;">
				<g>
					<path d="M90.67,165.082c0-13.111-11.408-23.738-25.479-23.738c-0.22,0-0.436,0.008-0.653,0.014
						c-4.443-6.955-12.589-11.607-21.907-11.607c-14.071,0-25.48,10.629-25.48,23.73c0,0.17,0.011,0.336,0.015,0.507
						c-7.695,4.086-12.889,11.795-12.889,20.646c0,13.104,11.407,23.731,25.479,23.731c0.8,0,1.59-0.041,2.372-0.104
						c4.674,5.271,11.745,8.639,19.659,8.639c13.007,0,23.729-9.082,25.279-20.809C85.155,182.105,90.67,174.197,90.67,165.082z" style="fill:#D7F7E4;"></path>
					<path d="M51.787,208.398c-7.796,0-15.142-3.122-20.277-8.591c-0.619,0.038-1.198,0.057-1.754,0.057
						c-14.876,0-26.979-11.318-26.979-25.231c0-8.776,4.911-16.942,12.877-21.523c0.213-13.741,12.233-24.859,26.977-24.859
						c9.15,0,17.767,4.422,22.703,11.594c14.81,0.073,26.836,11.367,26.836,25.238c0,9.149-5.242,17.508-13.734,21.993
						C76.404,199.287,65.096,208.398,51.787,208.398z M32.753,196.704l0.497,0.561c4.583,5.169,11.339,8.134,18.537,8.134
						c12.094,0,22.322-8.386,23.792-19.505l0.105-0.795l0.719-0.354c7.875-3.879,12.767-11.413,12.767-19.662
						c0-12.263-10.757-22.238-23.979-22.238c-0.161,0-0.32,0.005-0.479,0.01l-0.981,0.026l-0.457-0.715
						c-4.301-6.732-12.21-10.915-20.643-10.915c-13.223,0-23.98,9.973-23.98,22.23l0.036,1.397l-0.817,0.435
						c-7.459,3.96-12.093,11.363-12.093,19.32c0,12.259,10.757,22.231,23.979,22.231c0.689,0,1.426-0.032,2.25-0.1L32.753,196.704z" style="fill:#CCCCDE;"></path>
				</g>
				<path d="M64.763,140.488c-0.219,0-0.435,0.01-0.652,0.016
					c-3.562-5.578-9.506-9.678-16.525-11.086c5.553,1.393,10.231,4.771,13.106,9.27c0.186-0.004,2.739,4.406,2.928,4.406
					c12.076,0,17.692,6.506,17.692,17.758c0,7.82-2.929,12.806-9.87,16.222c-1.33,10.063-10.531,17.854-21.693,17.854
					c-6.792,0-12.859-2.885-16.871-7.412c-0.67,0.058-1.348,0.092-2.035,0.092c-12.076,0-21.561-5.723-21.561-16.975
					c0-7.574,3.391-11.307,9.561-15.807c-0.165-0.975-0.85-9.549,1.437-11.836c5.435-5.434,7.896-10.103,12.758-12.516
					c-9.541,3.43-16.313,12.051-16.313,22.146c0,0.17,0.01,0.338,0.014,0.508c-7.696,4.085-12.889,11.794-12.889,20.64
					c0,13.107,11.407,23.736,25.479,23.736c0.801,0,1.591-0.039,2.373-0.105c4.674,5.273,11.745,8.645,19.659,8.645
					c13.006,0,23.728-9.08,25.278-20.812c8.089-3.979,13.604-11.892,13.604-21.002C90.243,151.115,78.835,140.488,64.763,140.488z" style="opacity:0.1;fill:#6E6E96;enable-background:new    ;"></path>
				<g>
					<path d="M28.5,177.922c0,0,13.193,2.584,13.193,15.496c0,0,3.553,21.932-10.179,37.451h31.707
						c-0.314-0.438-27.694-37.016,2.777-58.76C47.415,182.732,28.5,177.922,28.5,177.922z" style="fill:#EDE3DA;"></path>
					<path d="M63.221,232.369H28.184l2.207-2.494c13.083-14.785,9.855-36.006,9.821-36.218l-0.019-0.239
						c0-10.454-9.66-13.443-11.659-13.948c-0.266-0.059-0.404-0.094-0.404-0.094l0.659-2.926c0,0,0.154,0.029,0.432,0.099
						c1.061,0.231,4.82,0.96,10.03,0.96c6.515,0,16.314-1.163,26.003-6.701l1.616,2.522c-7.565,5.399-12.058,12.225-13.352,20.287
						c-2.75,17.127,9.487,34.419,10.891,36.334l1.75,2.387L63.221,232.369z M34.67,229.369h25.709
						c-3.809-5.886-12.265-21.023-9.824-36.228c0.942-5.869,3.401-11.129,7.339-15.719c-7.116,2.464-13.756,3.086-18.644,3.086
						c-0.734,0-1.439-0.014-2.115-0.038c3.159,2.54,6.021,6.566,6.057,12.829C43.478,195.187,46.007,214.244,34.67,229.369z" style="fill:#CCCCDE;"></path>
				</g>
				<g>
					<path d="M36.855,152.023" style="fill:#D57E58;"></path>
				</g>
				<path d="M58.09,177.887c0,0-20.02,25.848-4.633,52.982h9.764
					C63.221,230.869,42.906,202.477,58.09,177.887z" style="opacity:0.11;fill:#6E6E96;enable-background:new    ;"></path>
			</g>
		</g>
	</g>
</g>
<g id="Layer_2">
	<g>
		<path d="M92.924,101.509c0-17.347,12.052-31.411,26.921-31.411c14.864,0,26.914,14.064,26.914,31.411" style="fill:#DDA0E8;"></path>
		<path d="M148.259,101.509h-3c0-16.493-11.4-29.911-25.414-29.911c-14.018,0-25.421,13.418-25.421,29.911h-3
			c0-18.147,12.75-32.911,28.421-32.911C135.513,68.598,148.259,83.362,148.259,101.509z" style="fill:#6E6E96;"></path>
	</g>
	<path d="M98.688,95.734c0-11.449,7.407-20.729,16.543-20.729c9.141,0,16.544,9.28,16.544,20.729" style="fill:#F6C2FF;"></path>
	<g>
		<path d="M160.468,132.158c0-22.436-18.188-40.625-40.625-40.625c-22.439,0-40.627,18.19-40.627,40.625
			c0,12.699,5.827,24.035,14.952,31.484c2.86,14.959,13.661,26.092,26.558,26.092c13.413,0,24.558-12.038,26.858-27.909
			C155.509,154.414,160.468,143.868,160.468,132.158z" style="fill:#DDA0E8;"></path>
		<path d="M120.726,191.234c-13.281,0-24.701-10.982-27.926-26.776c-9.594-8.036-15.084-19.777-15.084-32.3
			c0-23.228,18.898-42.125,42.127-42.125c23.228,0,42.125,18.897,42.125,42.125c0,11.436-4.724,22.484-12.978,30.401
			C146.372,179.207,134.555,191.234,120.726,191.234z M119.843,93.033c-21.575,0-39.127,17.551-39.127,39.125
			c0,11.799,5.249,22.852,14.401,30.322l0.422,0.345l0.102,0.536c2.8,14.645,13.115,24.873,25.085,24.873
			c12.467,0,23.138-11.197,25.374-26.624l0.075-0.521l0.385-0.359c8.002-7.482,12.408-17.63,12.408-28.571
			C158.968,110.584,141.416,93.033,119.843,93.033z" style="fill:#6E6E96;"></path>
	</g>
	<path d="M149.532,127.771c0-17.485-14.234-31.662-31.791-31.662c-17.554,0-31.789,14.175-31.789,31.662
		c0,9.898,4.563,18.727,11.703,24.533c2.237,11.663,10.688,20.336,20.78,20.336c10.497,0,19.215-9.381,21.015-21.753
		C145.65,145.113,149.532,136.898,149.532,127.771z" style="fill:#F6C2FF;"></path>
	<path d="M127.086,142.32c0,0,14.096,10.511,9.882,16.992c0,0,7.33-4.453,4.214-10.162
		C137.756,142.88,127.086,142.32,127.086,142.32z" style="fill:#DDA0E8;"></path>
	<ellipse ry="10.876" rx="8.143" cy="122.24" cx="104.906" style="fill:#F9D4FF;"></ellipse>
	<g>
		<path d="M169.913,182.768c-0.828,0-1.5-0.672-1.5-1.5v-14.953l-13.862-13.859
			c-0.586-0.586-0.586-1.535,0-2.121s1.535-0.586,2.121,0l14.302,14.299c0.281,0.281,0.439,0.663,0.439,1.061v15.574
			C171.413,182.096,170.741,182.768,169.913,182.768z" style="fill:#6E6E96;"></path>
		<path d="M185.791,150.411c-0.514,0-1.015-0.265-1.294-0.74l-9.412-16.013h-14.617
			c-0.828,0-1.5-0.672-1.5-1.5s0.672-1.5,1.5-1.5h15.476c0.531,0,1.023,0.281,1.293,0.74l9.847,16.753
			c0.42,0.714,0.182,1.633-0.533,2.053C186.312,150.345,186.05,150.411,185.791,150.411z" style="fill:#6E6E96;"></path>
		<path d="M179.691,111.094c-0.384,0-0.768-0.146-1.061-0.439l-12.074-12.076l-12.033,11.854
			c-0.59,0.583-1.541,0.575-2.121-0.016c-0.582-0.59-0.574-1.54,0.016-2.121l13.094-12.899c0.587-0.579,1.53-0.575,2.113,0.008
			l13.127,13.129c0.586,0.586,0.586,1.536,0,2.121C180.459,110.947,180.075,111.094,179.691,111.094z" style="fill:#6E6E96;"></path>
	</g>
	<g>
		<path d="M68.778,182.768c-0.829,0-1.5-0.672-1.5-1.5v-15.574c0-0.397,0.158-0.779,0.439-1.061
			l14.301-14.299c0.586-0.586,1.536-0.586,2.121,0c0.586,0.586,0.586,1.535,0,2.121l-13.862,13.859v14.953
			C70.278,182.096,69.606,182.768,68.778,182.768z" style="fill:#6E6E96;"></path>
		<path d="M52.901,150.411c-0.258,0-0.52-0.066-0.759-0.207c-0.714-0.42-0.953-1.339-0.533-2.053
			l9.846-16.753c0.269-0.459,0.761-0.74,1.293-0.74h15.477c0.829,0,1.5,0.672,1.5,1.5s-0.671,1.5-1.5,1.5H63.607l-9.412,16.013
			C53.917,150.146,53.416,150.411,52.901,150.411z" style="fill:#6E6E96;"></path>
		<path d="M59,111.094c-0.384,0-0.768-0.146-1.061-0.439c-0.586-0.585-0.586-1.535,0-2.121l13.128-13.129
			c0.583-0.583,1.527-0.586,2.113-0.008l13.093,12.899c0.59,0.581,0.597,1.531,0.016,2.121c-0.581,0.59-1.531,0.597-2.121,0.016
			L72.136,98.578l-12.075,12.076C59.768,110.947,59.384,111.094,59,111.094z" style="fill:#6E6E96;"></path>
	</g>
	<path d="M135.007,77.058c-0.384,0-0.768-0.146-1.061-0.439c-0.586-0.586-0.586-1.536,0-2.121l9.63-9.629
		c0.586-0.586,1.535-0.586,2.121,0s0.586,1.536,0,2.121l-9.63,9.629C135.774,76.912,135.391,77.058,135.007,77.058z" style="fill:#6E6E96;"></path>
	<path d="M104.679,77.058c-0.384,0-0.768-0.146-1.061-0.439l-10.01-10.011c-0.586-0.586-0.586-1.536,0-2.121
		c0.586-0.586,1.535-0.586,2.121,0l10.01,10.011c0.586,0.586,0.586,1.536,0,2.121C105.447,76.912,105.063,77.058,104.679,77.058z" style="fill:#6E6E96;"></path>
</g>
</svg>
