<?xml version="1.0" standalone="no"?><!DOCTYPE svg PUBLIC "-//W3C//DTD SVG 1.1//EN" "http://www.w3.org/Graphics/SVG/1.1/DTD/svg11.dtd"><svg height="250" node-id="1" sillyvg="true" template-height="250" template-width="256" version="1.1" viewBox="0 0 256 250" width="256" xmlns="http://www.w3.org/2000/svg" xmlns:xlink="http://www.w3.org/1999/xlink"><defs node-id="310"></defs><g node-id="1049"><path d="M 256.00 126.36 C 256.00 87.75 224.62 56.44 185.92 56.44 C 185.31 56.44 184.72 56.47 184.12 56.49 C 171.90 36.00 149.49 22.27 123.86 22.27 C 85.15 22.27 53.78 53.57 53.78 92.19 C 53.78 92.69 53.80 93.18 53.82 93.68 C 32.65 105.71 18.36 128.41 18.36 154.46 C 18.36 193.07 49.74 224.37 88.45 224.37 C 90.65 224.37 92.82 224.25 94.97 224.06 C 107.83 239.59 127.28 249.50 149.05 249.50 C 184.83 249.50 214.32 222.75 218.58 188.21 C 240.83 176.50 256.00 153.20 256.00 126.36 Z" fill="#d6f0ff" fill-rule="nonzero" group-id="1" node-id="313" stroke="none" target-height="227.23" target-width="237.64" target-x="18.36" target-y="22.27"></path></g><g node-id="1050"><path d="M 243.27 95.06 C 241.36 95.06 239.54 93.96 238.71 92.10 C 229.68 71.89 213.64 55.60 193.55 46.24 C 178.47 39.22 161.81 36.40 145.36 38.09 C 142.62 38.38 140.16 36.38 139.88 33.63 C 139.59 30.88 141.59 28.43 144.34 28.14 C 162.58 26.27 181.06 29.39 197.77 37.18 C 220.05 47.56 237.83 65.62 247.84 88.03 C 248.96 90.55 247.83 93.50 245.31 94.63 C 244.65 94.92 243.96 95.06 243.27 95.06 Z" fill="#f59fb3" fill-opacity="0.48" fill-rule="nonzero" group-id="2" node-id="317" stroke="none" target-height="68.78999" target-width="109.37001" target-x="139.59" target-y="26.27"></path><path d="M 244.60 130.69 C 241.95 130.69 239.73 128.59 239.61 125.91 C 238.16 94.18 219.38 66.13 190.61 52.73 C 157.49 37.30 118.34 44.71 93.18 71.17 C 91.28 73.17 88.11 73.25 86.11 71.34 C 84.11 69.44 84.03 66.27 85.93 64.27 C 114.06 34.70 157.82 26.42 194.84 43.66 C 226.99 58.65 247.98 89.99 249.60 125.46 C 249.73 128.22 247.59 130.56 244.84 130.68 C 244.76 130.68 244.68 130.69 244.60 130.69 Z" fill="#ffff75" fill-opacity="0.48" fill-rule="nonzero" group-id="2" node-id="319" stroke="none" target-height="104.270004" target-width="165.7" target-x="84.03" target-y="26.42"></path><path d="M 236.31 144.10 C 236.11 144.10 235.92 144.09 235.72 144.07 C 232.98 143.75 231.01 141.27 231.33 138.52 C 235.19 105.37 217.43 73.62 187.16 59.52 C 164.60 49.00 138.17 50.04 116.45 62.28 C 114.05 63.64 111.00 62.79 109.64 60.38 C 108.28 57.98 109.14 54.93 111.54 53.57 C 136.06 39.75 165.90 38.58 191.38 50.45 C 225.57 66.38 245.62 102.24 241.27 139.68 C 240.97 142.22 238.81 144.10 236.31 144.10 Z" fill="#afeb75" fill-opacity="0.48" fill-rule="nonzero" group-id="2" node-id="321" stroke="none" target-height="105.520004" target-width="137.34" target-x="108.28" target-y="38.58"></path><path d="M 224.10 107.44 C 222.10 107.44 220.22 106.23 219.45 104.26 C 212.89 87.49 200.30 74.07 183.97 66.46 C 152.79 51.93 115.10 62.64 96.29 91.37 C 94.78 93.67 91.68 94.32 89.37 92.81 C 87.06 91.30 86.41 88.20 87.92 85.89 C 98.31 70.02 114.12 58.37 132.43 53.07 C 150.92 47.72 170.73 49.26 188.19 57.40 C 206.86 66.09 221.27 81.44 228.76 100.62 C 229.76 103.19 228.49 106.09 225.92 107.09 C 225.32 107.33 224.71 107.44 224.10 107.44 Z" fill="#75d5eb" fill-opacity="0.48" fill-rule="nonzero" group-id="2" node-id="323" stroke="none" target-height="59.72" target-width="143.34999" target-x="86.41" target-y="47.72"></path></g><g node-id="1051"><path d="M 28.34 82.68 L 131.53 82.68 L 131.53 214.44 L 28.34 214.44 Z" fill="#ffffff" fill-rule="nonzero" group-id="3" node-id="327" stroke="none" target-height="131.76001" target-width="103.19" target-x="28.34" target-y="82.68"></path><g node-id="1057"><g node-id="1107"><path d="M 28.34 82.68 L 166.27 82.68 L 166.27 216.88 L 28.34 216.88 Z" fill="#ffffff" fill-opacity="0.33" fill-rule="nonzero" group-id="3,9,59" node-id="333" stroke="none" target-height="134.20001" target-width="137.93001" target-x="28.34" target-y="82.68"></path><path d="M 166.27 218.38 L 28.34 218.38 C 27.52 218.38 26.84 217.71 26.84 216.88 L 26.84 82.68 C 26.84 81.85 27.52 81.18 28.34 81.18 L 166.27 81.18 C 167.10 81.18 167.77 81.85 167.77 82.68 L 167.77 216.88 C 167.77 217.71 167.10 218.38 166.27 218.38 Z M 29.84 215.38 L 164.77 215.38 L 164.77 84.18 L 29.84 84.18 L 29.84 215.38 Z" fill="#6e6e96" fill-opacity="0.33" fill-rule="nonzero" group-id="3,9,59" node-id="335" stroke="none" target-height="137.20001" target-width="140.93001" target-x="26.84" target-y="81.18"></path></g><g node-id="1108"><path d="M 120.53 128.76 L 135.38 128.76 L 135.38 151.82 L 120.53 151.82 Z" fill="#bddfff" fill-opacity="0.33" fill-rule="nonzero" group-id="3,9,60" node-id="340" stroke="none" target-height="23.060013" target-width="14.850006" target-x="120.53" target-y="128.76"></path><path d="M 135.38 153.32 L 120.53 153.32 C 119.70 153.32 119.03 152.65 119.03 151.82 L 119.03 128.76 C 119.03 127.93 119.70 127.26 120.53 127.26 L 135.38 127.26 C 136.21 127.26 136.88 127.93 136.88 128.76 L 136.88 151.82 C 136.88 152.65 136.21 153.32 135.38 153.32 Z M 122.03 150.32 L 133.88 150.32 L 133.88 130.26 L 122.03 130.26 L 122.03 150.32 Z" fill="#6e6e96" fill-opacity="0.33" fill-rule="nonzero" group-id="3,9,60" node-id="342" stroke="none" target-height="26.060005" target-width="17.850006" target-x="119.03" target-y="127.26"></path></g><g node-id="1109"><path d="M 120.53 157.41 L 135.38 157.41 L 135.38 180.33 L 120.53 180.33 Z" fill="#bddfff" fill-opacity="0.33" fill-rule="nonzero" group-id="3,9,61" node-id="347" stroke="none" target-height="22.919998" target-width="14.850006" target-x="120.53" target-y="157.41"></path><path d="M 135.38 181.83 L 120.53 181.83 C 119.70 181.83 119.03 181.16 119.03 180.33 L 119.03 157.41 C 119.03 156.58 119.70 155.91 120.53 155.91 L 135.38 155.91 C 136.21 155.91 136.88 156.58 136.88 157.41 L 136.88 180.33 C 136.88 181.16 136.21 181.83 135.38 181.83 Z M 122.03 178.83 L 133.88 178.83 L 133.88 158.91 L 122.03 158.91 L 122.03 178.83 Z" fill="#6e6e96" fill-opacity="0.33" fill-rule="nonzero" group-id="3,9,61" node-id="349" stroke="none" target-height="25.919998" target-width="17.850006" target-x="119.03" target-y="155.91"></path></g><g node-id="1110"><path d="M 99.59 99.75 L 114.45 99.75 L 114.45 123.17 L 99.59 123.17 Z" fill="#bddfff" fill-opacity="0.33" fill-rule="nonzero" group-id="3,9,62" node-id="354" stroke="none" target-height="23.419998" target-width="14.860001" target-x="99.59" target-y="99.75"></path><path d="M 114.45 124.67 L 99.59 124.67 C 98.77 124.67 98.09 124.00 98.09 123.17 L 98.09 99.75 C 98.09 98.92 98.77 98.25 99.59 98.25 L 114.45 98.25 C 115.28 98.25 115.95 98.92 115.95 99.75 L 115.95 123.17 C 115.95 124.00 115.28 124.67 114.45 124.67 Z M 101.09 121.67 L 112.95 121.67 L 112.95 101.25 L 101.09 101.25 L 101.09 121.67 Z" fill="#6e6e96" fill-opacity="0.33" fill-rule="nonzero" group-id="3,9,62" node-id="356" stroke="none" target-height="26.419998" target-width="17.86" target-x="98.09" target-y="98.25"></path></g><g node-id="1111"><path d="M 99.59 128.76 L 114.45 128.76 L 114.45 151.82 L 99.59 151.82 Z" fill="#bddfff" fill-opacity="0.33" fill-rule="nonzero" group-id="3,9,63" node-id="361" stroke="none" target-height="23.060013" target-width="14.860001" target-x="99.59" target-y="128.76"></path><path d="M 114.45 153.32 L 99.59 153.32 C 98.77 153.32 98.09 152.65 98.09 151.82 L 98.09 128.76 C 98.09 127.93 98.77 127.26 99.59 127.26 L 114.45 127.26 C 115.28 127.26 115.95 127.93 115.95 128.76 L 115.95 151.82 C 115.95 152.65 115.28 153.32 114.45 153.32 Z M 101.09 150.32 L 112.95 150.32 L 112.95 130.26 L 101.09 130.26 L 101.09 150.32 Z" fill="#6e6e96" fill-opacity="0.33" fill-rule="nonzero" group-id="3,9,63" node-id="363" stroke="none" target-height="26.060005" target-width="17.86" target-x="98.09" target-y="127.26"></path></g><g node-id="1112"><path d="M 141.46 128.76 L 158.94 128.76 L 158.94 151.82 L 141.46 151.82 Z" fill="#bddfff" fill-opacity="0.33" fill-rule="nonzero" group-id="3,9,64" node-id="368" stroke="none" target-height="23.060013" target-width="17.479996" target-x="141.46" target-y="128.76"></path><path d="M 158.94 153.32 L 141.46 153.32 C 140.63 153.32 139.96 152.65 139.96 151.82 L 139.96 128.76 C 139.96 127.93 140.63 127.26 141.46 127.26 L 158.94 127.26 C 159.77 127.26 160.44 127.93 160.44 128.76 L 160.44 151.82 C 160.44 152.65 159.77 153.32 158.94 153.32 Z M 142.96 150.32 L 157.44 150.32 L 157.44 130.26 L 142.96 130.26 L 142.96 150.32 Z" fill="#6e6e96" fill-opacity="0.33" fill-rule="nonzero" group-id="3,9,64" node-id="370" stroke="none" target-height="26.060005" target-width="20.479996" target-x="139.96" target-y="127.26"></path></g><g node-id="1113"><path d="M 120.53 99.75 L 135.38 99.75 L 135.38 123.17 L 120.53 123.17 Z" fill="#bddfff" fill-opacity="0.33" fill-rule="nonzero" group-id="3,9,65" node-id="375" stroke="none" target-height="23.419998" target-width="14.850006" target-x="120.53" target-y="99.75"></path><path d="M 135.38 124.67 L 120.53 124.67 C 119.70 124.67 119.03 124.00 119.03 123.17 L 119.03 99.75 C 119.03 98.92 119.70 98.25 120.53 98.25 L 135.38 98.25 C 136.21 98.25 136.88 98.92 136.88 99.75 L 136.88 123.17 C 136.88 124.00 136.21 124.67 135.38 124.67 Z M 122.03 121.67 L 133.88 121.67 L 133.88 101.25 L 122.03 101.25 L 122.03 121.67 Z" fill="#6e6e96" fill-opacity="0.33" fill-rule="nonzero" group-id="3,9,65" node-id="377" stroke="none" target-height="26.419998" target-width="17.850006" target-x="119.03" target-y="98.25"></path></g><g node-id="1114"><path d="M 99.59 157.41 L 114.45 157.41 L 114.45 180.33 L 99.59 180.33 Z" fill="#bddfff" fill-opacity="0.33" fill-rule="nonzero" group-id="3,9,66" node-id="382" stroke="none" target-height="22.919998" target-width="14.860001" target-x="99.59" target-y="157.41"></path><path d="M 114.45 181.83 L 99.59 181.83 C 98.77 181.83 98.09 181.16 98.09 180.33 L 98.09 157.41 C 98.09 156.58 98.77 155.91 99.59 155.91 L 114.45 155.91 C 115.28 155.91 115.95 156.58 115.95 157.41 L 115.95 180.33 C 115.95 181.16 115.28 181.83 114.45 181.83 Z M 101.09 178.83 L 112.95 178.83 L 112.95 158.91 L 101.09 158.91 L 101.09 178.83 Z" fill="#6e6e96" fill-opacity="0.33" fill-rule="nonzero" group-id="3,9,66" node-id="384" stroke="none" target-height="25.919998" target-width="17.86" target-x="98.09" target-y="155.91"></path></g><g node-id="1115"><path d="M 141.46 99.75 L 158.94 99.75 L 158.94 123.17 L 141.46 123.17 Z" fill="#bddfff" fill-opacity="0.33" fill-rule="nonzero" group-id="3,9,67" node-id="389" stroke="none" target-height="23.419998" target-width="17.479996" target-x="141.46" target-y="99.75"></path><path d="M 158.94 124.67 L 141.46 124.67 C 140.63 124.67 139.96 124.00 139.96 123.17 L 139.96 99.75 C 139.96 98.92 140.63 98.25 141.46 98.25 L 158.94 98.25 C 159.77 98.25 160.44 98.92 160.44 99.75 L 160.44 123.17 C 160.44 124.00 159.77 124.67 158.94 124.67 Z M 142.96 121.67 L 157.44 121.67 L 157.44 101.25 L 142.96 101.25 L 142.96 121.67 Z" fill="#6e6e96" fill-opacity="0.33" fill-rule="nonzero" group-id="3,9,67" node-id="391" stroke="none" target-height="26.419998" target-width="20.479996" target-x="139.96" target-y="98.25"></path></g><g node-id="1116"><path d="M 141.46 157.41 L 158.94 157.41 L 158.94 180.33 L 141.46 180.33 Z" fill="#bddfff" fill-opacity="0.33" fill-rule="nonzero" group-id="3,9,68" node-id="396" stroke="none" target-height="22.919998" target-width="17.479996" target-x="141.46" target-y="157.41"></path><path d="M 158.94 181.83 L 141.46 181.83 C 140.63 181.83 139.96 181.16 139.96 180.33 L 139.96 157.41 C 139.96 156.58 140.63 155.91 141.46 155.91 L 158.94 155.91 C 159.77 155.91 160.44 156.58 160.44 157.41 L 160.44 180.33 C 160.44 181.16 159.77 181.83 158.94 181.83 Z M 142.96 178.83 L 157.44 178.83 L 157.44 158.91 L 142.96 158.91 L 142.96 178.83 Z" fill="#6e6e96" fill-opacity="0.33" fill-rule="nonzero" group-id="3,9,68" node-id="398" stroke="none" target-height="25.919998" target-width="20.479996" target-x="139.96" target-y="155.91"></path></g><g node-id="1117"><path d="M 35.58 128.76 L 51.65 128.76 L 51.65 151.82 L 35.58 151.82 Z" fill="#bddfff" fill-opacity="0.33" fill-rule="nonzero" group-id="3,9,69" node-id="403" stroke="none" target-height="23.060013" target-width="16.07" target-x="35.58" target-y="128.76"></path><path d="M 51.65 153.32 L 35.58 153.32 C 34.75 153.32 34.08 152.65 34.08 151.82 L 34.08 128.76 C 34.08 127.93 34.75 127.26 35.58 127.26 L 51.65 127.26 C 52.48 127.26 53.15 127.93 53.15 128.76 L 53.15 151.82 C 53.15 152.65 52.48 153.32 51.65 153.32 Z M 37.08 150.32 L 50.15 150.32 L 50.15 130.26 L 37.08 130.26 L 37.08 150.32 Z" fill="#6e6e96" fill-opacity="0.33" fill-rule="nonzero" group-id="3,9,69" node-id="405" stroke="none" target-height="26.060005" target-width="19.07" target-x="34.08" target-y="127.26"></path></g><g node-id="1118"><path d="M 35.58 99.75 L 51.65 99.75 L 51.65 123.17 L 35.58 123.17 Z" fill="#bddfff" fill-opacity="0.33" fill-rule="nonzero" group-id="3,9,70" node-id="410" stroke="none" target-height="23.419998" target-width="16.07" target-x="35.58" target-y="99.75"></path><path d="M 51.65 124.67 L 35.58 124.67 C 34.75 124.67 34.08 124.00 34.08 123.17 L 34.08 99.75 C 34.08 98.92 34.75 98.25 35.58 98.25 L 51.65 98.25 C 52.48 98.25 53.15 98.92 53.15 99.75 L 53.15 123.17 C 53.15 124.00 52.48 124.67 51.65 124.67 Z M 37.08 121.67 L 50.15 121.67 L 50.15 101.25 L 37.08 101.25 L 37.08 121.67 Z" fill="#6e6e96" fill-opacity="0.33" fill-rule="nonzero" group-id="3,9,70" node-id="412" stroke="none" target-height="26.419998" target-width="19.07" target-x="34.08" target-y="98.25"></path></g><g node-id="1119"><path d="M 35.58 157.41 L 51.65 157.41 L 51.65 180.33 L 35.58 180.33 Z" fill="#bddfff" fill-opacity="0.33" fill-rule="nonzero" group-id="3,9,71" node-id="417" stroke="none" target-height="22.919998" target-width="16.07" target-x="35.58" target-y="157.41"></path><path d="M 51.65 181.83 L 35.58 181.83 C 34.75 181.83 34.08 181.16 34.08 180.33 L 34.08 157.41 C 34.08 156.58 34.75 155.91 35.58 155.91 L 51.65 155.91 C 52.48 155.91 53.15 156.58 53.15 157.41 L 53.15 180.33 C 53.15 181.16 52.48 181.83 51.65 181.83 Z M 37.08 178.83 L 50.15 178.83 L 50.15 158.91 L 37.08 158.91 L 37.08 178.83 Z" fill="#6e6e96" fill-opacity="0.33" fill-rule="nonzero" group-id="3,9,71" node-id="419" stroke="none" target-height="25.919998" target-width="19.07" target-x="34.08" target-y="155.91"></path></g><g node-id="1120"><path d="M 57.73 157.41 L 72.58 157.41 L 72.58 180.33 L 57.73 180.33 Z" fill="#bddfff" fill-opacity="0.33" fill-rule="nonzero" group-id="3,9,72" node-id="424" stroke="none" target-height="22.919998" target-width="14.850002" target-x="57.73" target-y="157.41"></path><path d="M 72.58 181.83 L 57.73 181.83 C 56.90 181.83 56.23 181.16 56.23 180.33 L 56.23 157.41 C 56.23 156.58 56.90 155.91 57.73 155.91 L 72.58 155.91 C 73.41 155.91 74.08 156.58 74.08 157.41 L 74.08 180.33 C 74.08 181.16 73.41 181.83 72.58 181.83 Z M 59.23 178.83 L 71.08 178.83 L 71.08 158.91 L 59.23 158.91 L 59.23 178.83 Z" fill="#6e6e96" fill-opacity="0.33" fill-rule="nonzero" group-id="3,9,72" node-id="426" stroke="none" target-height="25.919998" target-width="17.850002" target-x="56.23" target-y="155.91"></path></g><g node-id="1121"><path d="M 57.73 128.76 L 72.58 128.76 L 72.58 151.82 L 57.73 151.82 Z" fill="#bddfff" fill-opacity="0.33" fill-rule="nonzero" group-id="3,9,73" node-id="431" stroke="none" target-height="23.060013" target-width="14.850002" target-x="57.73" target-y="128.76"></path><path d="M 72.58 153.32 L 57.73 153.32 C 56.90 153.32 56.23 152.65 56.23 151.82 L 56.23 128.76 C 56.23 127.93 56.90 127.26 57.73 127.26 L 72.58 127.26 C 73.41 127.26 74.08 127.93 74.08 128.76 L 74.08 151.82 C 74.08 152.65 73.41 153.32 72.58 153.32 Z M 59.23 150.32 L 71.08 150.32 L 71.08 130.26 L 59.23 130.26 L 59.23 150.32 Z" fill="#6e6e96" fill-opacity="0.33" fill-rule="nonzero" group-id="3,9,73" node-id="433" stroke="none" target-height="26.060005" target-width="17.850002" target-x="56.23" target-y="127.26"></path></g><g node-id="1122"><path d="M 78.66 157.41 L 93.52 157.41 L 93.52 180.33 L 78.66 180.33 Z" fill="#bddfff" fill-opacity="0.33" fill-rule="nonzero" group-id="3,9,74" node-id="438" stroke="none" target-height="22.919998" target-width="14.859993" target-x="78.66" target-y="157.41"></path><path d="M 93.52 181.83 L 78.66 181.83 C 77.83 181.83 77.16 181.16 77.16 180.33 L 77.16 157.41 C 77.16 156.58 77.83 155.91 78.66 155.91 L 93.52 155.91 C 94.35 155.91 95.02 156.58 95.02 157.41 L 95.02 180.33 C 95.02 181.16 94.35 181.83 93.52 181.83 Z M 80.16 178.83 L 92.02 178.83 L 92.02 158.91 L 80.16 158.91 L 80.16 178.83 Z" fill="#6e6e96" fill-opacity="0.33" fill-rule="nonzero" group-id="3,9,74" node-id="440" stroke="none" target-height="25.919998" target-width="17.859993" target-x="77.16" target-y="155.91"></path></g><g node-id="1123"><path d="M 78.66 99.75 L 93.52 99.75 L 93.52 123.17 L 78.66 123.17 Z" fill="#bddfff" fill-opacity="0.33" fill-rule="nonzero" group-id="3,9,75" node-id="445" stroke="none" target-height="23.419998" target-width="14.859993" target-x="78.66" target-y="99.75"></path><path d="M 93.52 124.67 L 78.66 124.67 C 77.83 124.67 77.16 124.00 77.16 123.17 L 77.16 99.75 C 77.16 98.92 77.83 98.25 78.66 98.25 L 93.52 98.25 C 94.35 98.25 95.02 98.92 95.02 99.75 L 95.02 123.17 C 95.02 124.00 94.35 124.67 93.52 124.67 Z M 80.16 121.67 L 92.02 121.67 L 92.02 101.25 L 80.16 101.25 L 80.16 121.67 Z" fill="#6e6e96" fill-opacity="0.33" fill-rule="nonzero" group-id="3,9,75" node-id="447" stroke="none" target-height="26.419998" target-width="17.859993" target-x="77.16" target-y="98.25"></path></g><g node-id="1124"><path d="M 78.66 128.76 L 93.52 128.76 L 93.52 151.82 L 78.66 151.82 Z" fill="#bddfff" fill-opacity="0.33" fill-rule="nonzero" group-id="3,9,76" node-id="452" stroke="none" target-height="23.060013" target-width="14.859993" target-x="78.66" target-y="128.76"></path><path d="M 93.52 153.32 L 78.66 153.32 C 77.83 153.32 77.16 152.65 77.16 151.82 L 77.16 128.76 C 77.16 127.93 77.83 127.26 78.66 127.26 L 93.52 127.26 C 94.35 127.26 95.02 127.93 95.02 128.76 L 95.02 151.82 C 95.02 152.65 94.35 153.32 93.52 153.32 Z M 80.16 150.32 L 92.02 150.32 L 92.02 130.26 L 80.16 130.26 L 80.16 150.32 Z" fill="#6e6e96" fill-opacity="0.33" fill-rule="nonzero" group-id="3,9,76" node-id="454" stroke="none" target-height="26.060005" target-width="17.859993" target-x="77.16" target-y="127.26"></path></g><g node-id="1125"><path d="M 57.73 99.75 L 72.58 99.75 L 72.58 123.17 L 57.73 123.17 Z" fill="#bddfff" fill-opacity="0.33" fill-rule="nonzero" group-id="3,9,77" node-id="459" stroke="none" target-height="23.419998" target-width="14.850002" target-x="57.73" target-y="99.75"></path><path d="M 72.58 124.67 L 57.73 124.67 C 56.90 124.67 56.23 124.00 56.23 123.17 L 56.23 99.75 C 56.23 98.92 56.90 98.25 57.73 98.25 L 72.58 98.25 C 73.41 98.25 74.08 98.92 74.08 99.75 L 74.08 123.17 C 74.08 124.00 73.41 124.67 72.58 124.67 Z M 59.23 121.67 L 71.08 121.67 L 71.08 101.25 L 59.23 101.25 L 59.23 121.67 Z" fill="#6e6e96" fill-opacity="0.33" fill-rule="nonzero" group-id="3,9,77" node-id="461" stroke="none" target-height="26.419998" target-width="17.850002" target-x="56.23" target-y="98.25"></path></g><g node-id="1126"><path d="M 24.63 82.68 L 170.00 82.68 L 170.00 89.39 L 24.63 89.39 Z" fill="#d5b697" fill-opacity="0.33" fill-rule="nonzero" group-id="3,9,78" node-id="466" stroke="none" target-height="6.709999" target-width="145.37" target-x="24.63" target-y="82.68"></path><path d="M 170.00 90.89 L 24.63 90.89 C 23.80 90.89 23.13 90.22 23.13 89.39 L 23.13 82.68 C 23.13 81.85 23.80 81.18 24.63 81.18 L 170.00 81.18 C 170.83 81.18 171.50 81.85 171.50 82.68 L 171.50 89.39 C 171.50 90.22 170.83 90.89 170.00 90.89 Z M 26.13 87.89 L 168.50 87.89 L 168.50 84.18 L 26.13 84.18 L 26.13 87.89 Z" fill="#6e6e96" fill-opacity="0.33" fill-rule="nonzero" group-id="3,9,78" node-id="468" stroke="none" target-height="9.709999" target-width="148.37" target-x="23.13" target-y="81.18"></path></g><g node-id="1127"><path d="M 120.53 186.30 L 135.38 186.30 L 135.38 209.23 L 120.53 209.23 Z" fill="#bddfff" fill-opacity="0.33" fill-rule="nonzero" group-id="3,9,79" node-id="473" stroke="none" target-height="22.929993" target-width="14.850006" target-x="120.53" target-y="186.3"></path><path d="M 135.38 210.73 L 120.53 210.73 C 119.70 210.73 119.03 210.05 119.03 209.23 L 119.03 186.30 C 119.03 185.47 119.70 184.80 120.53 184.80 L 135.38 184.80 C 136.21 184.80 136.88 185.47 136.88 186.30 L 136.88 209.23 C 136.88 210.05 136.21 210.73 135.38 210.73 Z M 122.03 207.73 L 133.88 207.73 L 133.88 187.80 L 122.03 187.80 L 122.03 207.73 Z" fill="#6e6e96" fill-opacity="0.33" fill-rule="nonzero" group-id="3,9,79" node-id="475" stroke="none" target-height="25.929993" target-width="17.850006" target-x="119.03" target-y="184.8"></path></g><g node-id="1128"><path d="M 141.46 186.30 L 158.94 186.30 L 158.94 209.23 L 141.46 209.23 Z" fill="#bddfff" fill-opacity="0.33" fill-rule="nonzero" group-id="3,9,80" node-id="480" stroke="none" target-height="22.929993" target-width="17.479996" target-x="141.46" target-y="186.3"></path><path d="M 158.94 210.73 L 141.46 210.73 C 140.63 210.73 139.96 210.05 139.96 209.23 L 139.96 186.30 C 139.96 185.47 140.63 184.80 141.46 184.80 L 158.94 184.80 C 159.77 184.80 160.44 185.47 160.44 186.30 L 160.44 209.23 C 160.44 210.05 159.77 210.73 158.94 210.73 Z M 142.96 207.73 L 157.44 207.73 L 157.44 187.80 L 142.96 187.80 L 142.96 207.73 Z" fill="#6e6e96" fill-opacity="0.33" fill-rule="nonzero" group-id="3,9,80" node-id="482" stroke="none" target-height="25.929993" target-width="20.479996" target-x="139.96" target-y="184.8"></path></g><g node-id="1129"><path d="M 35.58 186.30 L 51.65 186.30 L 51.65 209.23 L 35.58 209.23 Z" fill="#bddfff" fill-opacity="0.33" fill-rule="nonzero" group-id="3,9,81" node-id="487" stroke="none" target-height="22.929993" target-width="16.07" target-x="35.58" target-y="186.3"></path><path d="M 51.65 210.73 L 35.58 210.73 C 34.75 210.73 34.08 210.05 34.08 209.23 L 34.08 186.30 C 34.08 185.47 34.75 184.80 35.58 184.80 L 51.65 184.80 C 52.48 184.80 53.15 185.47 53.15 186.30 L 53.15 209.23 C 53.15 210.05 52.48 210.73 51.65 210.73 Z M 37.08 207.73 L 50.15 207.73 L 50.15 187.80 L 37.08 187.80 L 37.08 207.73 Z" fill="#6e6e96" fill-opacity="0.33" fill-rule="nonzero" group-id="3,9,81" node-id="489" stroke="none" target-height="25.929993" target-width="19.07" target-x="34.08" target-y="184.8"></path></g><g node-id="1130"><path d="M 57.73 186.30 L 72.58 186.30 L 72.58 209.23 L 57.73 209.23 Z" fill="#bddfff" fill-opacity="0.33" fill-rule="nonzero" group-id="3,9,82" node-id="494" stroke="none" target-height="22.929993" target-width="14.850002" target-x="57.73" target-y="186.3"></path><path d="M 72.58 210.73 L 57.73 210.73 C 56.90 210.73 56.23 210.05 56.23 209.23 L 56.23 186.30 C 56.23 185.47 56.90 184.80 57.73 184.80 L 72.58 184.80 C 73.41 184.80 74.08 185.47 74.08 186.30 L 74.08 209.23 C 74.08 210.05 73.41 210.73 72.58 210.73 Z M 59.23 207.73 L 71.08 207.73 L 71.08 187.80 L 59.23 187.80 L 59.23 207.73 Z" fill="#6e6e96" fill-opacity="0.33" fill-rule="nonzero" group-id="3,9,82" node-id="496" stroke="none" target-height="25.929993" target-width="17.850002" target-x="56.23" target-y="184.8"></path></g><g node-id="1131"><path d="M 78.66 186.30 L 114.51 186.30 L 114.51 216.88 L 78.66 216.88 Z" fill="#e4bc96" fill-opacity="0.33" fill-rule="nonzero" group-id="3,9,83" node-id="501" stroke="none" target-height="30.580002" target-width="35.85" target-x="78.66" target-y="186.3"></path><path d="M 114.51 218.38 L 78.66 218.38 C 77.83 218.38 77.16 217.71 77.16 216.88 L 77.16 186.30 C 77.16 185.47 77.83 184.80 78.66 184.80 L 114.51 184.80 C 115.34 184.80 116.01 185.47 116.01 186.30 L 116.01 216.88 C 116.01 217.71 115.34 218.38 114.51 218.38 Z M 80.16 215.38 L 113.01 215.38 L 113.01 187.80 L 80.16 187.80 L 80.16 215.38 Z" fill="#6e6e96" fill-opacity="0.33" fill-rule="nonzero" group-id="3,9,83" node-id="503" stroke="none" target-height="33.58" target-width="38.85" target-x="77.16" target-y="184.8"></path></g><path d="M 96.38 218.38 C 95.55 218.38 94.88 217.71 94.88 216.88 L 94.88 186.30 C 94.88 185.47 95.55 184.80 96.38 184.80 C 97.21 184.80 97.88 185.47 97.88 186.30 L 97.88 216.88 C 97.88 217.71 97.21 218.38 96.38 218.38 Z" fill="#6e6e96" fill-opacity="0.33" fill-rule="nonzero" group-id="3,9" node-id="506" stroke="none" target-height="33.58" target-width="3" target-x="94.88" target-y="184.8"></path></g><path d="M 88.33 66.61 L 68.29 66.61 C 66.91 66.61 65.79 65.49 65.79 64.11 C 65.79 62.73 66.91 61.61 68.29 61.61 L 88.33 61.61 C 89.71 61.61 90.83 62.73 90.83 64.11 C 90.83 65.49 89.71 66.61 88.33 66.61 Z" fill="#ffffff" fill-rule="nonzero" group-id="3" node-id="509" stroke="none" target-height="5" target-width="25.04" target-x="65.79" target-y="61.61"></path></g><g node-id="1052"><g node-id="1058"><path d="M 124.26 21.29 L 187.94 21.29 L 187.94 30.87 L 124.26 30.87 Z" fill="#ebebf7" fill-rule="nonzero" group-id="4,10" node-id="515" stroke="none" target-height="9.58" target-width="63.68" target-x="124.26" target-y="21.29"></path><path d="M 187.94 32.37 L 124.26 32.37 C 123.44 32.37 122.76 31.70 122.76 30.87 L 122.76 21.29 C 122.76 20.46 123.44 19.79 124.26 19.79 L 187.94 19.79 C 188.77 19.79 189.44 20.46 189.44 21.29 L 189.44 30.87 C 189.44 31.70 188.77 32.37 187.94 32.37 Z M 125.76 29.37 L 186.44 29.37 L 186.44 22.79 L 125.76 22.79 L 125.76 29.37 Z" fill="#ccccde" fill-rule="nonzero" group-id="4,10" node-id="517" stroke="none" target-height="12.579998" target-width="66.68" target-x="122.76" target-y="19.79"></path></g><g node-id="1059"><path d="M 105.86 30.70 L 206.03 30.70 L 206.03 200.34 L 105.86 200.34 Z" fill="#ffffff" fill-rule="nonzero" group-id="4,11" node-id="522" stroke="none" target-height="169.64" target-width="100.17" target-x="105.86" target-y="30.7"></path><path d="M 206.03 201.84 L 105.86 201.84 C 105.03 201.84 104.36 201.17 104.36 200.34 L 104.36 30.70 C 104.36 29.88 105.03 29.20 105.86 29.20 L 206.03 29.20 C 206.86 29.20 207.53 29.88 207.53 30.70 L 207.53 200.34 C 207.53 201.17 206.86 201.84 206.03 201.84 Z M 107.36 198.84 L 204.53 198.84 L 204.53 32.20 L 107.36 32.20 L 107.36 198.84 Z" fill="#ccccde" fill-rule="nonzero" group-id="4,11" node-id="524" stroke="none" target-height="172.64" target-width="103.17" target-x="104.36" target-y="29.2"></path></g><g node-id="1060"><path d="M 114.47 39.18 L 197.99 39.18 L 197.99 200.34 L 114.47 200.34 Z" fill="#cfe7ff" fill-rule="nonzero" group-id="4,12" node-id="529" stroke="none" target-height="161.16" target-width="83.520004" target-x="114.47" target-y="39.18"></path><path d="M 197.99 201.84 L 114.47 201.84 C 113.64 201.84 112.97 201.17 112.97 200.34 L 112.97 39.18 C 112.97 38.35 113.64 37.68 114.47 37.68 L 197.99 37.68 C 198.82 37.68 199.49 38.35 199.49 39.18 L 199.49 200.34 C 199.49 201.17 198.82 201.84 197.99 201.84 Z M 115.97 198.84 L 196.49 198.84 L 196.49 40.68 L 115.97 40.68 L 115.97 198.84 Z" fill="#ccccde" fill-rule="nonzero" group-id="4,12" node-id="531" stroke="none" target-height="164.16" target-width="86.520004" target-x="112.97" target-y="37.68"></path></g><g node-id="1061"><path d="M 115.53 122.97 L 193.94 40.19 L 137.07 40.36 L 115.53 63.77 Z" fill="#ffffff" fill-opacity="0.49" fill-rule="nonzero" group-id="4,13" node-id="536" stroke="none" target-height="82.78" target-width="78.41" target-x="115.53" target-y="40.19"></path></g><g node-id="1062"><path d="M 197.29 62.44 L 114.92 149.40 L 137.54 150.10 L 197.29 87.01 Z" fill="#ffffff" fill-opacity="0.27" fill-rule="nonzero" group-id="4,14" node-id="541" stroke="none" target-height="87.66" target-width="82.369995" target-x="114.92" target-y="62.44"></path></g><g node-id="1063"><path d="M 114.47 149.46 L 197.99 149.46 L 197.99 200.34 L 114.47 200.34 Z" fill="#cfe7ff" fill-rule="nonzero" group-id="4,15" node-id="546" stroke="none" target-height="50.87999" target-width="83.520004" target-x="114.47" target-y="149.46"></path><path d="M 197.99 201.84 L 114.47 201.84 C 113.64 201.84 112.97 201.17 112.97 200.34 L 112.97 149.46 C 112.97 148.63 113.64 147.96 114.47 147.96 L 197.99 147.96 C 198.82 147.96 199.49 148.63 199.49 149.46 L 199.49 200.34 C 199.49 201.17 198.82 201.84 197.99 201.84 Z M 115.97 198.84 L 196.49 198.84 L 196.49 150.96 L 115.97 150.96 L 115.97 198.84 Z" fill="#ccccde" fill-rule="nonzero" group-id="4,15" node-id="548" stroke="none" target-height="53.87999" target-width="86.520004" target-x="112.97" target-y="147.96"></path></g><g node-id="1064"><g node-id="1132"><path d="M 136.40 161.94 L 115.70 183.16 L 115.70 196.12 L 136.40 174.90 Z" fill="#ffffff" fill-opacity="0.1813" fill-rule="nonzero" group-id="4,16,84" node-id="555" stroke="none" target-height="34.179993" target-width="20.699997" target-x="115.7" target-y="161.94"></path></g><path d="M 115.58 173.34 L 126.69 161.94 L 115.58 161.94" fill="#ffffff" fill-opacity="0.1813" fill-rule="nonzero" group-id="4,16,85" node-id="560" stroke="none" target-height="11.399994" target-width="11.110001" target-x="115.58" target-y="161.94"></path></g><g node-id="1065"><g node-id="1134"><path d="M 166.25 161.94 L 146.15 183.16 L 146.15 196.12 L 166.25 174.90 Z" fill="#ffffff" fill-opacity="0.1813" fill-rule="nonzero" group-id="4,17,86" node-id="568" stroke="none" target-height="34.179993" target-width="20.100006" target-x="146.15" target-y="161.94"></path></g><path d="M 146.84 173.34 L 157.63 161.94 L 146.84 161.94" fill="#ffffff" fill-opacity="0.1813" fill-rule="nonzero" group-id="4,17,87" node-id="573" stroke="none" target-height="11.399994" target-width="10.790009" target-x="146.84" target-y="161.94"></path></g><g node-id="1066"><g node-id="1136"><path d="M 196.86 161.94 L 174.53 183.16 L 174.53 196.12 L 196.86 174.90 Z" fill="#ffffff" fill-opacity="0.1813" fill-rule="nonzero" group-id="4,18,88" node-id="581" stroke="none" target-height="34.179993" target-width="22.330002" target-x="174.53" target-y="161.94"></path></g><path d="M 175.28 173.34 L 187.28 161.94 L 175.28 161.94" fill="#ffffff" fill-opacity="0.1813" fill-rule="nonzero" group-id="4,18,89" node-id="586" stroke="none" target-height="11.399994" target-width="12" target-x="175.28" target-y="161.94"></path></g><path d="M 123.61 39.18 L 126.61 39.18 L 126.61 149.46 L 123.61 149.46 Z" fill="#ccccde" fill-rule="nonzero" group-id="4" node-id="590" stroke="none" target-height="110.28001" target-width="3" target-x="123.61" target-y="39.18"></path><path d="M 134.27 39.18 L 137.27 39.18 L 137.27 149.46 L 134.27 149.46 Z" fill="#ccccde" fill-rule="nonzero" group-id="4" node-id="592" stroke="none" target-height="110.28001" target-width="3" target-x="134.27" target-y="39.18"></path><path d="M 144.66 39.18 L 147.66 39.18 L 147.66 149.46 L 144.66 149.46 Z" fill="#ccccde" fill-rule="nonzero" group-id="4" node-id="594" stroke="none" target-height="110.28001" target-width="3" target-x="144.66" target-y="39.18"></path><path d="M 155.58 39.18 L 158.58 39.18 L 158.58 149.46 L 155.58 149.46 Z" fill="#ccccde" fill-rule="nonzero" group-id="4" node-id="596" stroke="none" target-height="110.28001" target-width="3" target-x="155.58" target-y="39.18"></path><path d="M 165.97 39.18 L 168.97 39.18 L 168.97 149.46 L 165.97 149.46 Z" fill="#ccccde" fill-rule="nonzero" group-id="4" node-id="598" stroke="none" target-height="110.28001" target-width="3" target-x="165.97" target-y="39.18"></path><path d="M 176.10 39.18 L 179.10 39.18 L 179.10 149.46 L 176.10 149.46 Z" fill="#ccccde" fill-rule="nonzero" group-id="4" node-id="600" stroke="none" target-height="110.28001" target-width="3" target-x="176.1" target-y="39.18"></path><path d="M 186.22 39.18 L 189.22 39.18 L 189.22 149.46 L 186.22 149.46 Z" fill="#ccccde" fill-rule="nonzero" group-id="4" node-id="602" stroke="none" target-height="110.28001" target-width="3" target-x="186.22" target-y="39.18"></path><path d="M 197.99 63.94 L 114.47 63.94 C 113.64 63.94 112.97 63.26 112.97 62.44 C 112.97 61.61 113.64 60.94 114.47 60.94 L 197.99 60.94 C 198.82 60.94 199.49 61.61 199.49 62.44 C 199.49 63.26 198.82 63.94 197.99 63.94 Z" fill="#ccccde" fill-rule="nonzero" group-id="4" node-id="604" stroke="none" target-height="3" target-width="86.520004" target-x="112.97" target-y="60.94"></path><path d="M 197.99 86.44 L 114.47 86.44 C 113.64 86.44 112.97 85.77 112.97 84.94 C 112.97 84.11 113.64 83.44 114.47 83.44 L 197.99 83.44 C 198.82 83.44 199.49 84.11 199.49 84.94 C 199.49 85.77 198.82 86.44 197.99 86.44 Z" fill="#ccccde" fill-rule="nonzero" group-id="4" node-id="606" stroke="none" target-height="3" target-width="86.520004" target-x="112.97" target-y="83.44"></path><path d="M 197.99 107.82 L 114.47 107.82 C 113.64 107.82 112.97 107.15 112.97 106.32 C 112.97 105.49 113.64 104.82 114.47 104.82 L 197.99 104.82 C 198.82 104.82 199.49 105.49 199.49 106.32 C 199.49 107.15 198.82 107.82 197.99 107.82 Z" fill="#ccccde" fill-rule="nonzero" group-id="4" node-id="608" stroke="none" target-height="3" target-width="86.520004" target-x="112.97" target-y="104.82"></path><path d="M 114.47 126.19 L 197.99 126.19 L 197.99 129.19 L 114.47 129.19 Z" fill="#ccccde" fill-rule="nonzero" group-id="4" node-id="610" stroke="none" target-height="3" target-width="83.520004" target-x="114.47" target-y="126.19"></path><path d="M 137.63 157.65 L 146.15 157.65 L 146.15 200.34 L 137.63 200.34 Z" fill="#f0f0ff" fill-rule="nonzero" group-id="4,19" node-id="614" stroke="none" target-height="42.690002" target-width="8.519989" target-x="137.63" target-y="157.65"></path><path d="M 146.15 201.84 L 137.63 201.84 C 136.80 201.84 136.13 201.17 136.13 200.34 L 136.13 157.65 C 136.13 156.82 136.80 156.15 137.63 156.15 L 146.15 156.15 C 146.98 156.15 147.65 156.82 147.65 157.65 L 147.65 200.34 C 147.65 201.17 146.98 201.84 146.15 201.84 Z M 139.13 198.84 L 144.65 198.84 L 144.65 159.15 L 139.13 159.15 L 139.13 198.84 Z" fill="#ccccde" fill-rule="nonzero" group-id="4,19" node-id="616" stroke="none" target-height="45.690002" target-width="11.519989" target-x="136.13" target-y="156.15"></path><path d="M 166.01 155.70 L 174.00 155.70 L 174.00 200.34 L 166.01 200.34 Z" fill="#f0f0ff" fill-rule="nonzero" group-id="4,20" node-id="621" stroke="none" target-height="44.64" target-width="7.9900055" target-x="166.01" target-y="155.7"></path><path d="M 174.00 201.84 L 166.01 201.84 C 165.18 201.84 164.51 201.17 164.51 200.34 L 164.51 155.70 C 164.51 154.88 165.18 154.20 166.01 154.20 L 174.00 154.20 C 174.83 154.20 175.50 154.88 175.50 155.70 L 175.50 200.34 C 175.50 201.17 174.83 201.84 174.00 201.84 Z M 167.51 198.84 L 172.50 198.84 L 172.50 157.20 L 167.51 157.20 L 167.51 198.84 Z" fill="#ccccde" fill-rule="nonzero" group-id="4,20" node-id="623" stroke="none" target-height="47.64" target-width="10.9900055" target-x="164.51" target-y="154.2"></path><path d="M 114.47 149.46 L 197.99 149.46 L 197.99 161.94 L 114.47 161.94 Z" fill="#f0f0ff" fill-rule="nonzero" group-id="4,21" node-id="628" stroke="none" target-height="12.479996" target-width="83.520004" target-x="114.47" target-y="149.46"></path><path d="M 197.99 163.44 L 114.47 163.44 C 113.64 163.44 112.97 162.77 112.97 161.94 L 112.97 149.46 C 112.97 148.63 113.64 147.96 114.47 147.96 L 197.99 147.96 C 198.82 147.96 199.49 148.63 199.49 149.46 L 199.49 161.94 C 199.49 162.77 198.82 163.44 197.99 163.44 Z M 115.97 160.44 L 196.49 160.44 L 196.49 150.96 L 115.97 150.96 L 115.97 160.44 Z" fill="#ccccde" fill-rule="nonzero" group-id="4,21" node-id="630" stroke="none" target-height="15.479996" target-width="86.520004" target-x="112.97" target-y="147.96"></path><path d="M 142.12 13.77 L 170.09 13.77 L 170.09 21.29 L 142.12 21.29 Z" fill="#ebebf7" fill-rule="nonzero" group-id="4,22" node-id="635" stroke="none" target-height="7.5200005" target-width="27.970001" target-x="142.12" target-y="13.77"></path><path d="M 170.09 22.79 L 142.12 22.79 C 141.29 22.79 140.62 22.12 140.62 21.29 L 140.62 13.77 C 140.62 12.94 141.29 12.27 142.12 12.27 L 170.09 12.27 C 170.92 12.27 171.59 12.94 171.59 13.77 L 171.59 21.29 C 171.59 22.12 170.92 22.79 170.09 22.79 Z M 143.62 19.79 L 168.59 19.79 L 168.59 15.27 L 143.62 15.27 L 143.62 19.79 Z" fill="#ccccde" fill-rule="nonzero" group-id="4,22" node-id="637" stroke="none" target-height="10.52" target-width="30.970001" target-x="140.62" target-y="12.27"></path><path d="M 156.10 15.27 C 155.28 15.27 154.60 14.60 154.60 13.77 L 154.60 1.50 C 154.60 0.67 155.28 0.00 156.10 0.00 C 156.93 0.00 157.60 0.67 157.60 1.50 L 157.60 13.77 C 157.60 14.60 156.93 15.27 156.10 15.27 Z" fill="#ccccde" fill-rule="nonzero" group-id="4" node-id="640" stroke="none" target-height="15.27" target-width="3" target-x="154.6" target-y="0"></path><path d="M 102.32 196.05 L 211.17 196.05 L 211.17 204.77 L 102.32 204.77 Z" fill="#f0f0ff" fill-rule="nonzero" group-id="4,23" node-id="644" stroke="none" target-height="8.720001" target-width="108.85" target-x="102.32" target-y="196.05"></path><path d="M 211.17 206.27 L 102.32 206.27 C 101.49 206.27 100.82 205.60 100.82 204.77 L 100.82 196.05 C 100.82 195.22 101.49 194.55 102.32 194.55 L 211.17 194.55 C 211.99 194.55 212.67 195.22 212.67 196.05 L 212.67 204.77 C 212.67 205.60 211.99 206.27 211.17 206.27 Z M 103.82 203.27 L 209.67 203.27 L 209.67 197.55 L 103.82 197.55 L 103.82 203.27 Z" fill="#ccccde" fill-rule="nonzero" group-id="4,23" node-id="646" stroke="none" target-height="11.720001" target-width="111.85" target-x="100.82" target-y="194.55"></path></g><g node-id="1053"><g node-id="1072"><path d="M 246.59 216.53 L 162.05 216.53 L 162.05 144.27 L 204.32 117.21 L 246.59 144.27 Z" fill="#ffffff" fill-rule="nonzero" group-id="5,24" node-id="653" stroke="none" target-height="99.32" target-width="84.53999" target-x="162.05" target-y="117.21"></path><path d="M 248.09 218.03 L 160.55 218.03 L 160.55 143.45 L 204.32 115.43 L 248.09 143.45 L 248.09 218.03 Z M 163.55 215.03 L 245.09 215.03 L 245.09 145.09 L 204.32 118.99 L 163.55 145.09 L 163.55 215.03 Z" fill="#ccccde" fill-rule="nonzero" group-id="5,24" node-id="655" stroke="none" target-height="102.6" target-width="87.53999" target-x="160.55" target-y="115.43"></path></g><g node-id="1073"><path d="M 204.32 112.62 L 154.62 142.84 L 154.62 147.81 L 162.05 147.81 L 204.32 121.71 L 246.48 148.15 L 253.00 148.25 L 253.00 142.84 Z" fill="#e0e6fc" fill-rule="nonzero" group-id="5,25" node-id="660" stroke="none" target-height="35.629997" target-width="98.380005" target-x="154.62" target-y="112.62"></path><path d="M 253.00 149.75 C 252.99 149.75 252.98 149.75 252.97 149.75 L 246.46 149.65 C 246.18 149.65 245.92 149.57 245.68 149.42 L 204.32 123.48 L 162.84 149.08 C 162.60 149.23 162.33 149.31 162.05 149.31 L 154.62 149.31 C 153.80 149.31 153.12 148.64 153.12 147.81 L 153.12 142.84 C 153.12 142.32 153.40 141.83 153.84 141.56 L 203.55 111.34 C 204.03 111.05 204.64 111.05 205.12 111.35 L 253.79 141.56 C 254.23 141.84 254.50 142.32 254.50 142.84 L 254.50 148.25 C 254.50 148.66 254.34 149.04 254.05 149.32 C 253.77 149.60 253.39 149.75 253.00 149.75 Z M 246.92 146.66 L 251.50 146.73 L 251.50 143.67 L 204.32 114.38 L 156.12 143.68 L 156.12 146.31 L 161.62 146.31 L 203.54 120.43 C 204.02 120.13 204.64 120.13 205.12 120.44 L 246.92 146.66 Z" fill="#ccccde" fill-rule="nonzero" group-id="5,25" node-id="662" stroke="none" target-height="38.699997" target-width="101.380005" target-x="153.12" target-y="111.05"></path></g><g node-id="1074"><path d="M 170.03 180.34 L 198.73 180.34 L 198.73 199.28 L 170.03 199.28 Z" fill="#d4eaff" fill-rule="nonzero" group-id="5,26" node-id="667" stroke="none" target-height="18.940002" target-width="28.699997" target-x="170.03" target-y="180.34"></path><path d="M 198.73 200.78 L 170.03 200.78 C 169.21 200.78 168.53 200.11 168.53 199.28 L 168.53 180.34 C 168.53 179.51 169.21 178.84 170.03 178.84 L 198.73 178.84 C 199.56 178.84 200.23 179.51 200.23 180.34 L 200.23 199.28 C 200.23 200.11 199.56 200.78 198.73 200.78 Z M 171.53 197.78 L 197.23 197.78 L 197.23 181.84 L 171.53 181.84 L 171.53 197.78 Z" fill="#ccccde" fill-rule="nonzero" group-id="5,26" node-id="669" stroke="none" target-height="21.940002" target-width="31.699997" target-x="168.53" target-y="178.84"></path></g><g node-id="1075"><path d="M 162.05 205.02 L 246.59 205.02 L 246.59 216.53 L 162.05 216.53 Z" fill="#fcebe3" fill-rule="nonzero" group-id="5,27" node-id="674" stroke="none" target-height="11.5099945" target-width="84.53999" target-x="162.05" target-y="205.02"></path><path d="M 246.59 218.03 L 162.05 218.03 C 161.22 218.03 160.55 217.36 160.55 216.53 L 160.55 205.02 C 160.55 204.19 161.22 203.52 162.05 203.52 L 246.59 203.52 C 247.42 203.52 248.09 204.19 248.09 205.02 L 248.09 216.53 C 248.09 217.36 247.42 218.03 246.59 218.03 Z M 163.55 215.03 L 245.09 215.03 L 245.09 206.52 L 163.55 206.52 L 163.55 215.03 Z" fill="#ccccde" fill-rule="nonzero" group-id="5,27" node-id="676" stroke="none" target-height="14.5099945" target-width="87.53999" target-x="160.55" target-y="203.52"></path></g><g node-id="1076"><path d="M 199.93 216.53 C 199.93 216.51 199.93 216.49 199.93 216.47 C 199.93 212.91 197.44 210.01 194.37 210.01 C 192.95 210.01 191.65 210.64 190.67 211.66 C 189.91 207.43 186.67 204.24 182.79 204.24 C 181.02 204.24 179.39 204.91 178.07 206.03 C 176.40 203.37 173.70 201.63 170.65 201.63 C 166.46 201.63 162.92 204.89 161.83 209.34 C 161.42 209.24 160.99 209.18 160.55 209.18 C 157.28 209.18 154.63 212.25 154.63 216.05 C 154.63 216.22 154.64 216.38 154.65 216.54 L 199.93 216.53 L 199.93 216.53 Z" fill="#cce8d6" fill-rule="nonzero" group-id="5,28" node-id="681" stroke="none" target-height="14.909988" target-width="45.299988" target-x="154.63" target-y="201.63"></path><path d="M 154.65 218.03 C 153.86 218.03 153.21 217.43 153.15 216.64 C 153.13 216.45 153.12 216.25 153.12 216.05 C 153.12 211.35 156.61 207.53 160.76 207.68 C 162.38 203.17 166.29 200.13 170.65 200.13 C 173.59 200.13 176.41 201.53 178.41 203.95 C 179.76 203.15 181.25 202.74 182.79 202.74 C 186.61 202.74 190.02 205.35 191.53 209.19 C 192.41 208.75 193.38 208.51 194.37 208.51 C 198.27 208.51 201.43 212.08 201.43 216.47 C 201.43 216.50 201.43 216.56 201.43 216.60 C 201.39 217.40 200.74 218.03 199.93 218.03 L 154.65 218.03 Z M 160.55 210.68 C 158.40 210.68 156.60 212.56 156.20 215.03 L 198.26 215.03 C 197.75 213.00 196.20 211.51 194.37 211.51 C 193.42 211.51 192.49 211.94 191.75 212.70 C 191.36 213.10 190.78 213.26 190.24 213.09 C 189.70 212.93 189.30 212.48 189.20 211.93 C 188.55 208.34 185.85 205.74 182.79 205.74 C 181.44 205.74 180.15 206.24 179.03 207.17 C 178.70 207.45 178.26 207.57 177.84 207.51 C 177.41 207.44 177.03 207.19 176.80 206.82 C 175.32 204.47 173.08 203.13 170.65 203.13 C 167.26 203.13 164.24 205.83 163.28 209.70 C 163.19 210.09 162.94 210.43 162.60 210.63 C 162.25 210.84 161.84 210.90 161.46 210.80 C 161.14 210.72 160.84 210.68 160.55 210.68 Z" fill="#ccccde" fill-rule="nonzero" group-id="5,28" node-id="683" stroke="none" target-height="17.899994" target-width="48.309998" target-x="153.12" target-y="200.13"></path></g><g node-id="1077"><path d="M 211.52 180.34 L 233.57 180.34 L 233.57 216.53 L 211.52 216.53 Z" fill="#ffdede" fill-rule="nonzero" group-id="5,29" node-id="688" stroke="none" target-height="36.190002" target-width="22.050003" target-x="211.52" target-y="180.34"></path><path d="M 233.57 218.03 L 211.52 218.03 C 210.69 218.03 210.02 217.36 210.02 216.53 L 210.02 180.34 C 210.02 179.51 210.69 178.84 211.52 178.84 L 233.57 178.84 C 234.40 178.84 235.07 179.51 235.07 180.34 L 235.07 216.53 C 235.07 217.36 234.40 218.03 233.57 218.03 Z M 213.02 215.03 L 232.07 215.03 L 232.07 181.84 L 213.02 181.84 L 213.02 215.03 Z" fill="#ccccde" fill-rule="nonzero" group-id="5,29" node-id="690" stroke="none" target-height="39.190002" target-width="25.050003" target-x="210.02" target-y="178.84"></path></g><path d="M 246.59 175.10 L 162.05 175.10 C 161.22 175.10 160.55 174.43 160.55 173.60 C 160.55 172.77 161.22 172.10 162.05 172.10 L 246.59 172.10 C 247.42 172.10 248.09 172.77 248.09 173.60 C 248.09 174.43 247.42 175.10 246.59 175.10 Z" fill="#ccccde" fill-rule="nonzero" group-id="5" node-id="693" stroke="none" target-height="3" target-width="87.53999" target-x="160.55" target-y="172.1"></path><path d="M 170.03 149.11 L 185.47 149.11 L 185.47 166.69 L 170.03 166.69 Z" fill="#d4eaff" fill-rule="nonzero" group-id="5,30,90" node-id="699" stroke="none" target-height="17.580002" target-width="15.440002" target-x="170.03" target-y="149.11"></path><path d="M 185.47 168.19 L 170.03 168.19 C 169.21 168.19 168.53 167.52 168.53 166.69 L 168.53 149.11 C 168.53 148.28 169.21 147.61 170.03 147.61 L 185.47 147.61 C 186.30 147.61 186.97 148.28 186.97 149.11 L 186.97 166.69 C 186.97 167.52 186.30 168.19 185.47 168.19 Z M 171.53 165.19 L 183.97 165.19 L 183.97 150.61 L 171.53 150.61 L 171.53 165.19 Z" fill="#ccccde" fill-rule="nonzero" group-id="5,30,90" node-id="701" stroke="none" target-height="20.580002" target-width="18.440002" target-x="168.53" target-y="147.61"></path><path d="M 185.47 159.40 L 170.03 159.40 C 169.21 159.40 168.53 158.72 168.53 157.90 C 168.53 157.07 169.21 156.40 170.03 156.40 L 185.47 156.40 C 186.30 156.40 186.97 157.07 186.97 157.90 C 186.97 158.72 186.30 159.40 185.47 159.40 Z" fill="#ccccde" fill-rule="nonzero" group-id="5,30" node-id="704" stroke="none" target-height="3" target-width="18.440002" target-x="168.53" target-y="156.4"></path><path d="M 222.85 149.11 L 238.30 149.11 L 238.30 166.69 L 222.85 166.69 Z" fill="#d4eaff" fill-rule="nonzero" group-id="5,31,91" node-id="711" stroke="none" target-height="17.580002" target-width="15.449997" target-x="222.85" target-y="149.11"></path><path d="M 238.30 168.19 L 222.86 168.19 C 222.03 168.19 221.36 167.52 221.36 166.69 L 221.36 149.11 C 221.36 148.28 222.03 147.61 222.86 147.61 L 238.30 147.61 C 239.13 147.61 239.80 148.28 239.80 149.11 L 239.80 166.69 C 239.80 167.52 239.13 168.19 238.30 168.19 Z M 224.35 165.19 L 236.80 165.19 L 236.80 150.61 L 224.35 150.61 L 224.35 165.19 Z" fill="#ccccde" fill-rule="nonzero" group-id="5,31,91" node-id="713" stroke="none" target-height="20.580002" target-width="18.440002" target-x="221.36" target-y="147.61"></path><path d="M 238.30 159.40 L 222.86 159.40 C 222.03 159.40 221.36 158.72 221.36 157.90 C 221.36 157.07 222.03 156.40 222.86 156.40 L 238.30 156.40 C 239.13 156.40 239.80 157.07 239.80 157.90 C 239.80 158.72 239.13 159.40 238.30 159.40 Z" fill="#ccccde" fill-rule="nonzero" group-id="5,31" node-id="716" stroke="none" target-height="3" target-width="18.440002" target-x="221.36" target-y="156.4"></path><path d="M 196.52 149.11 L 211.96 149.11 L 211.96 166.69 L 196.52 166.69 Z" fill="#d4eaff" fill-rule="nonzero" group-id="5,32,92" node-id="723" stroke="none" target-height="17.580002" target-width="15.440002" target-x="196.52" target-y="149.11"></path><path d="M 211.96 168.19 L 196.52 168.19 C 195.69 168.19 195.02 167.52 195.02 166.69 L 195.02 149.11 C 195.02 148.28 195.69 147.61 196.52 147.61 L 211.96 147.61 C 212.79 147.61 213.46 148.28 213.46 149.11 L 213.46 166.69 C 213.46 167.52 212.79 168.19 211.96 168.19 Z M 198.02 165.19 L 210.46 165.19 L 210.46 150.61 L 198.02 150.61 L 198.02 165.19 Z" fill="#ccccde" fill-rule="nonzero" group-id="5,32,92" node-id="725" stroke="none" target-height="20.580002" target-width="18.440002" target-x="195.02" target-y="147.61"></path><path d="M 211.97 159.40 L 196.52 159.40 C 195.69 159.40 195.02 158.72 195.02 157.90 C 195.02 157.07 195.69 156.40 196.52 156.40 L 211.97 156.40 C 212.79 156.40 213.47 157.07 213.47 157.90 C 213.47 158.72 212.79 159.40 211.97 159.40 Z" fill="#ccccde" fill-rule="nonzero" group-id="5,32" node-id="728" stroke="none" target-height="3" target-width="18.449997" target-x="195.02" target-y="156.4"></path><path d="M 184.42 200.78 C 183.59 200.78 182.92 200.11 182.92 199.28 L 182.92 180.34 C 182.92 179.51 183.59 178.84 184.42 178.84 C 185.24 178.84 185.92 179.51 185.92 180.34 L 185.92 199.28 C 185.92 200.11 185.24 200.78 184.42 200.78 Z" fill="#ccccde" fill-rule="nonzero" group-id="5" node-id="731" stroke="none" target-height="21.940002" target-width="3" target-x="182.92" target-y="178.84"></path><path d="M 208.53 212.40 L 236.55 212.40 L 236.55 216.53 L 208.53 216.53 Z" fill="#f0f0ff" fill-rule="nonzero" group-id="5,33" node-id="735" stroke="none" target-height="4.130005" target-width="28.020004" target-x="208.53" target-y="212.4"></path><path d="M 236.55 218.03 L 208.53 218.03 C 207.71 218.03 207.03 217.36 207.03 216.53 L 207.03 212.40 C 207.03 211.57 207.71 210.90 208.53 210.90 L 236.55 210.90 C 237.38 210.90 238.05 211.57 238.05 212.40 L 238.05 216.53 C 238.05 217.36 237.38 218.03 236.55 218.03 Z M 210.03 215.03 L 235.05 215.03 L 235.05 213.90 L 210.03 213.90 L 210.03 215.03 Z" fill="#ccccde" fill-rule="nonzero" group-id="5,33" node-id="737" stroke="none" target-height="7.130005" target-width="31.020004" target-x="207.03" target-y="210.9"></path><path d="M 215.19 200.12 C 214.37 200.12 213.69 199.44 213.69 198.62 L 213.69 194.02 C 213.69 193.20 214.37 192.52 215.19 192.52 C 216.02 192.52 216.69 193.20 216.69 194.02 L 216.69 198.62 C 216.69 199.44 216.02 200.12 215.19 200.12 Z" fill="#ccccde" fill-rule="nonzero" group-id="5" node-id="740" stroke="none" target-height="7.599991" target-width="3" target-x="213.69" target-y="192.52"></path></g><g node-id="1054"><g node-id="1082"><path d="M 57.24 175.42 C 57.24 167.10 50.00 160.35 41.07 160.35 C 40.93 160.35 40.79 160.35 40.65 160.36 C 37.83 155.94 32.66 152.98 26.74 152.98 C 17.81 152.98 10.56 159.73 10.56 168.05 C 10.56 168.16 10.57 168.27 10.57 168.38 C 5.69 170.97 2.39 175.86 2.39 181.48 C 2.39 189.80 9.63 196.55 18.57 196.55 C 19.07 196.55 19.58 196.53 20.07 196.48 C 23.04 199.84 27.53 201.97 32.55 201.97 C 40.81 201.97 47.62 196.20 48.60 188.75 C 53.74 186.23 57.24 181.21 57.24 175.42 Z" fill="#d7f7e4" fill-rule="nonzero" group-id="6,34" node-id="747" stroke="none" target-height="48.990005" target-width="54.850002" target-x="2.39" target-y="152.98"></path><path d="M 32.55 203.47 C 27.54 203.47 22.81 201.49 19.46 198.03 C 9.31 198.52 0.89 190.89 0.89 181.48 C 0.89 175.81 4.00 170.53 9.07 167.50 C 9.39 158.62 17.19 151.48 26.74 151.48 C 32.63 151.48 38.18 154.29 41.45 158.85 C 51.02 159.04 58.74 166.40 58.74 175.42 C 58.74 181.35 55.40 186.77 49.97 189.74 C 48.52 197.62 41.17 203.47 32.55 203.47 Z M 20.70 194.92 L 21.20 195.49 C 24.00 198.65 28.14 200.47 32.55 200.47 C 39.96 200.47 46.22 195.35 47.12 188.56 L 47.22 187.76 L 47.94 187.41 C 52.75 185.04 55.74 180.45 55.74 175.42 C 55.74 167.94 49.16 161.85 41.07 161.85 C 40.94 161.85 40.82 161.85 40.69 161.86 L 39.84 161.88 L 39.39 161.16 C 36.75 157.04 31.91 154.48 26.74 154.48 C 18.65 154.48 12.06 160.57 12.06 168.05 L 12.09 169.26 L 11.28 169.70 C 6.72 172.12 3.89 176.63 3.89 181.48 C 3.89 188.96 10.47 195.05 18.57 195.05 C 19.03 195.05 19.49 195.03 19.94 194.99 L 20.70 194.92 Z" fill="#ccccde" fill-rule="nonzero" group-id="6,34" node-id="749" stroke="none" target-height="51.990005" target-width="57.850002" target-x="0.89" target-y="151.48"></path></g><g node-id="1083"><path d="M 40.80 159.80 C 40.66 159.80 40.52 159.81 40.38 159.82 C 38.12 156.27 34.35 153.67 29.89 152.78 C 33.41 153.66 36.38 155.81 38.21 158.66 C 38.33 158.66 39.95 161.46 40.07 161.46 C 47.74 161.46 51.30 165.59 51.30 172.73 C 51.30 177.70 49.44 180.87 45.03 183.03 C 44.19 189.42 38.35 194.37 31.26 194.37 C 26.95 194.37 23.10 192.54 20.55 189.67 C 20.12 189.70 19.70 189.72 19.26 189.72 C 11.59 189.72 5.57 186.09 5.57 178.95 C 5.57 174.14 7.72 171.77 11.64 168.92 C 11.54 168.30 11.10 162.85 12.55 161.40 C 16.00 157.95 17.57 154.98 20.65 153.45 C 14.60 155.63 10.30 161.10 10.30 167.52 C 10.30 167.62 10.30 167.73 10.31 167.84 C 5.42 170.43 2.12 175.32 2.12 180.94 C 2.12 189.26 9.36 196.01 18.30 196.01 C 18.81 196.01 19.31 195.99 19.80 195.95 C 22.77 199.30 27.26 201.43 32.29 201.43 C 40.54 201.43 47.35 195.66 48.34 188.21 C 53.47 185.69 56.97 180.67 56.97 174.88 C 56.97 166.55 49.73 159.80 40.80 159.80 Z" fill="#6e6e96" fill-opacity="0.1" fill-rule="nonzero" group-id="6,35" node-id="754" stroke="none" target-height="48.649994" target-width="54.850002" target-x="2.12" target-y="152.78"></path></g><g node-id="1084"><path d="M 17.77 183.57 C 17.77 183.57 26.15 185.21 26.15 193.41 C 26.15 193.41 28.40 207.34 19.69 217.19 L 39.82 217.19 C 39.62 216.91 22.23 193.69 41.58 179.88 C 29.78 186.63 17.77 183.57 17.77 183.57 Z" fill="#ede3da" fill-rule="nonzero" group-id="6,36" node-id="759" stroke="none" target-height="37.309998" target-width="23.810001" target-x="17.77" target-y="179.88"></path><path d="M 39.82 218.69 L 16.36 218.69 L 18.56 216.19 C 26.69 207.01 24.69 193.78 24.67 193.65 L 24.65 193.41 C 24.65 187.32 19.30 185.50 17.65 185.08 L 17.40 185.03 L 18.06 182.10 C 18.06 182.10 18.16 182.12 18.35 182.16 C 19.02 182.31 21.36 182.76 24.60 182.76 C 28.67 182.76 34.79 182.03 40.84 178.58 L 42.45 181.10 C 37.77 184.44 34.99 188.66 34.19 193.64 C 32.46 204.52 40.67 215.81 41.02 216.28 L 42.78 218.68 L 39.82 218.69 Z M 22.76 215.69 L 37.02 215.69 C 34.39 211.44 29.77 202.36 31.23 193.17 C 31.75 189.93 32.98 186.97 34.90 184.32 C 31.01 185.44 27.44 185.75 24.70 185.76 C 26.32 187.45 27.62 189.87 27.65 193.29 C 27.85 194.69 29.29 206.17 22.76 215.69 Z" fill="#ccccde" fill-rule="nonzero" group-id="6,36" node-id="761" stroke="none" target-height="40.11" target-width="26.419998" target-x="16.36" target-y="178.58"></path></g><path d="M 36.56 183.55 C 36.56 183.55 23.85 199.96 33.62 217.19 L 39.82 217.19 C 39.82 217.19 26.92 199.16 36.56 183.55 Z" fill="#6e6e96" fill-opacity="0.11" fill-rule="nonzero" group-id="6,37" node-id="766" stroke="none" target-height="33.64" target-width="15.969999" target-x="23.85" target-y="183.55"></path></g><path d="M 0.00 215.50 L 256.00 215.50 L 256.00 242.47 L 0.00 242.47 Z" fill="#f0f0ff" fill-rule="nonzero" node-id="770" stroke="none" target-height="26.970001" target-width="256" target-x="0" target-y="215.5"></path><path d="M 0.00 214.00 L 256.00 214.00 L 256.00 217.00 L 0.00 217.00 Z" fill="#ccccde" fill-rule="nonzero" node-id="772" stroke="none" target-height="3" target-width="256" target-x="0" target-y="214"></path><path d="M 0.00 240.97 L 256.00 240.97 L 256.00 243.97 L 0.00 243.97 Z" fill="#ccccde" fill-rule="nonzero" node-id="774" stroke="none" target-height="3" target-width="256" target-x="0" target-y="240.97"></path><path d="M 0.00 227.50 L 10.50 227.50 L 10.50 230.50 L 0.00 230.50 Z" fill="#ccccde" fill-rule="nonzero" node-id="776" stroke="none" target-height="3" target-width="10.5" target-x="0" target-y="227.5"></path><path d="M 25.50 227.50 L 38.50 227.50 L 38.50 230.50 L 25.50 230.50 Z" fill="#ccccde" fill-rule="nonzero" node-id="778" stroke="none" target-height="3" target-width="13" target-x="25.5" target-y="227.5"></path><path d="M 118.00 227.50 L 128.50 227.50 L 128.50 230.50 L 118.00 230.50 Z" fill="#ccccde" fill-rule="nonzero" node-id="780" stroke="none" target-height="3" target-width="10.5" target-x="118" target-y="227.5"></path><path d="M 142.50 227.50 L 156.00 227.50 L 156.00 230.50 L 142.50 230.50 Z" fill="#ccccde" fill-rule="nonzero" node-id="782" stroke="none" target-height="3" target-width="13.5" target-x="142.5" target-y="227.5"></path><path d="M 185.18 228.00 L 195.00 228.00 L 195.00 231.00 L 185.18 231.00 Z" fill="#ccccde" fill-rule="nonzero" node-id="784" stroke="none" target-height="3" target-width="9.820007" target-x="185.18" target-y="228"></path><path d="M 240.32 207.59 C 240.63 209.56 239.26 211.17 237.26 211.17 L 212.18 211.17 C 210.19 211.17 208.88 209.57 209.27 207.62 L 211.48 196.39 C 211.87 194.44 213.81 192.84 215.80 192.84 L 234.37 192.84 C 236.36 192.84 238.24 194.44 238.55 196.41 L 240.32 207.59 Z" fill="#e0f8ff" fill-rule="nonzero" group-id="7,38" node-id="790" stroke="none" target-height="18.330002" target-width="31.75" target-x="208.88" target-y="192.84"></path><path d="M 237.27 212.67 L 212.18 212.67 C 210.79 212.67 209.51 212.09 208.68 211.07 C 207.85 210.06 207.53 208.70 207.80 207.33 L 210.01 196.10 C 210.54 193.43 213.08 191.34 215.80 191.34 L 234.37 191.34 C 237.12 191.34 239.60 193.46 240.04 196.18 L 241.80 207.36 C 242.02 208.73 241.65 210.09 240.80 211.09 C 239.94 212.09 238.65 212.67 237.27 212.67 Z M 215.80 194.34 C 214.53 194.34 213.20 195.43 212.96 196.68 L 210.74 207.91 C 210.64 208.40 210.73 208.85 210.99 209.17 C 211.26 209.49 211.68 209.67 212.18 209.67 L 237.26 209.67 C 237.78 209.67 238.23 209.48 238.51 209.14 C 238.80 208.81 238.92 208.34 238.84 207.83 L 237.07 196.65 C 236.88 195.42 235.61 194.34 234.37 194.34 L 215.80 194.34 Z" fill="#ccccde" fill-rule="nonzero" group-id="7,38" node-id="792" stroke="none" target-height="21.330002" target-width="34.490005" target-x="207.53" target-y="191.34"></path><path d="M 246.91 220.57 C 246.91 222.56 245.28 224.19 243.29 224.19 L 203.50 224.19 C 201.51 224.19 199.89 222.56 199.89 220.57 L 199.89 212.61 C 199.89 210.62 201.51 209.00 203.50 209.00 L 243.29 209.00 C 245.28 209.00 246.91 210.62 246.91 212.61 L 246.91 220.57 L 246.91 220.57 Z" fill="#fff2c4" fill-rule="nonzero" group-id="7,39" node-id="797" stroke="none" target-height="15.190002" target-width="47.020004" target-x="199.89" target-y="209"></path><path d="M 243.29 225.69 L 203.50 225.69 C 200.68 225.69 198.39 223.39 198.39 220.57 L 198.39 212.61 C 198.39 209.79 200.68 207.50 203.50 207.50 L 243.29 207.50 C 246.12 207.50 248.41 209.79 248.41 212.61 L 248.41 220.57 C 248.41 223.40 246.12 225.69 243.29 225.69 Z M 203.50 210.50 C 202.34 210.50 201.39 211.45 201.39 212.61 L 201.39 220.57 C 201.39 221.74 202.34 222.69 203.50 222.69 L 243.29 222.69 C 244.46 222.69 245.41 221.74 245.41 220.57 L 245.41 212.61 C 245.41 211.45 244.46 210.50 243.29 210.50 L 203.50 210.50 Z" fill="#ccccde" fill-rule="nonzero" group-id="7,39" node-id="799" stroke="none" target-height="18.190002" target-width="50.020004" target-x="198.39" target-y="207.5"></path><path d="M 218.13 222.46 C 218.13 226.16 215.12 229.17 211.42 229.17 C 207.71 229.17 204.71 226.16 204.71 222.46 C 204.71 218.75 207.71 215.75 211.42 215.75 C 215.12 215.75 218.13 218.75 218.13 222.46 Z" fill="#e7e7fc" fill-rule="nonzero" group-id="7,40" node-id="804" stroke="none" target-height="13.419998" target-width="13.419998" target-x="204.71" target-y="215.75"></path><path d="M 211.42 230.67 C 206.89 230.67 203.21 226.98 203.21 222.46 C 203.21 217.93 206.89 214.25 211.42 214.25 C 215.94 214.25 219.63 217.93 219.63 222.46 C 219.63 226.98 215.94 230.67 211.42 230.67 Z M 211.42 217.25 C 208.55 217.25 206.21 219.59 206.21 222.46 C 206.21 225.33 208.55 227.67 211.42 227.67 C 214.29 227.67 216.63 225.33 216.63 222.46 C 216.63 219.59 214.29 217.25 211.42 217.25 Z" fill="#ccccde" fill-rule="nonzero" group-id="7,40" node-id="806" stroke="none" target-height="16.419998" target-width="16.419998" target-x="203.21" target-y="214.25"></path><path d="M 241.85 222.46 C 241.85 226.16 238.85 229.17 235.14 229.17 C 231.44 229.17 228.43 226.16 228.43 222.46 C 228.43 218.75 231.44 215.75 235.14 215.75 C 238.85 215.75 241.85 218.75 241.85 222.46 Z" fill="#e7e7fc" fill-rule="nonzero" group-id="7,41" node-id="811" stroke="none" target-height="13.419998" target-width="13.420013" target-x="228.43" target-y="215.75"></path><path d="M 235.14 230.67 C 230.62 230.67 226.93 226.98 226.93 222.46 C 226.93 217.93 230.62 214.25 235.14 214.25 C 239.67 214.25 243.35 217.93 243.35 222.46 C 243.35 226.98 239.67 230.67 235.14 230.67 Z M 235.14 217.25 C 232.27 217.25 229.93 219.59 229.93 222.46 C 229.93 225.33 232.27 227.67 235.14 227.67 C 238.01 227.67 240.35 225.33 240.35 222.46 C 240.35 219.59 238.01 217.25 235.14 217.25 Z" fill="#ccccde" fill-rule="nonzero" group-id="7,41" node-id="813" stroke="none" target-height="16.419998" target-width="16.420013" target-x="226.93" target-y="214.25"></path><path d="M 223.47 192.84 L 226.47 192.84 L 226.47 209.00 L 223.47 209.00 Z" fill="#ccccde" fill-rule="nonzero" group-id="7" node-id="816" stroke="none" target-height="16.160004" target-width="3" target-x="223.47" target-y="192.84"></path><path d="M 53.00 227.50 L 66.00 227.50 L 66.00 230.50 L 53.00 230.50 Z" fill="#ccccde" fill-rule="nonzero" node-id="819" stroke="none" target-height="3" target-width="13" target-x="53" target-y="227.5"></path><path d="M 78.50 227.50 L 91.50 227.50 L 91.50 230.50 L 78.50 230.50 Z" fill="#ccccde" fill-rule="nonzero" node-id="821" stroke="none" target-height="3" target-width="13" target-x="78.5" target-y="227.5"></path><path d="M 157.76 185.94 L 174.18 185.94 L 174.18 248.05 L 157.76 248.05 Z" fill="#ddddeb" fill-rule="nonzero" group-id="8,42" node-id="827" stroke="none" target-height="62.11" target-width="16.419998" target-x="157.76" target-y="185.94"></path><path d="M 175.68 249.55 L 156.26 249.55 L 156.26 184.44 L 175.68 184.44 L 175.68 249.55 Z M 159.26 246.55 L 172.68 246.55 L 172.68 187.44 L 159.26 187.44 L 159.26 246.55 Z" fill="#6e6e96" fill-rule="nonzero" group-id="8,42" node-id="829" stroke="none" target-height="65.11" target-width="19.419998" target-x="156.26" target-y="184.44"></path><path d="M 92.36 185.94 L 108.78 185.94 L 108.78 248.05 L 92.36 248.05 Z" fill="#ddddeb" fill-rule="nonzero" group-id="8,43" node-id="834" stroke="none" target-height="62.11" target-width="16.419998" target-x="92.36" target-y="185.94"></path><path d="M 110.28 249.55 L 90.86 249.55 L 90.86 184.44 L 110.28 184.44 L 110.28 249.55 Z M 93.86 246.55 L 107.28 246.55 L 107.28 187.44 L 93.86 187.44 L 93.86 246.55 Z" fill="#6e6e96" fill-rule="nonzero" group-id="8,43" node-id="836" stroke="none" target-height="65.11" target-width="19.419998" target-x="90.86" target-y="184.44"></path><path d="M 54.02 81.35 L 211.53 81.35 L 211.53 186.35 L 54.02 186.35 Z" fill="#ffffff" fill-rule="nonzero" group-id="8,44" node-id="841" stroke="none" target-height="105.00001" target-width="157.51" target-x="54.02" target-y="81.35"></path><path d="M 211.53 187.85 L 54.02 187.85 C 53.19 187.85 52.52 187.18 52.52 186.35 L 52.52 81.35 C 52.52 80.52 53.19 79.85 54.02 79.85 L 211.53 79.85 C 212.36 79.85 213.03 80.52 213.03 81.35 L 213.03 186.35 C 213.03 187.18 212.36 187.85 211.53 187.85 Z M 55.52 184.85 L 210.03 184.85 L 210.03 82.85 L 55.52 82.85 L 55.52 184.85 Z" fill="#6e6e96" fill-rule="nonzero" group-id="8,44" node-id="843" stroke="none" target-height="108.00001" target-width="160.51" target-x="52.52" target-y="79.85"></path><path d="M 60.75 88.28 L 204.81 88.28 L 204.81 179.09 L 60.75 179.09 Z" fill="#ffe3b0" fill-rule="nonzero" group-id="8,45" node-id="848" stroke="none" target-height="90.81" target-width="144.06" target-x="60.75" target-y="88.28"></path><path d="M 204.81 180.59 L 60.75 180.59 C 59.92 180.59 59.25 179.92 59.25 179.09 L 59.25 88.28 C 59.25 87.45 59.92 86.78 60.75 86.78 L 204.81 86.78 C 205.63 86.78 206.31 87.45 206.31 88.28 L 206.31 179.09 C 206.31 179.92 205.63 180.59 204.81 180.59 Z M 62.25 177.59 L 203.31 177.59 L 203.31 89.78 L 62.25 89.78 L 62.25 177.59 Z" fill="#6e6e96" fill-rule="nonzero" group-id="8,45" node-id="850" stroke="none" target-height="93.81" target-width="147.06" target-x="59.25" target-y="86.78"></path><path d="M 130.22 111.50 C 135.86 126.72 127.28 143.81 111.33 149.57 C 95.38 155.34 77.97 147.64 72.46 132.37 C 66.94 117.11 75.40 100.06 91.35 94.30 C 107.30 88.53 122.04 89.43 130.22 111.50 Z" fill="#b89289" fill-rule="nonzero" group-id="8,46,93" node-id="857" stroke="none" target-height="66.81" target-width="68.92" target-x="66.94" target-y="88.53"></path><path d="M 74.00 126.18 C 74.00 126.18 73.31 100.59 100.38 96.89 C 100.38 96.89 113.54 92.85 123.47 100.88 C 123.47 100.88 113.34 80.14 84.99 98.03 C 66.47 109.71 74.00 126.18 74.00 126.18 Z" fill="#c79e94" fill-rule="nonzero" group-id="8,46,94" node-id="862" stroke="none" target-height="46.04" target-width="57" target-x="66.47" target-y="80.14"></path><path d="M 129.02 111.95 C 131.52 118.69 131.18 126.09 128.06 132.80 C 124.74 139.95 118.48 145.63 110.89 148.37 C 95.63 153.88 78.93 146.51 73.66 131.94 C 68.39 117.36 76.53 101.02 91.79 95.50 C 110.78 88.64 122.27 93.71 129.02 111.95 Z M 90.92 93.09 C 74.33 99.09 65.50 116.91 71.25 132.81 C 77.00 148.71 95.17 156.78 111.76 150.78 C 119.99 147.81 126.78 141.65 130.39 133.88 C 133.79 126.55 134.16 118.44 131.42 111.06 C 124.16 91.44 111.29 85.73 90.92 93.09 Z" fill="#6e6e96" fill-rule="nonzero" group-id="8,46,95" node-id="867" stroke="none" target-height="71.049995" target-width="68.66" target-x="65.5" target-y="85.73"></path><path d="M 100.21 151.03 C 100.21 151.03 107.74 152.25 107.46 146.78 L 107.32 144.04 L 113.66 143.72 C 113.66 143.72 113.51 150.55 118.92 150.27 C 118.92 150.27 124.68 161.63 117.74 164.15 C 110.80 166.67 100.39 154.61 100.21 151.03 Z" fill="#f9e6d4" fill-rule="nonzero" group-id="8,46,96" node-id="872" stroke="none" target-height="22.949997" target-width="24.470001" target-x="100.21" target-y="143.72"></path><path d="M 100.01 152.30 C 100.48 152.37 104.76 152.99 107.19 150.82 C 107.96 150.13 108.85 148.85 108.74 146.72 C 108.74 146.71 108.60 143.98 108.60 143.98 L 107.39 145.33 L 113.72 145.00 L 112.37 143.69 C 112.37 143.86 112.31 147.78 114.63 150.03 C 115.77 151.13 117.23 151.64 118.98 151.55 L 117.78 150.85 C 118.67 152.61 120.71 157.84 119.51 160.87 C 119.12 161.87 118.39 162.55 117.30 162.94 C 114.93 163.81 112.08 162.43 110.10 161.12 C 105.27 157.91 101.57 152.54 101.49 150.97 L 100.01 152.30 Z M 118.18 165.35 C 119.97 164.70 121.23 163.51 121.90 161.81 C 123.77 157.08 120.22 149.99 120.06 149.69 L 119.69 148.94 L 118.85 148.99 C 117.83 149.04 117.03 148.78 116.42 148.19 C 115.17 146.98 114.92 144.57 114.94 143.74 L 114.96 142.37 C 114.96 142.37 113.59 142.44 113.59 142.44 L 107.25 142.76 L 105.97 142.83 L 106.04 144.11 L 106.18 146.84 C 106.23 147.76 106.00 148.43 105.48 148.90 C 104.19 150.06 101.39 149.92 100.42 149.76 L 100.31 149.75 C 100.31 149.75 100.21 149.75 100.21 149.75 L 98.86 149.75 L 98.93 151.09 C 99.08 154.07 103.92 160.09 108.69 163.25 C 112.22 165.60 115.50 166.32 118.18 165.35 Z" fill="#6e6e96" fill-rule="nonzero" group-id="8,46,97" node-id="877" stroke="none" target-height="23.950012" target-width="24.909996" target-x="98.86" target-y="142.37"></path><path d="M 122.96 107.88 C 115.77 98.39 106.51 94.05 90.82 105.94 C 74.61 118.24 73.98 129.52 85.96 138.05 C 96.58 145.61 110.69 149.68 116.59 142.84 C 124.74 133.37 131.01 118.50 122.96 107.88 Z" fill="#f9e6d4" fill-rule="nonzero" group-id="8,46,98" node-id="882" stroke="none" target-height="55.62999" target-width="57.02999" target-x="73.98" target-y="94.05"></path><path d="M 122.39 107.59 C 115.20 98.10 105.94 93.77 90.25 105.66 C 74.04 117.95 73.41 129.24 85.39 137.76 C 96.01 145.33 110.12 149.40 116.02 142.55 C 124.17 133.09 130.44 118.21 122.39 107.59 Z M 114.63 138.21 C 106.36 147.90 84.99 129.94 84.99 129.94 C 92.31 122.63 99.53 105.43 99.53 105.43 C 101.31 107.90 116.91 107.71 116.91 107.71 C 125.14 111.50 122.89 128.52 114.63 138.21 Z" fill="#e8b98e" fill-opacity="0.39" fill-rule="nonzero" group-id="8,46,99" node-id="887" stroke="none" target-height="55.629997" target-width="57.03" target-x="73.41" target-y="93.77"></path><path d="M 123.98 107.10 C 119.66 101.40 115.10 98.29 110.05 97.59 C 104.16 96.78 97.62 99.18 90.05 104.92 C 80.92 111.84 76.34 118.66 76.44 125.19 C 76.51 130.32 79.47 135.00 85.21 139.09 C 96.39 147.05 111.09 151.18 117.56 143.68 C 126.60 133.18 132.10 117.80 123.98 107.10 Z M 115.62 142.00 C 110.21 148.28 96.68 144.11 86.70 137.00 C 81.66 133.41 79.07 129.42 79.00 125.15 C 78.92 119.49 83.15 113.37 91.60 106.96 C 98.60 101.65 104.52 99.42 109.70 100.13 C 114.10 100.74 117.99 103.44 121.94 108.65 C 129.19 118.21 123.99 132.29 115.62 142.00 Z" fill="#6e6e96" fill-rule="nonzero" group-id="8,46,100" node-id="892" stroke="none" target-height="54.399994" target-width="55.76001" target-x="76.34" target-y="96.78"></path><path d="M 90.78 159.89 C 90.78 159.89 88.35 165.03 87.19 179.01 C 86.95 181.89 99.47 152.93 90.78 159.89 Z" fill="#ffffff" fill-rule="nonzero" group-id="8,46,101" node-id="897" stroke="none" target-height="28.960007" target-width="12.520004" target-x="86.95" target-y="152.93"></path><path d="M 90.70 159.47 C 90.24 159.56 87.89 165.36 86.76 178.98 C 86.72 179.47 86.97 179.62 87.12 179.66 C 87.44 179.75 87.84 179.87 89.90 176.00 C 90.51 174.86 95.81 160.09 93.82 158.44 C 92.98 157.74 91.53 158.74 90.52 159.56 L 90.70 159.47 Z M 87.61 179.05 C 88.69 166.05 90.89 160.31 90.91 160.30 C 90.91 160.30 90.89 160.30 90.87 160.31 L 90.97 160.29 L 91.05 160.22 C 92.66 158.94 93.16 159.04 93.24 159.08 C 93.36 159.13 93.40 159.40 93.42 159.51 C 93.74 162.62 88.04 178.23 87.11 178.86 C 87.16 178.84 87.28 178.80 87.42 178.86 C 87.56 178.93 87.61 179.05 87.61 179.10 C 87.61 179.10 87.61 179.08 87.61 179.05 Z" fill="#6e6e96" fill-rule="nonzero" group-id="8,46,102" node-id="902" stroke="none" target-height="22.12999" target-width="9.089996" target-x="86.72" target-y="157.74"></path><path d="M 94.53 99.06 C 94.53 99.06 108.33 104.65 122.38 102.09 C 122.38 102.09 104.68 87.81 94.53 99.06 Z" fill="#b89289" fill-rule="nonzero" group-id="8,46,103" node-id="907" stroke="none" target-height="16.840004" target-width="27.849998" target-x="94.53" target-y="87.81"></path><path d="M 100.28 96.39 C 100.28 96.39 94.28 115.92 74.38 134.55 C 74.38 134.55 73.01 121.37 80.21 105.83 C 84.46 96.65 100.28 96.39 100.28 96.39 Z" fill="#b89289" fill-rule="nonzero" group-id="8,46,104" node-id="912" stroke="none" target-height="38.160004" target-width="27.269997" target-x="73.01" target-y="96.39"></path><path d="M 98.26 96.68 L 98.26 96.68 C 98.19 96.89 90.45 118.57 73.53 133.57 L 73.53 133.57 C 73.00 134.04 72.95 134.85 73.42 135.38 C 73.89 135.91 74.70 135.96 75.23 135.49 L 75.23 135.49 C 92.67 120.03 100.36 98.44 100.68 97.53 L 100.68 97.53 C 100.92 96.86 100.56 96.13 99.89 95.89 C 99.23 95.66 98.50 96.01 98.26 96.68 L 98.26 96.68 Z" fill="#6e6e96" fill-rule="nonzero" group-id="8,46,105" node-id="917" stroke="none" target-height="40.300003" target-width="27.970001" target-x="72.95" target-y="95.66"></path><path d="M 97.64 101.45 C 98.07 101.66 108.52 106.58 125.81 103.38 L 125.81 103.38 C 126.51 103.25 126.97 102.58 126.84 101.89 C 126.71 101.19 126.05 100.73 125.35 100.86 L 125.35 100.86 C 108.87 103.91 98.85 99.18 98.75 99.13 L 98.75 99.13 C 98.11 98.83 97.35 99.09 97.04 99.73 C 96.73 100.37 97.00 101.14 97.64 101.45 L 97.64 101.45 Z" fill="#6e6e96" fill-rule="nonzero" group-id="8,46,106" node-id="922" stroke="none" target-height="7.75" target-width="30.239998" target-x="96.73" target-y="98.83"></path><path d="M 97.72 160.44 C 99.19 166.09 95.53 174.59 95.53 174.59 C 96.11 175.69 98.28 176.62 98.90 177.48 C 99.27 178.00 99.58 178.52 99.83 179.05 L 129.10 179.05 C 129.37 178.35 129.10 179.05 129.10 179.05 C 133.49 170.02 128.37 155.05 120.83 150.25 C 120.19 149.97 119.51 149.95 119.09 150.17 C 116.19 151.64 118.78 156.90 116.09 160.06 C 110.95 166.09 106.32 150.07 99.56 150.86 C 99.22 150.88 98.89 150.91 98.58 150.95 C 98.58 150.95 98.58 150.95 98.58 150.95 C 96.77 150.92 92.09 152.90 89.73 157.56 C 89.73 157.56 96.25 154.79 97.72 160.44 Z" fill="#ffffff" fill-rule="nonzero" group-id="8,46,107" node-id="927" stroke="none" target-height="29.100006" target-width="43.760002" target-x="89.73" target-y="149.95"></path><path d="M 102.93 174.50 C 102.93 174.50 141.95 173.67 120.31 151.42 C 120.31 151.42 135.70 163.68 127.94 178.49 L 101.75 178.49 L 102.93 174.50 Z" fill="#6e6e96" fill-opacity="0.15" fill-rule="nonzero" group-id="8,46,108" node-id="932" stroke="none" target-height="27.070007" target-width="40.199997" target-x="101.75" target-y="151.42"></path><path d="M 96.48 160.76 C 97.75 165.66 94.63 173.68 94.59 173.72 C 94.22 174.12 94.13 174.72 94.40 175.20 C 94.87 176.09 95.81 176.72 96.71 177.34 C 97.13 177.63 97.71 178.03 97.85 178.23 C 98.17 178.67 98.44 179.12 98.69 179.62 C 98.90 180.06 99.35 180.33 99.83 180.33 L 129.10 180.33 C 129.63 180.33 130.10 180.01 130.29 179.51 L 130.41 179.21 C 130.67 178.54 130.34 177.80 129.68 177.54 C 129.02 177.29 128.28 177.62 128.02 178.28 L 127.90 178.59 C 127.65 179.23 127.95 179.95 128.58 180.23 C 129.22 180.50 129.95 180.23 130.25 179.61 C 134.95 169.95 129.50 154.26 121.52 149.17 C 121.47 149.14 121.41 149.11 121.35 149.08 C 120.39 148.65 119.30 148.63 118.52 149.02 C 116.35 150.12 116.28 152.49 116.23 154.58 C 116.18 156.28 116.14 158.03 115.11 159.23 C 114.33 160.15 113.83 160.14 113.66 160.14 C 112.34 160.13 110.46 157.86 108.79 155.86 C 106.18 152.71 103.22 149.15 99.42 149.59 C 99.14 149.60 98.77 149.63 98.41 149.68 C 98.47 149.67 98.52 149.67 98.58 149.67 C 96.42 149.63 91.25 151.74 88.59 156.98 C 88.34 157.46 88.42 158.04 88.79 158.43 C 89.16 158.83 89.73 158.95 90.23 158.74 C 91.00 158.42 93.33 157.75 94.88 158.52 C 95.66 158.91 96.19 159.65 96.48 160.76 Z M 90.87 158.14 C 93.00 153.93 97.23 152.21 98.55 152.23 C 98.62 152.23 98.68 152.23 98.74 152.22 C 99.03 152.18 99.33 152.16 99.63 152.14 C 102.13 151.85 104.62 154.85 106.82 157.50 C 109.03 160.17 111.13 162.69 113.64 162.70 C 114.88 162.71 116.03 162.10 117.06 160.89 C 118.67 159.00 118.74 156.59 118.79 154.65 C 118.84 152.66 118.95 151.68 119.67 151.31 C 119.66 151.32 119.66 151.32 119.66 151.32 C 119.73 151.29 119.99 151.28 120.30 151.42 C 120.25 151.40 120.19 151.37 120.14 151.33 C 127.17 155.82 132.02 170.12 127.94 178.49 C 128.24 177.87 128.98 177.60 129.61 177.88 C 130.24 178.15 130.54 178.87 130.29 179.51 L 130.41 179.21 C 130.67 178.54 130.34 177.80 129.68 177.54 C 129.02 177.29 128.28 177.62 128.02 178.28 L 127.90 178.59 C 128.09 178.09 128.57 177.77 129.10 177.77 L 99.83 177.77 C 100.32 177.77 100.77 178.04 100.98 178.48 C 100.67 177.86 100.33 177.29 99.94 176.74 C 99.53 176.17 98.86 175.72 98.16 175.23 C 97.60 174.85 96.83 174.33 96.66 173.99 C 96.92 174.48 96.83 175.08 96.45 175.48 C 96.62 175.30 100.58 166.38 98.96 160.12 C 98.48 158.26 97.48 156.95 96.00 156.22 C 93.08 154.78 89.38 156.31 89.23 156.38 C 89.72 156.17 90.30 156.29 90.66 156.69 C 91.03 157.07 91.11 157.66 90.87 158.14 Z" fill="#6e6e96" fill-rule="nonzero" group-id="8,46,109" node-id="937" stroke="none" target-height="31.869995" target-width="46.61" target-x="88.34" target-y="148.63"></path><path d="M 101.75 179.05 C 101.78 176.95 101.66 174.65 101.50 171.72 C 101.20 166.21 97.06 155.75 93.59 155.52 C 90.13 155.29 87.44 159.61 86.65 165.07 C 86.29 167.56 86.34 175.48 86.64 179.05 L 101.75 179.05 L 101.75 179.05 Z" fill="#f9e6d4" fill-rule="nonzero" group-id="8,46,110" node-id="942" stroke="none" target-height="23.76001" target-width="15.489998" target-x="86.29" target-y="155.29"></path><path d="M 110.05 120.41 C 110.05 120.41 110.05 120.41 110.05 120.42 C 109.95 119.45 109.97 116.50 111.30 115.60 C 112.33 114.91 114.13 115.59 115.45 116.29 L 115.45 116.29 C 116.08 116.62 116.85 116.38 117.18 115.75 C 117.51 115.12 117.27 114.35 116.64 114.02 L 116.64 114.02 C 113.81 112.53 111.53 112.35 109.86 113.48 C 107.03 115.39 107.44 120.15 107.50 120.68 L 107.50 120.68 C 107.57 121.39 108.20 121.90 108.90 121.82 C 109.61 121.75 110.12 121.12 110.05 120.41 L 110.05 120.41 Z" fill="#6e6e96" fill-rule="nonzero" group-id="8,46,111" node-id="947" stroke="none" target-height="9.550003" target-width="10.480003" target-x="107.03" target-y="112.35"></path><path d="M 95.59 128.35 C 95.59 128.35 95.59 128.35 95.59 128.35 C 95.50 127.39 95.53 124.44 96.85 123.54 C 97.89 122.85 99.68 123.54 101.00 124.24 L 101.00 124.24 C 101.63 124.57 102.41 124.33 102.74 123.70 C 103.07 123.08 102.83 122.30 102.20 121.97 L 102.20 121.97 C 99.37 120.48 97.09 120.29 95.41 121.42 C 92.59 123.33 92.99 128.08 93.04 128.61 L 93.04 128.61 C 93.11 129.32 93.74 129.83 94.45 129.76 C 95.15 129.69 95.67 129.06 95.59 128.35 L 95.59 128.35 Z" fill="#6e6e96" fill-rule="nonzero" group-id="8,46,112" node-id="952" stroke="none" target-height="9.540001" target-width="10.480003" target-x="92.59" target-y="120.29"></path><path d="M 106.70 136.90 C 109.47 137.42 115.21 136.56 117.15 129.57 L 117.15 129.57 C 117.34 128.89 116.94 128.18 116.26 128.00 C 115.57 127.81 114.87 128.20 114.68 128.89 L 114.68 128.89 C 112.92 135.21 107.75 134.48 107.17 134.38 L 107.46 134.47 L 107.17 134.38 C 106.48 134.25 105.81 134.71 105.68 135.41 C 105.55 136.10 106.00 136.77 106.70 136.90 L 106.70 136.90 Z" fill="#6e6e96" fill-rule="nonzero" group-id="8,46,113" node-id="957" stroke="none" target-height="9.610001" target-width="11.789993" target-x="105.55" target-y="127.81"></path><path d="M 81.83 145.20 C 62.94 131.19 75.02 108.85 75.02 108.85 C 75.02 108.85 63.92 148.91 103.80 147.29 C 136.57 145.96 123.47 99.73 123.47 99.73 C 123.47 99.73 153.16 142.26 104.51 150.81 C 93.89 152.69 86.53 148.69 81.83 145.20 Z" fill="#6e6e96" fill-opacity="0.25" fill-rule="nonzero" group-id="8,46,114" node-id="962" stroke="none" target-height="52.96" target-width="90.22" target-x="62.94" target-y="99.73"></path><path d="M 74.00 126.18 C 74.00 126.18 94.00 111.99 99.90 95.89 C 99.90 95.89 90.36 123.80 75.85 133.14 L 74.00 126.18 Z" fill="#6e6e96" fill-opacity="0.25" fill-rule="nonzero" group-id="8,46,115" node-id="967" stroke="none" target-height="37.25" target-width="25.900002" target-x="74" target-y="95.89"></path><path d="M 93.51 156.80 C 93.51 156.80 97.11 160.14 97.11 166.42 C 97.11 172.69 97.11 174.06 97.11 174.06 L 87.68 174.06 L 87.68 177.76 L 100.60 177.76 C 100.59 177.76 103.80 160.22 93.51 156.80 Z" fill="#e8b98e" fill-opacity="0.39" fill-rule="nonzero" group-id="8,46,116" node-id="972" stroke="none" target-height="20.959991" target-width="16.120003" target-x="87.68" target-y="156.8"></path><path d="M 103.03 179.07 C 103.06 176.88 102.94 169.77 102.78 167.00 C 102.45 160.96 97.85 154.52 93.68 154.24 C 89.67 153.97 86.33 158.25 85.38 164.89 C 85.03 167.31 85.03 175.19 85.36 179.16 L 85.46 180.33 L 86.64 180.33 L 101.75 180.33 L 103.01 180.33 L 103.03 179.07 Z M 87.92 178.94 C 87.60 175.17 87.60 167.48 87.92 165.25 C 88.65 160.19 91.00 156.63 93.51 156.80 C 96.14 156.98 99.94 166.77 100.22 171.79 C 100.37 174.51 100.49 176.92 100.46 179.03 L 101.74 177.76 L 86.64 177.76 L 87.92 178.94 Z" fill="#6e6e96" fill-rule="nonzero" group-id="8,46,117" node-id="977" stroke="none" target-height="26.36" target-width="18.029999" target-x="85.03" target-y="153.97"></path><path d="M 108.79 155.85 C 108.79 155.85 109.48 148.21 116.44 152.03 L 113.22 148.81 L 107.79 150.16 L 105.21 151.94 L 108.79 155.85 Z" fill="#e8b98e" fill-opacity="0.39" fill-rule="nonzero" group-id="8,46,118" node-id="982" stroke="none" target-height="7.6399994" target-width="11.230003" target-x="105.21" target-y="148.21"></path><path d="M 148.67 118.09 L 190.52 118.09 L 190.52 122.19 L 148.67 122.19 Z" fill="#6e6e96" fill-opacity="0.5" fill-rule="nonzero" group-id="8,47" node-id="988" stroke="none" target-height="4.100006" target-width="41.850006" target-x="148.67" target-y="118.09"></path><path d="M 157.08 130.40 L 182.10 130.40 L 182.10 134.50 L 157.08 134.50 Z" fill="#6e6e96" fill-opacity="0.5" fill-rule="nonzero" group-id="8,48" node-id="993" stroke="none" target-height="4.100006" target-width="25.020004" target-x="157.08" target-y="130.4"></path><path d="M 151.13 142.71 L 188.06 142.71 L 188.06 146.81 L 151.13 146.81 Z" fill="#6e6e96" fill-opacity="0.5" fill-rule="nonzero" group-id="8,49" node-id="998" stroke="none" target-height="4.099991" target-width="36.929993" target-x="151.13" target-y="142.71"></path><path d="M 61.57 171.86 L 204.81 171.86 L 204.81 178.81 L 61.57 178.81 Z" fill="#6e6e96" fill-opacity="0.15" fill-rule="nonzero" group-id="8,50" node-id="1003" stroke="none" target-height="6.949997" target-width="143.23999" target-x="61.57" target-y="171.86"></path><path d="M 92.36 186.35 L 108.78 186.35 L 108.78 192.50 L 92.36 192.50 Z" fill="#6e6e96" fill-opacity="0.15" fill-rule="nonzero" group-id="8,51" node-id="1008" stroke="none" target-height="6.149994" target-width="16.419998" target-x="92.36" target-y="186.35"></path><path d="M 157.76 186.35 L 174.18 186.35 L 174.18 192.50 L 157.76 192.50 Z" fill="#6e6e96" fill-opacity="0.15" fill-rule="nonzero" group-id="8,52" node-id="1013" stroke="none" target-height="6.149994" target-width="16.419998" target-x="157.76" target-y="186.35"></path><path d="M 84.77 239.04 L 116.36 239.04 L 116.36 248.05 L 84.77 248.05 Z" fill="#ddddeb" fill-rule="nonzero" group-id="8,53" node-id="1018" stroke="none" target-height="9.01001" target-width="31.590004" target-x="84.77" target-y="239.04"></path><path d="M 116.36 249.55 L 84.77 249.55 C 83.94 249.55 83.27 248.88 83.27 248.05 L 83.27 239.04 C 83.27 238.22 83.94 237.54 84.77 237.54 L 116.36 237.54 C 117.19 237.54 117.86 238.22 117.86 239.04 L 117.86 248.05 C 117.86 248.88 117.19 249.55 116.36 249.55 Z M 86.27 246.55 L 114.86 246.55 L 114.86 240.54 L 86.27 240.54 L 86.27 246.55 Z" fill="#6e6e96" fill-rule="nonzero" group-id="8,53" node-id="1020" stroke="none" target-height="12.01001" target-width="34.590004" target-x="83.27" target-y="237.54"></path><path d="M 150.44 239.04 L 182.03 239.04 L 182.03 248.05 L 150.44 248.05 Z" fill="#ddddeb" fill-rule="nonzero" group-id="8,54" node-id="1025" stroke="none" target-height="9.01001" target-width="31.589996" target-x="150.44" target-y="239.04"></path><path d="M 182.03 249.55 L 150.44 249.55 C 149.61 249.55 148.94 248.88 148.94 248.05 L 148.94 239.04 C 148.94 238.22 149.61 237.54 150.44 237.54 L 182.03 237.54 C 182.85 237.54 183.53 238.22 183.53 239.04 L 183.53 248.05 C 183.53 248.88 182.85 249.55 182.03 249.55 Z M 151.94 246.55 L 180.53 246.55 L 180.53 240.54 L 151.94 240.54 L 151.94 246.55 Z" fill="#6e6e96" fill-rule="nonzero" group-id="8,54" node-id="1027" stroke="none" target-height="12.01001" target-width="34.589996" target-x="148.94" target-y="237.54"></path><path d="M 169.31 239.04 L 182.03 239.04 L 182.03 248.05 L 169.31 248.05 Z" fill="#6e6e96" fill-opacity="0.15" fill-rule="nonzero" group-id="8,55" node-id="1032" stroke="none" target-height="9.01001" target-width="12.720001" target-x="169.31" target-y="239.04"></path><path d="M 104.87 239.04 L 116.36 239.04 L 116.36 248.05 L 104.87 248.05 Z" fill="#6e6e96" fill-opacity="0.15" fill-rule="nonzero" group-id="8,56" node-id="1037" stroke="none" target-height="9.01001" target-width="11.489998" target-x="104.87" target-y="239.04"></path><path d="M 93.57 192.50 L 96.25 192.50 L 96.25 237.84 L 93.57 237.84 Z" fill="#ffffff" fill-opacity="0.39" fill-rule="nonzero" group-id="8,57" node-id="1042" stroke="none" target-height="45.339996" target-width="2.6800003" target-x="93.57" target-y="192.5"></path><path d="M 159.24 192.50 L 161.92 192.50 L 161.92 237.84 L 159.24 237.84 Z" fill="#ffffff" fill-opacity="0.39" fill-rule="nonzero" group-id="8,58" node-id="1047" stroke="none" target-height="45.339996" target-width="2.6799927" target-x="159.24" target-y="192.5"></path></svg>